0
SECTION
2
HEADER
9
$EXTMIN
10
0
20
0
9
$EXTMAX
10
750
20
975
0
ENDSEC
0
SECTION
2
TABLES
0
TABLE
2
VPORT
70
1
0
VPORT
2
*ACTIVE
70
0
10
0
20
0
11
1
21
1
12
0
22
0
13
0
23
0
14
1
24
1
15
0
25
0
16
0
26
0
36
1
17
0
27
0
37
0
40
300
41
2.12
42
50
43
0
44
0
50
0
51
0
71
0
72
100
73
1
74
1
75
0
76
0
77
0
78
0
0
ENDTAB
0
ENDSEC
0
SECTION
2
ENTITIES
0
POLYLINE
8
1
66
1
70
0
0
VERTEX
8
1
10
61.67
20
94.63
0
VERTEX
8
1
10
61.67
20
94.63
0
VERTEX
8
1
10
61.72
20
94.96
0
VERTEX
8
1
10
61.77
20
95.30
0
VERTEX
8
1
10
61.82
20
95.63
0
VERTEX
8
1
10
61.87
20
95.97
0
VERTEX
8
1
10
61.92
20
96.30
0
VERTEX
8
1
10
61.97
20
96.64
0
VERTEX
8
1
10
62.02
20
96.97
0
VERTEX
8
1
10
62.07
20
97.31
0
VERTEX
8
1
10
62.12
20
97.65
0
VERTEX
8
1
10
62.16
20
97.98
0
VERTEX
8
1
10
62.21
20
98.32
0
VERTEX
8
1
10
62.26
20
98.65
0
VERTEX
8
1
10
62.31
20
98.99
0
VERTEX
8
1
10
62.36
20
99.32
0
VERTEX
8
1
10
62.41
20
99.66
0
VERTEX
8
1
10
62.46
20
100.00
0
VERTEX
8
1
10
62.51
20
100.33
0
VERTEX
8
1
10
62.56
20
100.67
0
VERTEX
8
1
10
62.58
20
101.01
0
VERTEX
8
1
10
62.57
20
101.35
0
VERTEX
8
1
10
62.55
20
101.70
0
VERTEX
8
1
10
62.52
20
102.04
0
VERTEX
8
1
10
62.48
20
102.39
0
VERTEX
8
1
10
62.43
20
102.74
0
VERTEX
8
1
10
62.37
20
103.09
0
VERTEX
8
1
10
62.30
20
103.44
0
VERTEX
8
1
10
62.22
20
103.80
0
VERTEX
8
1
10
62.13
20
104.15
0
VERTEX
8
1
10
62.04
20
104.50
0
VERTEX
8
1
10
61.93
20
104.86
0
VERTEX
8
1
10
61.82
20
105.21
0
VERTEX
8
1
10
61.71
20
105.57
0
VERTEX
8
1
10
61.58
20
105.92
0
VERTEX
8
1
10
61.45
20
106.28
0
VERTEX
8
1
10
61.31
20
106.63
0
VERTEX
8
1
10
61.17
20
106.99
0
VERTEX
8
1
10
61.02
20
107.35
0
VERTEX
8
1
10
60.86
20
107.70
0
VERTEX
8
1
10
60.70
20
108.06
0
VERTEX
8
1
10
60.53
20
108.41
0
VERTEX
8
1
10
60.35
20
108.77
0
VERTEX
8
1
10
60.17
20
109.12
0
VERTEX
8
1
10
59.98
20
109.48
0
VERTEX
8
1
10
59.78
20
109.83
0
VERTEX
8
1
10
59.58
20
110.19
0
VERTEX
8
1
10
59.37
20
110.54
0
VERTEX
8
1
10
59.16
20
110.89
0
VERTEX
8
1
10
58.94
20
111.24
0
VERTEX
8
1
10
58.71
20
111.59
0
VERTEX
8
1
10
58.48
20
111.94
0
VERTEX
8
1
10
53.52
20
111.94
0
VERTEX
8
1
10
53.29
20
111.59
0
VERTEX
8
1
10
53.06
20
111.24
0
VERTEX
8
1
10
52.84
20
110.89
0
VERTEX
8
1
10
52.63
20
110.54
0
VERTEX
8
1
10
52.42
20
110.19
0
VERTEX
8
1
10
52.22
20
109.83
0
VERTEX
8
1
10
52.02
20
109.48
0
VERTEX
8
1
10
51.83
20
109.12
0
VERTEX
8
1
10
51.65
20
108.77
0
VERTEX
8
1
10
51.47
20
108.41
0
VERTEX
8
1
10
51.30
20
108.06
0
VERTEX
8
1
10
51.14
20
107.70
0
VERTEX
8
1
10
50.98
20
107.35
0
VERTEX
8
1
10
50.83
20
106.99
0
VERTEX
8
1
10
50.69
20
106.63
0
VERTEX
8
1
10
50.55
20
106.28
0
VERTEX
8
1
10
50.42
20
105.92
0
VERTEX
8
1
10
50.29
20
105.57
0
VERTEX
8
1
10
50.18
20
105.21
0
VERTEX
8
1
10
50.07
20
104.86
0
VERTEX
8
1
10
49.96
20
104.50
0
VERTEX
8
1
10
49.87
20
104.15
0
VERTEX
8
1
10
49.78
20
103.80
0
VERTEX
8
1
10
49.70
20
103.44
0
VERTEX
8
1
10
49.63
20
103.09
0
VERTEX
8
1
10
49.57
20
102.74
0
VERTEX
8
1
10
49.52
20
102.39
0
VERTEX
8
1
10
49.48
20
102.04
0
VERTEX
8
1
10
49.45
20
101.70
0
VERTEX
8
1
10
49.43
20
101.35
0
VERTEX
8
1
10
49.42
20
101.01
0
VERTEX
8
1
10
49.44
20
100.67
0
VERTEX
8
1
10
49.49
20
100.33
0
VERTEX
8
1
10
49.54
20
100.00
0
VERTEX
8
1
10
49.59
20
99.66
0
VERTEX
8
1
10
49.64
20
99.32
0
VERTEX
8
1
10
49.69
20
98.99
0
VERTEX
8
1
10
49.74
20
98.65
0
VERTEX
8
1
10
49.79
20
98.32
0
VERTEX
8
1
10
49.84
20
97.98
0
VERTEX
8
1
10
49.88
20
97.65
0
VERTEX
8
1
10
49.93
20
97.31
0
VERTEX
8
1
10
49.98
20
96.97
0
VERTEX
8
1
10
50.03
20
96.64
0
VERTEX
8
1
10
50.08
20
96.30
0
VERTEX
8
1
10
50.13
20
95.97
0
VERTEX
8
1
10
50.18
20
95.63
0
VERTEX
8
1
10
50.23
20
95.30
0
VERTEX
8
1
10
50.28
20
94.96
0
VERTEX
8
1
10
50.33
20
94.63
0
VERTEX
8
1
10
41.60
20
92.29
0
VERTEX
8
1
10
41.47
20
92.60
0
VERTEX
8
1
10
41.35
20
92.92
0
VERTEX
8
1
10
41.22
20
93.23
0
VERTEX
8
1
10
41.10
20
93.55
0
VERTEX
8
1
10
40.97
20
93.86
0
VERTEX
8
1
10
40.85
20
94.18
0
VERTEX
8
1
10
40.72
20
94.49
0
VERTEX
8
1
10
40.60
20
94.81
0
VERTEX
8
1
10
40.47
20
95.12
0
VERTEX
8
1
10
40.35
20
95.44
0
VERTEX
8
1
10
40.22
20
95.75
0
VERTEX
8
1
10
40.10
20
96.07
0
VERTEX
8
1
10
39.97
20
96.39
0
VERTEX
8
1
10
39.85
20
96.70
0
VERTEX
8
1
10
39.72
20
97.02
0
VERTEX
8
1
10
39.60
20
97.33
0
VERTEX
8
1
10
39.47
20
97.65
0
VERTEX
8
1
10
39.35
20
97.96
0
VERTEX
8
1
10
39.19
20
98.27
0
VERTEX
8
1
10
39.02
20
98.56
0
VERTEX
8
1
10
38.83
20
98.85
0
VERTEX
8
1
10
38.63
20
99.14
0
VERTEX
8
1
10
38.42
20
99.42
0
VERTEX
8
1
10
38.20
20
99.69
0
VERTEX
8
1
10
37.97
20
99.97
0
VERTEX
8
1
10
37.73
20
100.24
0
VERTEX
8
1
10
37.49
20
100.50
0
VERTEX
8
1
10
37.24
20
100.76
0
VERTEX
8
1
10
36.98
20
101.02
0
VERTEX
8
1
10
36.71
20
101.28
0
VERTEX
8
1
10
36.44
20
101.53
0
VERTEX
8
1
10
36.16
20
101.78
0
VERTEX
8
1
10
35.87
20
102.03
0
VERTEX
8
1
10
35.58
20
102.27
0
VERTEX
8
1
10
35.29
20
102.51
0
VERTEX
8
1
10
34.98
20
102.74
0
VERTEX
8
1
10
34.67
20
102.98
0
VERTEX
8
1
10
34.36
20
103.21
0
VERTEX
8
1
10
34.04
20
103.43
0
VERTEX
8
1
10
33.71
20
103.65
0
VERTEX
8
1
10
33.38
20
103.87
0
VERTEX
8
1
10
33.05
20
104.09
0
VERTEX
8
1
10
32.71
20
104.30
0
VERTEX
8
1
10
32.36
20
104.51
0
VERTEX
8
1
10
32.01
20
104.72
0
VERTEX
8
1
10
31.65
20
104.92
0
VERTEX
8
1
10
31.29
20
105.12
0
VERTEX
8
1
10
30.92
20
105.31
0
VERTEX
8
1
10
30.55
20
105.50
0
VERTEX
8
1
10
30.18
20
105.69
0
VERTEX
8
1
10
25.88
20
103.21
0
VERTEX
8
1
10
25.85
20
102.79
0
VERTEX
8
1
10
25.83
20
102.37
0
VERTEX
8
1
10
25.82
20
101.96
0
VERTEX
8
1
10
25.81
20
101.55
0
VERTEX
8
1
10
25.81
20
101.14
0
VERTEX
8
1
10
25.81
20
100.73
0
VERTEX
8
1
10
25.82
20
100.32
0
VERTEX
8
1
10
25.83
20
99.92
0
VERTEX
8
1
10
25.85
20
99.52
0
VERTEX
8
1
10
25.87
20
99.13
0
VERTEX
8
1
10
25.90
20
98.73
0
VERTEX
8
1
10
25.94
20
98.34
0
VERTEX
8
1
10
25.98
20
97.96
0
VERTEX
8
1
10
26.03
20
97.57
0
VERTEX
8
1
10
26.08
20
97.19
0
VERTEX
8
1
10
26.14
20
96.82
0
VERTEX
8
1
10
26.20
20
96.44
0
VERTEX
8
1
10
26.27
20
96.07
0
VERTEX
8
1
10
26.35
20
95.71
0
VERTEX
8
1
10
26.43
20
95.34
0
VERTEX
8
1
10
26.52
20
94.99
0
VERTEX
8
1
10
26.62
20
94.63
0
VERTEX
8
1
10
26.72
20
94.28
0
VERTEX
8
1
10
26.83
20
93.94
0
VERTEX
8
1
10
26.94
20
93.60
0
VERTEX
8
1
10
27.06
20
93.26
0
VERTEX
8
1
10
27.19
20
92.94
0
VERTEX
8
1
10
27.33
20
92.61
0
VERTEX
8
1
10
27.48
20
92.30
0
VERTEX
8
1
10
27.63
20
91.99
0
VERTEX
8
1
10
27.80
20
91.69
0
VERTEX
8
1
10
27.99
20
91.40
0
VERTEX
8
1
10
28.20
20
91.14
0
VERTEX
8
1
10
28.41
20
90.87
0
VERTEX
8
1
10
28.62
20
90.60
0
VERTEX
8
1
10
28.83
20
90.34
0
VERTEX
8
1
10
29.04
20
90.07
0
VERTEX
8
1
10
29.25
20
89.81
0
VERTEX
8
1
10
29.46
20
89.54
0
VERTEX
8
1
10
29.67
20
89.27
0
VERTEX
8
1
10
29.88
20
89.01
0
VERTEX
8
1
10
30.09
20
88.74
0
VERTEX
8
1
10
30.30
20
88.48
0
VERTEX
8
1
10
30.51
20
88.21
0
VERTEX
8
1
10
30.72
20
87.94
0
VERTEX
8
1
10
30.93
20
87.68
0
VERTEX
8
1
10
31.14
20
87.41
0
VERTEX
8
1
10
31.35
20
87.15
0
VERTEX
8
1
10
31.56
20
86.88
0
VERTEX
8
1
10
31.77
20
86.61
0
VERTEX
8
1
10
25.39
20
80.23
0
VERTEX
8
1
10
25.12
20
80.44
0
VERTEX
8
1
10
24.85
20
80.65
0
VERTEX
8
1
10
24.59
20
80.86
0
VERTEX
8
1
10
24.32
20
81.07
0
VERTEX
8
1
10
24.06
20
81.28
0
VERTEX
8
1
10
23.79
20
81.49
0
VERTEX
8
1
10
23.52
20
81.70
0
VERTEX
8
1
10
23.26
20
81.91
0
VERTEX
8
1
10
22.99
20
82.12
0
VERTEX
8
1
10
22.73
20
82.33
0
VERTEX
8
1
10
22.46
20
82.54
0
VERTEX
8
1
10
22.19
20
82.75
0
VERTEX
8
1
10
21.93
20
82.96
0
VERTEX
8
1
10
21.66
20
83.17
0
VERTEX
8
1
10
21.40
20
83.38
0
VERTEX
8
1
10
21.13
20
83.59
0
VERTEX
8
1
10
20.86
20
83.80
0
VERTEX
8
1
10
20.60
20
84.01
0
VERTEX
8
1
10
20.31
20
84.20
0
VERTEX
8
1
10
20.01
20
84.37
0
VERTEX
8
1
10
19.70
20
84.52
0
VERTEX
8
1
10
19.39
20
84.67
0
VERTEX
8
1
10
19.06
20
84.81
0
VERTEX
8
1
10
18.74
20
84.94
0
VERTEX
8
1
10
18.40
20
85.06
0
VERTEX
8
1
10
18.06
20
85.17
0
VERTEX
8
1
10
17.72
20
85.28
0
VERTEX
8
1
10
17.37
20
85.38
0
VERTEX
8
1
10
17.01
20
85.48
0
VERTEX
8
1
10
16.66
20
85.57
0
VERTEX
8
1
10
16.29
20
85.65
0
VERTEX
8
1
10
15.93
20
85.73
0
VERTEX
8
1
10
15.56
20
85.80
0
VERTEX
8
1
10
15.18
20
85.86
0
VERTEX
8
1
10
14.81
20
85.92
0
VERTEX
8
1
10
14.43
20
85.97
0
VERTEX
8
1
10
14.04
20
86.02
0
VERTEX
8
1
10
13.66
20
86.06
0
VERTEX
8
1
10
13.27
20
86.10
0
VERTEX
8
1
10
12.87
20
86.13
0
VERTEX
8
1
10
12.48
20
86.15
0
VERTEX
8
1
10
12.08
20
86.17
0
VERTEX
8
1
10
11.68
20
86.18
0
VERTEX
8
1
10
11.27
20
86.19
0
VERTEX
8
1
10
10.86
20
86.19
0
VERTEX
8
1
10
10.45
20
86.19
0
VERTEX
8
1
10
10.04
20
86.18
0
VERTEX
8
1
10
9.63
20
86.17
0
VERTEX
8
1
10
9.21
20
86.15
0
VERTEX
8
1
10
8.79
20
86.12
0
VERTEX
8
1
10
6.31
20
81.82
0
VERTEX
8
1
10
6.50
20
81.45
0
VERTEX
8
1
10
6.69
20
81.08
0
VERTEX
8
1
10
6.88
20
80.71
0
VERTEX
8
1
10
7.08
20
80.35
0
VERTEX
8
1
10
7.28
20
79.99
0
VERTEX
8
1
10
7.49
20
79.64
0
VERTEX
8
1
10
7.70
20
79.29
0
VERTEX
8
1
10
7.91
20
78.95
0
VERTEX
8
1
10
8.13
20
78.62
0
VERTEX
8
1
10
8.35
20
78.29
0
VERTEX
8
1
10
8.57
20
77.96
0
VERTEX
8
1
10
8.79
20
77.64
0
VERTEX
8
1
10
9.02
20
77.33
0
VERTEX
8
1
10
9.26
20
77.02
0
VERTEX
8
1
10
9.49
20
76.71
0
VERTEX
8
1
10
9.73
20
76.42
0
VERTEX
8
1
10
9.97
20
76.13
0
VERTEX
8
1
10
10.22
20
75.84
0
VERTEX
8
1
10
10.47
20
75.56
0
VERTEX
8
1
10
10.72
20
75.29
0
VERTEX
8
1
10
10.98
20
75.02
0
VERTEX
8
1
10
11.24
20
74.76
0
VERTEX
8
1
10
11.50
20
74.51
0
VERTEX
8
1
10
11.76
20
74.27
0
VERTEX
8
1
10
12.03
20
74.03
0
VERTEX
8
1
10
12.31
20
73.80
0
VERTEX
8
1
10
12.58
20
73.58
0
VERTEX
8
1
10
12.86
20
73.37
0
VERTEX
8
1
10
13.15
20
73.17
0
VERTEX
8
1
10
13.44
20
72.98
0
VERTEX
8
1
10
13.73
20
72.81
0
VERTEX
8
1
10
14.04
20
72.65
0
VERTEX
8
1
10
14.35
20
72.53
0
VERTEX
8
1
10
14.67
20
72.40
0
VERTEX
8
1
10
14.98
20
72.28
0
VERTEX
8
1
10
15.30
20
72.15
0
VERTEX
8
1
10
15.61
20
72.03
0
VERTEX
8
1
10
15.93
20
71.90
0
VERTEX
8
1
10
16.25
20
71.78
0
VERTEX
8
1
10
16.56
20
71.65
0
VERTEX
8
1
10
16.88
20
71.53
0
VERTEX
8
1
10
17.19
20
71.40
0
VERTEX
8
1
10
17.51
20
71.28
0
VERTEX
8
1
10
17.82
20
71.15
0
VERTEX
8
1
10
18.14
20
71.03
0
VERTEX
8
1
10
18.45
20
70.90
0
VERTEX
8
1
10
18.77
20
70.78
0
VERTEX
8
1
10
19.08
20
70.65
0
VERTEX
8
1
10
19.40
20
70.53
0
VERTEX
8
1
10
19.71
20
70.40
0
VERTEX
8
1
10
17.37
20
61.67
0
VERTEX
8
1
10
17.04
20
61.72
0
VERTEX
8
1
10
16.70
20
61.77
0
VERTEX
8
1
10
16.37
20
61.82
0
VERTEX
8
1
10
16.03
20
61.87
0
VERTEX
8
1
10
15.70
20
61.92
0
VERTEX
8
1
10
15.36
20
61.97
0
VERTEX
8
1
10
15.03
20
62.02
0
VERTEX
8
1
10
14.69
20
62.07
0
VERTEX
8
1
10
14.35
20
62.12
0
VERTEX
8
1
10
14.02
20
62.16
0
VERTEX
8
1
10
13.68
20
62.21
0
VERTEX
8
1
10
13.35
20
62.26
0
VERTEX
8
1
10
13.01
20
62.31
0
VERTEX
8
1
10
12.68
20
62.36
0
VERTEX
8
1
10
12.34
20
62.41
0
VERTEX
8
1
10
12.00
20
62.46
0
VERTEX
8
1
10
11.67
20
62.51
0
VERTEX
8
1
10
11.33
20
62.56
0
VERTEX
8
1
10
10.99
20
62.58
0
VERTEX
8
1
10
10.65
20
62.57
0
VERTEX
8
1
10
10.30
20
62.55
0
VERTEX
8
1
10
9.96
20
62.52
0
VERTEX
8
1
10
9.61
20
62.48
0
VERTEX
8
1
10
9.26
20
62.43
0
VERTEX
8
1
10
8.91
20
62.37
0
VERTEX
8
1
10
8.56
20
62.30
0
VERTEX
8
1
10
8.20
20
62.22
0
VERTEX
8
1
10
7.85
20
62.13
0
VERTEX
8
1
10
7.50
20
62.04
0
VERTEX
8
1
10
7.14
20
61.93
0
VERTEX
8
1
10
6.79
20
61.82
0
VERTEX
8
1
10
6.43
20
61.71
0
VERTEX
8
1
10
6.08
20
61.58
0
VERTEX
8
1
10
5.72
20
61.45
0
VERTEX
8
1
10
5.37
20
61.31
0
VERTEX
8
1
10
5.01
20
61.17
0
VERTEX
8
1
10
4.65
20
61.02
0
VERTEX
8
1
10
4.30
20
60.86
0
VERTEX
8
1
10
3.94
20
60.70
0
VERTEX
8
1
10
3.59
20
60.53
0
VERTEX
8
1
10
3.23
20
60.35
0
VERTEX
8
1
10
2.88
20
60.17
0
VERTEX
8
1
10
2.52
20
59.98
0
VERTEX
8
1
10
2.17
20
59.78
0
VERTEX
8
1
10
1.81
20
59.58
0
VERTEX
8
1
10
1.46
20
59.37
0
VERTEX
8
1
10
1.11
20
59.16
0
VERTEX
8
1
10
0.76
20
58.94
0
VERTEX
8
1
10
0.41
20
58.71
0
VERTEX
8
1
10
0.06
20
58.48
0
VERTEX
8
1
10
0.06
20
53.52
0
VERTEX
8
1
10
0.41
20
53.29
0
VERTEX
8
1
10
0.76
20
53.06
0
VERTEX
8
1
10
1.11
20
52.84
0
VERTEX
8
1
10
1.46
20
52.63
0
VERTEX
8
1
10
1.81
20
52.42
0
VERTEX
8
1
10
2.17
20
52.22
0
VERTEX
8
1
10
2.52
20
52.02
0
VERTEX
8
1
10
2.88
20
51.83
0
VERTEX
8
1
10
3.23
20
51.65
0
VERTEX
8
1
10
3.59
20
51.47
0
VERTEX
8
1
10
3.94
20
51.30
0
VERTEX
8
1
10
4.30
20
51.14
0
VERTEX
8
1
10
4.65
20
50.98
0
VERTEX
8
1
10
5.01
20
50.83
0
VERTEX
8
1
10
5.37
20
50.69
0
VERTEX
8
1
10
5.72
20
50.55
0
VERTEX
8
1
10
6.08
20
50.42
0
VERTEX
8
1
10
6.43
20
50.29
0
VERTEX
8
1
10
6.79
20
50.18
0
VERTEX
8
1
10
7.14
20
50.07
0
VERTEX
8
1
10
7.50
20
49.96
0
VERTEX
8
1
10
7.85
20
49.87
0
VERTEX
8
1
10
8.20
20
49.78
0
VERTEX
8
1
10
8.56
20
49.70
0
VERTEX
8
1
10
8.91
20
49.63
0
VERTEX
8
1
10
9.26
20
49.57
0
VERTEX
8
1
10
9.61
20
49.52
0
VERTEX
8
1
10
9.96
20
49.48
0
VERTEX
8
1
10
10.30
20
49.45
0
VERTEX
8
1
10
10.65
20
49.43
0
VERTEX
8
1
10
10.99
20
49.42
0
VERTEX
8
1
10
11.33
20
49.44
0
VERTEX
8
1
10
11.67
20
49.49
0
VERTEX
8
1
10
12.00
20
49.54
0
VERTEX
8
1
10
12.34
20
49.59
0
VERTEX
8
1
10
12.68
20
49.64
0
VERTEX
8
1
10
13.01
20
49.69
0
VERTEX
8
1
10
13.35
20
49.74
0
VERTEX
8
1
10
13.68
20
49.79
0
VERTEX
8
1
10
14.02
20
49.84
0
VERTEX
8
1
10
14.35
20
49.88
0
VERTEX
8
1
10
14.69
20
49.93
0
VERTEX
8
1
10
15.03
20
49.98
0
VERTEX
8
1
10
15.36
20
50.03
0
VERTEX
8
1
10
15.70
20
50.08
0
VERTEX
8
1
10
16.03
20
50.13
0
VERTEX
8
1
10
16.37
20
50.18
0
VERTEX
8
1
10
16.70
20
50.23
0
VERTEX
8
1
10
17.04
20
50.28
0
VERTEX
8
1
10
17.37
20
50.33
0
VERTEX
8
1
10
19.71
20
41.60
0
VERTEX
8
1
10
19.40
20
41.47
0
VERTEX
8
1
10
19.08
20
41.35
0
VERTEX
8
1
10
18.77
20
41.22
0
VERTEX
8
1
10
18.45
20
41.10
0
VERTEX
8
1
10
18.14
20
40.97
0
VERTEX
8
1
10
17.82
20
40.85
0
VERTEX
8
1
10
17.51
20
40.72
0
VERTEX
8
1
10
17.19
20
40.60
0
VERTEX
8
1
10
16.88
20
40.47
0
VERTEX
8
1
10
16.56
20
40.35
0
VERTEX
8
1
10
16.25
20
40.22
0
VERTEX
8
1
10
15.93
20
40.10
0
VERTEX
8
1
10
15.61
20
39.97
0
VERTEX
8
1
10
15.30
20
39.85
0
VERTEX
8
1
10
14.98
20
39.72
0
VERTEX
8
1
10
14.67
20
39.60
0
VERTEX
8
1
10
14.35
20
39.47
0
VERTEX
8
1
10
14.04
20
39.35
0
VERTEX
8
1
10
13.73
20
39.19
0
VERTEX
8
1
10
13.44
20
39.02
0
VERTEX
8
1
10
13.15
20
38.83
0
VERTEX
8
1
10
12.86
20
38.63
0
VERTEX
8
1
10
12.58
20
38.42
0
VERTEX
8
1
10
12.31
20
38.20
0
VERTEX
8
1
10
12.03
20
37.97
0
VERTEX
8
1
10
11.76
20
37.73
0
VERTEX
8
1
10
11.50
20
37.49
0
VERTEX
8
1
10
11.24
20
37.24
0
VERTEX
8
1
10
10.98
20
36.98
0
VERTEX
8
1
10
10.72
20
36.71
0
VERTEX
8
1
10
10.47
20
36.44
0
VERTEX
8
1
10
10.22
20
36.16
0
VERTEX
8
1
10
9.97
20
35.87
0
VERTEX
8
1
10
9.73
20
35.58
0
VERTEX
8
1
10
9.49
20
35.29
0
VERTEX
8
1
10
9.26
20
34.98
0
VERTEX
8
1
10
9.02
20
34.67
0
VERTEX
8
1
10
8.79
20
34.36
0
VERTEX
8
1
10
8.57
20
34.04
0
VERTEX
8
1
10
8.35
20
33.71
0
VERTEX
8
1
10
8.13
20
33.38
0
VERTEX
8
1
10
7.91
20
33.05
0
VERTEX
8
1
10
7.70
20
32.71
0
VERTEX
8
1
10
7.49
20
32.36
0
VERTEX
8
1
10
7.28
20
32.01
0
VERTEX
8
1
10
7.08
20
31.65
0
VERTEX
8
1
10
6.88
20
31.29
0
VERTEX
8
1
10
6.69
20
30.92
0
VERTEX
8
1
10
6.50
20
30.55
0
VERTEX
8
1
10
6.31
20
30.18
0
VERTEX
8
1
10
8.79
20
25.88
0
VERTEX
8
1
10
9.21
20
25.85
0
VERTEX
8
1
10
9.63
20
25.83
0
VERTEX
8
1
10
10.04
20
25.82
0
VERTEX
8
1
10
10.45
20
25.81
0
VERTEX
8
1
10
10.86
20
25.81
0
VERTEX
8
1
10
11.27
20
25.81
0
VERTEX
8
1
10
11.68
20
25.82
0
VERTEX
8
1
10
12.08
20
25.83
0
VERTEX
8
1
10
12.48
20
25.85
0
VERTEX
8
1
10
12.87
20
25.87
0
VERTEX
8
1
10
13.27
20
25.90
0
VERTEX
8
1
10
13.66
20
25.94
0
VERTEX
8
1
10
14.04
20
25.98
0
VERTEX
8
1
10
14.43
20
26.03
0
VERTEX
8
1
10
14.81
20
26.08
0
VERTEX
8
1
10
15.18
20
26.14
0
VERTEX
8
1
10
15.56
20
26.20
0
VERTEX
8
1
10
15.93
20
26.27
0
VERTEX
8
1
10
16.29
20
26.35
0
VERTEX
8
1
10
16.66
20
26.43
0
VERTEX
8
1
10
17.01
20
26.52
0
VERTEX
8
1
10
17.37
20
26.62
0
VERTEX
8
1
10
17.72
20
26.72
0
VERTEX
8
1
10
18.06
20
26.83
0
VERTEX
8
1
10
18.40
20
26.94
0
VERTEX
8
1
10
18.74
20
27.06
0
VERTEX
8
1
10
19.06
20
27.19
0
VERTEX
8
1
10
19.39
20
27.33
0
VERTEX
8
1
10
19.70
20
27.48
0
VERTEX
8
1
10
20.01
20
27.63
0
VERTEX
8
1
10
20.31
20
27.80
0
VERTEX
8
1
10
20.60
20
27.99
0
VERTEX
8
1
10
20.86
20
28.20
0
VERTEX
8
1
10
21.13
20
28.41
0
VERTEX
8
1
10
21.40
20
28.62
0
VERTEX
8
1
10
21.66
20
28.83
0
VERTEX
8
1
10
21.93
20
29.04
0
VERTEX
8
1
10
22.19
20
29.25
0
VERTEX
8
1
10
22.46
20
29.46
0
VERTEX
8
1
10
22.73
20
29.67
0
VERTEX
8
1
10
22.99
20
29.88
0
VERTEX
8
1
10
23.26
20
30.09
0
VERTEX
8
1
10
23.52
20
30.30
0
VERTEX
8
1
10
23.79
20
30.51
0
VERTEX
8
1
10
24.06
20
30.72
0
VERTEX
8
1
10
24.32
20
30.93
0
VERTEX
8
1
10
24.59
20
31.14
0
VERTEX
8
1
10
24.85
20
31.35
0
VERTEX
8
1
10
25.12
20
31.56
0
VERTEX
8
1
10
25.39
20
31.77
0
VERTEX
8
1
10
31.77
20
25.39
0
VERTEX
8
1
10
31.56
20
25.12
0
VERTEX
8
1
10
31.35
20
24.85
0
VERTEX
8
1
10
31.14
20
24.59
0
VERTEX
8
1
10
30.93
20
24.32
0
VERTEX
8
1
10
30.72
20
24.06
0
VERTEX
8
1
10
30.51
20
23.79
0
VERTEX
8
1
10
30.30
20
23.52
0
VERTEX
8
1
10
30.09
20
23.26
0
VERTEX
8
1
10
29.88
20
22.99
0
VERTEX
8
1
10
29.67
20
22.73
0
VERTEX
8
1
10
29.46
20
22.46
0
VERTEX
8
1
10
29.25
20
22.19
0
VERTEX
8
1
10
29.04
20
21.93
0
VERTEX
8
1
10
28.83
20
21.66
0
VERTEX
8
1
10
28.62
20
21.40
0
VERTEX
8
1
10
28.41
20
21.13
0
VERTEX
8
1
10
28.20
20
20.86
0
VERTEX
8
1
10
27.99
20
20.60
0
VERTEX
8
1
10
27.80
20
20.31
0
VERTEX
8
1
10
27.63
20
20.01
0
VERTEX
8
1
10
27.48
20
19.70
0
VERTEX
8
1
10
27.33
20
19.39
0
VERTEX
8
1
10
27.19
20
19.06
0
VERTEX
8
1
10
27.06
20
18.74
0
VERTEX
8
1
10
26.94
20
18.40
0
VERTEX
8
1
10
26.83
20
18.06
0
VERTEX
8
1
10
26.72
20
17.72
0
VERTEX
8
1
10
26.62
20
17.37
0
VERTEX
8
1
10
26.52
20
17.01
0
VERTEX
8
1
10
26.43
20
16.66
0
VERTEX
8
1
10
26.35
20
16.29
0
VERTEX
8
1
10
26.27
20
15.93
0
VERTEX
8
1
10
26.20
20
15.56
0
VERTEX
8
1
10
26.14
20
15.18
0
VERTEX
8
1
10
26.08
20
14.81
0
VERTEX
8
1
10
26.03
20
14.43
0
VERTEX
8
1
10
25.98
20
14.04
0
VERTEX
8
1
10
25.94
20
13.66
0
VERTEX
8
1
10
25.90
20
13.27
0
VERTEX
8
1
10
25.87
20
12.87
0
VERTEX
8
1
10
25.85
20
12.48
0
VERTEX
8
1
10
25.83
20
12.08
0
VERTEX
8
1
10
25.82
20
11.68
0
VERTEX
8
1
10
25.81
20
11.27
0
VERTEX
8
1
10
25.81
20
10.86
0
VERTEX
8
1
10
25.81
20
10.45
0
VERTEX
8
1
10
25.82
20
10.04
0
VERTEX
8
1
10
25.83
20
9.63
0
VERTEX
8
1
10
25.85
20
9.21
0
VERTEX
8
1
10
25.88
20
8.79
0
VERTEX
8
1
10
30.18
20
6.31
0
VERTEX
8
1
10
30.55
20
6.50
0
VERTEX
8
1
10
30.92
20
6.69
0
VERTEX
8
1
10
31.29
20
6.88
0
VERTEX
8
1
10
31.65
20
7.08
0
VERTEX
8
1
10
32.01
20
7.28
0
VERTEX
8
1
10
32.36
20
7.49
0
VERTEX
8
1
10
32.71
20
7.70
0
VERTEX
8
1
10
33.05
20
7.91
0
VERTEX
8
1
10
33.38
20
8.13
0
VERTEX
8
1
10
33.71
20
8.35
0
VERTEX
8
1
10
34.04
20
8.57
0
VERTEX
8
1
10
34.36
20
8.79
0
VERTEX
8
1
10
34.67
20
9.02
0
VERTEX
8
1
10
34.98
20
9.26
0
VERTEX
8
1
10
35.29
20
9.49
0
VERTEX
8
1
10
35.58
20
9.73
0
VERTEX
8
1
10
35.87
20
9.97
0
VERTEX
8
1
10
36.16
20
10.22
0
VERTEX
8
1
10
36.44
20
10.47
0
VERTEX
8
1
10
36.71
20
10.72
0
VERTEX
8
1
10
36.98
20
10.98
0
VERTEX
8
1
10
37.24
20
11.24
0
VERTEX
8
1
10
37.49
20
11.50
0
VERTEX
8
1
10
37.73
20
11.76
0
VERTEX
8
1
10
37.97
20
12.03
0
VERTEX
8
1
10
38.20
20
12.31
0
VERTEX
8
1
10
38.42
20
12.58
0
VERTEX
8
1
10
38.63
20
12.86
0
VERTEX
8
1
10
38.83
20
13.15
0
VERTEX
8
1
10
39.02
20
13.44
0
VERTEX
8
1
10
39.19
20
13.73
0
VERTEX
8
1
10
39.35
20
14.04
0
VERTEX
8
1
10
39.47
20
14.35
0
VERTEX
8
1
10
39.60
20
14.67
0
VERTEX
8
1
10
39.72
20
14.98
0
VERTEX
8
1
10
39.85
20
15.30
0
VERTEX
8
1
10
39.97
20
15.61
0
VERTEX
8
1
10
40.10
20
15.93
0
VERTEX
8
1
10
40.22
20
16.25
0
VERTEX
8
1
10
40.35
20
16.56
0
VERTEX
8
1
10
40.47
20
16.88
0
VERTEX
8
1
10
40.60
20
17.19
0
VERTEX
8
1
10
40.72
20
17.51
0
VERTEX
8
1
10
40.85
20
17.82
0
VERTEX
8
1
10
40.97
20
18.14
0
VERTEX
8
1
10
41.10
20
18.45
0
VERTEX
8
1
10
41.22
20
18.77
0
VERTEX
8
1
10
41.35
20
19.08
0
VERTEX
8
1
10
41.47
20
19.40
0
VERTEX
8
1
10
41.60
20
19.71
0
VERTEX
8
1
10
50.33
20
17.37
0
VERTEX
8
1
10
50.28
20
17.04
0
VERTEX
8
1
10
50.23
20
16.70
0
VERTEX
8
1
10
50.18
20
16.37
0
VERTEX
8
1
10
50.13
20
16.03
0
VERTEX
8
1
10
50.08
20
15.70
0
VERTEX
8
1
10
50.03
20
15.36
0
VERTEX
8
1
10
49.98
20
15.03
0
VERTEX
8
1
10
49.93
20
14.69
0
VERTEX
8
1
10
49.88
20
14.35
0
VERTEX
8
1
10
49.84
20
14.02
0
VERTEX
8
1
10
49.79
20
13.68
0
VERTEX
8
1
10
49.74
20
13.35
0
VERTEX
8
1
10
49.69
20
13.01
0
VERTEX
8
1
10
49.64
20
12.68
0
VERTEX
8
1
10
49.59
20
12.34
0
VERTEX
8
1
10
49.54
20
12.00
0
VERTEX
8
1
10
49.49
20
11.67
0
VERTEX
8
1
10
49.44
20
11.33
0
VERTEX
8
1
10
49.42
20
10.99
0
VERTEX
8
1
10
49.43
20
10.65
0
VERTEX
8
1
10
49.45
20
10.30
0
VERTEX
8
1
10
49.48
20
9.96
0
VERTEX
8
1
10
49.52
20
9.61
0
VERTEX
8
1
10
49.57
20
9.26
0
VERTEX
8
1
10
49.63
20
8.91
0
VERTEX
8
1
10
49.70
20
8.56
0
VERTEX
8
1
10
49.78
20
8.20
0
VERTEX
8
1
10
49.87
20
7.85
0
VERTEX
8
1
10
49.96
20
7.50
0
VERTEX
8
1
10
50.07
20
7.14
0
VERTEX
8
1
10
50.18
20
6.79
0
VERTEX
8
1
10
50.29
20
6.43
0
VERTEX
8
1
10
50.42
20
6.08
0
VERTEX
8
1
10
50.55
20
5.72
0
VERTEX
8
1
10
50.69
20
5.37
0
VERTEX
8
1
10
50.83
20
5.01
0
VERTEX
8
1
10
50.98
20
4.65
0
VERTEX
8
1
10
51.14
20
4.30
0
VERTEX
8
1
10
51.30
20
3.94
0
VERTEX
8
1
10
51.47
20
3.59
0
VERTEX
8
1
10
51.65
20
3.23
0
VERTEX
8
1
10
51.83
20
2.88
0
VERTEX
8
1
10
52.02
20
2.52
0
VERTEX
8
1
10
52.22
20
2.17
0
VERTEX
8
1
10
52.42
20
1.81
0
VERTEX
8
1
10
52.63
20
1.46
0
VERTEX
8
1
10
52.84
20
1.11
0
VERTEX
8
1
10
53.06
20
0.76
0
VERTEX
8
1
10
53.29
20
0.41
0
VERTEX
8
1
10
53.52
20
0.06
0
VERTEX
8
1
10
58.48
20
0.06
0
VERTEX
8
1
10
58.71
20
0.41
0
VERTEX
8
1
10
58.94
20
0.76
0
VERTEX
8
1
10
59.16
20
1.11
0
VERTEX
8
1
10
59.37
20
1.46
0
VERTEX
8
1
10
59.58
20
1.81
0
VERTEX
8
1
10
59.78
20
2.17
0
VERTEX
8
1
10
59.98
20
2.52
0
VERTEX
8
1
10
60.17
20
2.88
0
VERTEX
8
1
10
60.35
20
3.23
0
VERTEX
8
1
10
60.53
20
3.59
0
VERTEX
8
1
10
60.70
20
3.94
0
VERTEX
8
1
10
60.86
20
4.30
0
VERTEX
8
1
10
61.02
20
4.65
0
VERTEX
8
1
10
61.17
20
5.01
0
VERTEX
8
1
10
61.31
20
5.37
0
VERTEX
8
1
10
61.45
20
5.72
0
VERTEX
8
1
10
61.58
20
6.08
0
VERTEX
8
1
10
61.71
20
6.43
0
VERTEX
8
1
10
61.82
20
6.79
0
VERTEX
8
1
10
61.93
20
7.14
0
VERTEX
8
1
10
62.04
20
7.50
0
VERTEX
8
1
10
62.13
20
7.85
0
VERTEX
8
1
10
62.22
20
8.20
0
VERTEX
8
1
10
62.30
20
8.56
0
VERTEX
8
1
10
62.37
20
8.91
0
VERTEX
8
1
10
62.43
20
9.26
0
VERTEX
8
1
10
62.48
20
9.61
0
VERTEX
8
1
10
62.52
20
9.96
0
VERTEX
8
1
10
62.55
20
10.30
0
VERTEX
8
1
10
62.57
20
10.65
0
VERTEX
8
1
10
62.58
20
10.99
0
VERTEX
8
1
10
62.56
20
11.33
0
VERTEX
8
1
10
62.51
20
11.67
0
VERTEX
8
1
10
62.46
20
12.00
0
VERTEX
8
1
10
62.41
20
12.34
0
VERTEX
8
1
10
62.36
20
12.68
0
VERTEX
8
1
10
62.31
20
13.01
0
VERTEX
8
1
10
62.26
20
13.35
0
VERTEX
8
1
10
62.21
20
13.68
0
VERTEX
8
1
10
62.16
20
14.02
0
VERTEX
8
1
10
62.12
20
14.35
0
VERTEX
8
1
10
62.07
20
14.69
0
VERTEX
8
1
10
62.02
20
15.03
0
VERTEX
8
1
10
61.97
20
15.36
0
VERTEX
8
1
10
61.92
20
15.70
0
VERTEX
8
1
10
61.87
20
16.03
0
VERTEX
8
1
10
61.82
20
16.37
0
VERTEX
8
1
10
61.77
20
16.70
0
VERTEX
8
1
10
61.72
20
17.04
0
VERTEX
8
1
10
61.67
20
17.37
0
VERTEX
8
1
10
70.40
20
19.71
0
VERTEX
8
1
10
70.53
20
19.40
0
VERTEX
8
1
10
70.65
20
19.08
0
VERTEX
8
1
10
70.78
20
18.77
0
VERTEX
8
1
10
70.90
20
18.45
0
VERTEX
8
1
10
71.03
20
18.14
0
VERTEX
8
1
10
71.15
20
17.82
0
VERTEX
8
1
10
71.28
20
17.51
0
VERTEX
8
1
10
71.40
20
17.19
0
VERTEX
8
1
10
71.53
20
16.88
0
VERTEX
8
1
10
71.65
20
16.56
0
VERTEX
8
1
10
71.78
20
16.25
0
VERTEX
8
1
10
71.90
20
15.93
0
VERTEX
8
1
10
72.03
20
15.61
0
VERTEX
8
1
10
72.15
20
15.30
0
VERTEX
8
1
10
72.28
20
14.98
0
VERTEX
8
1
10
72.40
20
14.67
0
VERTEX
8
1
10
72.53
20
14.35
0
VERTEX
8
1
10
72.65
20
14.04
0
VERTEX
8
1
10
72.81
20
13.73
0
VERTEX
8
1
10
72.98
20
13.44
0
VERTEX
8
1
10
73.17
20
13.15
0
VERTEX
8
1
10
73.37
20
12.86
0
VERTEX
8
1
10
73.58
20
12.58
0
VERTEX
8
1
10
73.80
20
12.31
0
VERTEX
8
1
10
74.03
20
12.03
0
VERTEX
8
1
10
74.27
20
11.76
0
VERTEX
8
1
10
74.51
20
11.50
0
VERTEX
8
1
10
74.76
20
11.24
0
VERTEX
8
1
10
75.02
20
10.98
0
VERTEX
8
1
10
75.29
20
10.72
0
VERTEX
8
1
10
75.56
20
10.47
0
VERTEX
8
1
10
75.84
20
10.22
0
VERTEX
8
1
10
76.13
20
9.97
0
VERTEX
8
1
10
76.42
20
9.73
0
VERTEX
8
1
10
76.71
20
9.49
0
VERTEX
8
1
10
77.02
20
9.26
0
VERTEX
8
1
10
77.33
20
9.02
0
VERTEX
8
1
10
77.64
20
8.79
0
VERTEX
8
1
10
77.96
20
8.57
0
VERTEX
8
1
10
78.29
20
8.35
0
VERTEX
8
1
10
78.62
20
8.13
0
VERTEX
8
1
10
78.95
20
7.91
0
VERTEX
8
1
10
79.29
20
7.70
0
VERTEX
8
1
10
79.64
20
7.49
0
VERTEX
8
1
10
79.99
20
7.28
0
VERTEX
8
1
10
80.35
20
7.08
0
VERTEX
8
1
10
80.71
20
6.88
0
VERTEX
8
1
10
81.08
20
6.69
0
VERTEX
8
1
10
81.45
20
6.50
0
VERTEX
8
1
10
81.82
20
6.31
0
VERTEX
8
1
10
86.12
20
8.79
0
VERTEX
8
1
10
86.15
20
9.21
0
VERTEX
8
1
10
86.17
20
9.63
0
VERTEX
8
1
10
86.18
20
10.04
0
VERTEX
8
1
10
86.19
20
10.45
0
VERTEX
8
1
10
86.19
20
10.86
0
VERTEX
8
1
10
86.19
20
11.27
0
VERTEX
8
1
10
86.18
20
11.68
0
VERTEX
8
1
10
86.17
20
12.08
0
VERTEX
8
1
10
86.15
20
12.48
0
VERTEX
8
1
10
86.13
20
12.87
0
VERTEX
8
1
10
86.10
20
13.27
0
VERTEX
8
1
10
86.06
20
13.66
0
VERTEX
8
1
10
86.02
20
14.04
0
VERTEX
8
1
10
85.97
20
14.43
0
VERTEX
8
1
10
85.92
20
14.81
0
VERTEX
8
1
10
85.86
20
15.18
0
VERTEX
8
1
10
85.80
20
15.56
0
VERTEX
8
1
10
85.73
20
15.93
0
VERTEX
8
1
10
85.65
20
16.29
0
VERTEX
8
1
10
85.57
20
16.66
0
VERTEX
8
1
10
85.48
20
17.01
0
VERTEX
8
1
10
85.38
20
17.37
0
VERTEX
8
1
10
85.28
20
17.72
0
VERTEX
8
1
10
85.17
20
18.06
0
VERTEX
8
1
10
85.06
20
18.40
0
VERTEX
8
1
10
84.94
20
18.74
0
VERTEX
8
1
10
84.81
20
19.06
0
VERTEX
8
1
10
84.67
20
19.39
0
VERTEX
8
1
10
84.52
20
19.70
0
VERTEX
8
1
10
84.37
20
20.01
0
VERTEX
8
1
10
84.20
20
20.31
0
VERTEX
8
1
10
84.01
20
20.60
0
VERTEX
8
1
10
83.80
20
20.86
0
VERTEX
8
1
10
83.59
20
21.13
0
VERTEX
8
1
10
83.38
20
21.40
0
VERTEX
8
1
10
83.17
20
21.66
0
VERTEX
8
1
10
82.96
20
21.93
0
VERTEX
8
1
10
82.75
20
22.19
0
VERTEX
8
1
10
82.54
20
22.46
0
VERTEX
8
1
10
82.33
20
22.73
0
VERTEX
8
1
10
82.12
20
22.99
0
VERTEX
8
1
10
81.91
20
23.26
0
VERTEX
8
1
10
81.70
20
23.52
0
VERTEX
8
1
10
81.49
20
23.79
0
VERTEX
8
1
10
81.28
20
24.06
0
VERTEX
8
1
10
81.07
20
24.32
0
VERTEX
8
1
10
80.86
20
24.59
0
VERTEX
8
1
10
80.65
20
24.85
0
VERTEX
8
1
10
80.44
20
25.12
0
VERTEX
8
1
10
80.23
20
25.39
0
VERTEX
8
1
10
86.61
20
31.77
0
VERTEX
8
1
10
86.88
20
31.56
0
VERTEX
8
1
10
87.15
20
31.35
0
VERTEX
8
1
10
87.41
20
31.14
0
VERTEX
8
1
10
87.68
20
30.93
0
VERTEX
8
1
10
87.94
20
30.72
0
VERTEX
8
1
10
88.21
20
30.51
0
VERTEX
8
1
10
88.48
20
30.30
0
VERTEX
8
1
10
88.74
20
30.09
0
VERTEX
8
1
10
89.01
20
29.88
0
VERTEX
8
1
10
89.27
20
29.67
0
VERTEX
8
1
10
89.54
20
29.46
0
VERTEX
8
1
10
89.81
20
29.25
0
VERTEX
8
1
10
90.07
20
29.04
0
VERTEX
8
1
10
90.34
20
28.83
0
VERTEX
8
1
10
90.60
20
28.62
0
VERTEX
8
1
10
90.87
20
28.41
0
VERTEX
8
1
10
91.14
20
28.20
0
VERTEX
8
1
10
91.40
20
27.99
0
VERTEX
8
1
10
91.69
20
27.80
0
VERTEX
8
1
10
91.99
20
27.63
0
VERTEX
8
1
10
92.30
20
27.48
0
VERTEX
8
1
10
92.61
20
27.33
0
VERTEX
8
1
10
92.94
20
27.19
0
VERTEX
8
1
10
93.26
20
27.06
0
VERTEX
8
1
10
93.60
20
26.94
0
VERTEX
8
1
10
93.94
20
26.83
0
VERTEX
8
1
10
94.28
20
26.72
0
VERTEX
8
1
10
94.63
20
26.62
0
VERTEX
8
1
10
94.99
20
26.52
0
VERTEX
8
1
10
95.34
20
26.43
0
VERTEX
8
1
10
95.71
20
26.35
0
VERTEX
8
1
10
96.07
20
26.27
0
VERTEX
8
1
10
96.44
20
26.20
0
VERTEX
8
1
10
96.82
20
26.14
0
VERTEX
8
1
10
97.19
20
26.08
0
VERTEX
8
1
10
97.57
20
26.03
0
VERTEX
8
1
10
97.96
20
25.98
0
VERTEX
8
1
10
98.34
20
25.94
0
VERTEX
8
1
10
98.73
20
25.90
0
VERTEX
8
1
10
99.13
20
25.87
0
VERTEX
8
1
10
99.52
20
25.85
0
VERTEX
8
1
10
99.92
20
25.83
0
VERTEX
8
1
10
100.32
20
25.82
0
VERTEX
8
1
10
100.73
20
25.81
0
VERTEX
8
1
10
101.14
20
25.81
0
VERTEX
8
1
10
101.55
20
25.81
0
VERTEX
8
1
10
101.96
20
25.82
0
VERTEX
8
1
10
102.37
20
25.83
0
VERTEX
8
1
10
102.79
20
25.85
0
VERTEX
8
1
10
103.21
20
25.88
0
VERTEX
8
1
10
105.69
20
30.18
0
VERTEX
8
1
10
105.50
20
30.55
0
VERTEX
8
1
10
105.31
20
30.92
0
VERTEX
8
1
10
105.12
20
31.29
0
VERTEX
8
1
10
104.92
20
31.65
0
VERTEX
8
1
10
104.72
20
32.01
0
VERTEX
8
1
10
104.51
20
32.36
0
VERTEX
8
1
10
104.30
20
32.71
0
VERTEX
8
1
10
104.09
20
33.05
0
VERTEX
8
1
10
103.87
20
33.38
0
VERTEX
8
1
10
103.65
20
33.71
0
VERTEX
8
1
10
103.43
20
34.04
0
VERTEX
8
1
10
103.21
20
34.36
0
VERTEX
8
1
10
102.98
20
34.67
0
VERTEX
8
1
10
102.74
20
34.98
0
VERTEX
8
1
10
102.51
20
35.29
0
VERTEX
8
1
10
102.27
20
35.58
0
VERTEX
8
1
10
102.03
20
35.87
0
VERTEX
8
1
10
101.78
20
36.16
0
VERTEX
8
1
10
101.53
20
36.44
0
VERTEX
8
1
10
101.28
20
36.71
0
VERTEX
8
1
10
101.02
20
36.98
0
VERTEX
8
1
10
100.76
20
37.24
0
VERTEX
8
1
10
100.50
20
37.49
0
VERTEX
8
1
10
100.24
20
37.73
0
VERTEX
8
1
10
99.97
20
37.97
0
VERTEX
8
1
10
99.69
20
38.20
0
VERTEX
8
1
10
99.42
20
38.42
0
VERTEX
8
1
10
99.14
20
38.63
0
VERTEX
8
1
10
98.85
20
38.83
0
VERTEX
8
1
10
98.56
20
39.02
0
VERTEX
8
1
10
98.27
20
39.19
0
VERTEX
8
1
10
97.96
20
39.35
0
VERTEX
8
1
10
97.65
20
39.47
0
VERTEX
8
1
10
97.33
20
39.60
0
VERTEX
8
1
10
97.02
20
39.72
0
VERTEX
8
1
10
96.70
20
39.85
0
VERTEX
8
1
10
96.39
20
39.97
0
VERTEX
8
1
10
96.07
20
40.10
0
VERTEX
8
1
10
95.75
20
40.22
0
VERTEX
8
1
10
95.44
20
40.35
0
VERTEX
8
1
10
95.12
20
40.47
0
VERTEX
8
1
10
94.81
20
40.60
0
VERTEX
8
1
10
94.49
20
40.72
0
VERTEX
8
1
10
94.18
20
40.85
0
VERTEX
8
1
10
93.86
20
40.97
0
VERTEX
8
1
10
93.55
20
41.10
0
VERTEX
8
1
10
93.23
20
41.22
0
VERTEX
8
1
10
92.92
20
41.35
0
VERTEX
8
1
10
92.60
20
41.47
0
VERTEX
8
1
10
92.29
20
41.60
0
VERTEX
8
1
10
94.63
20
50.33
0
VERTEX
8
1
10
94.96
20
50.28
0
VERTEX
8
1
10
95.30
20
50.23
0
VERTEX
8
1
10
95.63
20
50.18
0
VERTEX
8
1
10
95.97
20
50.13
0
VERTEX
8
1
10
96.30
20
50.08
0
VERTEX
8
1
10
96.64
20
50.03
0
VERTEX
8
1
10
96.97
20
49.98
0
VERTEX
8
1
10
97.31
20
49.93
0
VERTEX
8
1
10
97.65
20
49.88
0
VERTEX
8
1
10
97.98
20
49.84
0
VERTEX
8
1
10
98.32
20
49.79
0
VERTEX
8
1
10
98.65
20
49.74
0
VERTEX
8
1
10
98.99
20
49.69
0
VERTEX
8
1
10
99.32
20
49.64
0
VERTEX
8
1
10
99.66
20
49.59
0
VERTEX
8
1
10
100.00
20
49.54
0
VERTEX
8
1
10
100.33
20
49.49
0
VERTEX
8
1
10
100.67
20
49.44
0
VERTEX
8
1
10
101.01
20
49.42
0
VERTEX
8
1
10
101.35
20
49.43
0
VERTEX
8
1
10
101.70
20
49.45
0
VERTEX
8
1
10
102.04
20
49.48
0
VERTEX
8
1
10
102.39
20
49.52
0
VERTEX
8
1
10
102.74
20
49.57
0
VERTEX
8
1
10
103.09
20
49.63
0
VERTEX
8
1
10
103.44
20
49.70
0
VERTEX
8
1
10
103.80
20
49.78
0
VERTEX
8
1
10
104.15
20
49.87
0
VERTEX
8
1
10
104.50
20
49.96
0
VERTEX
8
1
10
104.86
20
50.07
0
VERTEX
8
1
10
105.21
20
50.18
0
VERTEX
8
1
10
105.57
20
50.29
0
VERTEX
8
1
10
105.92
20
50.42
0
VERTEX
8
1
10
106.28
20
50.55
0
VERTEX
8
1
10
106.63
20
50.69
0
VERTEX
8
1
10
106.99
20
50.83
0
VERTEX
8
1
10
107.35
20
50.98
0
VERTEX
8
1
10
107.70
20
51.14
0
VERTEX
8
1
10
108.06
20
51.30
0
VERTEX
8
1
10
108.41
20
51.47
0
VERTEX
8
1
10
108.77
20
51.65
0
VERTEX
8
1
10
109.12
20
51.83
0
VERTEX
8
1
10
109.48
20
52.02
0
VERTEX
8
1
10
109.83
20
52.22
0
VERTEX
8
1
10
110.19
20
52.42
0
VERTEX
8
1
10
110.54
20
52.63
0
VERTEX
8
1
10
110.89
20
52.84
0
VERTEX
8
1
10
111.24
20
53.06
0
VERTEX
8
1
10
111.59
20
53.29
0
VERTEX
8
1
10
111.94
20
53.52
0
VERTEX
8
1
10
111.94
20
58.48
0
VERTEX
8
1
10
111.59
20
58.71
0
VERTEX
8
1
10
111.24
20
58.94
0
VERTEX
8
1
10
110.89
20
59.16
0
VERTEX
8
1
10
110.54
20
59.37
0
VERTEX
8
1
10
110.19
20
59.58
0
VERTEX
8
1
10
109.83
20
59.78
0
VERTEX
8
1
10
109.48
20
59.98
0
VERTEX
8
1
10
109.12
20
60.17
0
VERTEX
8
1
10
108.77
20
60.35
0
VERTEX
8
1
10
108.41
20
60.53
0
VERTEX
8
1
10
108.06
20
60.70
0
VERTEX
8
1
10
107.70
20
60.86
0
VERTEX
8
1
10
107.35
20
61.02
0
VERTEX
8
1
10
106.99
20
61.17
0
VERTEX
8
1
10
106.63
20
61.31
0
VERTEX
8
1
10
106.28
20
61.45
0
VERTEX
8
1
10
105.92
20
61.58
0
VERTEX
8
1
10
105.57
20
61.71
0
VERTEX
8
1
10
105.21
20
61.82
0
VERTEX
8
1
10
104.86
20
61.93
0
VERTEX
8
1
10
104.50
20
62.04
0
VERTEX
8
1
10
104.15
20
62.13
0
VERTEX
8
1
10
103.80
20
62.22
0
VERTEX
8
1
10
103.44
20
62.30
0
VERTEX
8
1
10
103.09
20
62.37
0
VERTEX
8
1
10
102.74
20
62.43
0
VERTEX
8
1
10
102.39
20
62.48
0
VERTEX
8
1
10
102.04
20
62.52
0
VERTEX
8
1
10
101.70
20
62.55
0
VERTEX
8
1
10
101.35
20
62.57
0
VERTEX
8
1
10
101.01
20
62.58
0
VERTEX
8
1
10
100.67
20
62.56
0
VERTEX
8
1
10
100.33
20
62.51
0
VERTEX
8
1
10
100.00
20
62.46
0
VERTEX
8
1
10
99.66
20
62.41
0
VERTEX
8
1
10
99.32
20
62.36
0
VERTEX
8
1
10
98.99
20
62.31
0
VERTEX
8
1
10
98.65
20
62.26
0
VERTEX
8
1
10
98.32
20
62.21
0
VERTEX
8
1
10
97.98
20
62.16
0
VERTEX
8
1
10
97.65
20
62.12
0
VERTEX
8
1
10
97.31
20
62.07
0
VERTEX
8
1
10
96.97
20
62.02
0
VERTEX
8
1
10
96.64
20
61.97
0
VERTEX
8
1
10
96.30
20
61.92
0
VERTEX
8
1
10
95.97
20
61.87
0
VERTEX
8
1
10
95.63
20
61.82
0
VERTEX
8
1
10
95.30
20
61.77
0
VERTEX
8
1
10
94.96
20
61.72
0
VERTEX
8
1
10
94.63
20
61.67
0
VERTEX
8
1
10
92.29
20
70.40
0
VERTEX
8
1
10
92.60
20
70.53
0
VERTEX
8
1
10
92.92
20
70.65
0
VERTEX
8
1
10
93.23
20
70.78
0
VERTEX
8
1
10
93.55
20
70.90
0
VERTEX
8
1
10
93.86
20
71.03
0
VERTEX
8
1
10
94.18
20
71.15
0
VERTEX
8
1
10
94.49
20
71.28
0
VERTEX
8
1
10
94.81
20
71.40
0
VERTEX
8
1
10
95.12
20
71.53
0
VERTEX
8
1
10
95.44
20
71.65
0
VERTEX
8
1
10
95.75
20
71.78
0
VERTEX
8
1
10
96.07
20
71.90
0
VERTEX
8
1
10
96.39
20
72.03
0
VERTEX
8
1
10
96.70
20
72.15
0
VERTEX
8
1
10
97.02
20
72.28
0
VERTEX
8
1
10
97.33
20
72.40
0
VERTEX
8
1
10
97.65
20
72.53
0
VERTEX
8
1
10
97.96
20
72.65
0
VERTEX
8
1
10
98.27
20
72.81
0
VERTEX
8
1
10
98.56
20
72.98
0
VERTEX
8
1
10
98.85
20
73.17
0
VERTEX
8
1
10
99.14
20
73.37
0
VERTEX
8
1
10
99.42
20
73.58
0
VERTEX
8
1
10
99.69
20
73.80
0
VERTEX
8
1
10
99.97
20
74.03
0
VERTEX
8
1
10
100.24
20
74.27
0
VERTEX
8
1
10
100.50
20
74.51
0
VERTEX
8
1
10
100.76
20
74.76
0
VERTEX
8
1
10
101.02
20
75.02
0
VERTEX
8
1
10
101.28
20
75.29
0
VERTEX
8
1
10
101.53
20
75.56
0
VERTEX
8
1
10
101.78
20
75.84
0
VERTEX
8
1
10
102.03
20
76.13
0
VERTEX
8
1
10
102.27
20
76.42
0
VERTEX
8
1
10
102.51
20
76.71
0
VERTEX
8
1
10
102.74
20
77.02
0
VERTEX
8
1
10
102.98
20
77.33
0
VERTEX
8
1
10
103.21
20
77.64
0
VERTEX
8
1
10
103.43
20
77.96
0
VERTEX
8
1
10
103.65
20
78.29
0
VERTEX
8
1
10
103.87
20
78.62
0
VERTEX
8
1
10
104.09
20
78.95
0
VERTEX
8
1
10
104.30
20
79.29
0
VERTEX
8
1
10
104.51
20
79.64
0
VERTEX
8
1
10
104.72
20
79.99
0
VERTEX
8
1
10
104.92
20
80.35
0
VERTEX
8
1
10
105.12
20
80.71
0
VERTEX
8
1
10
105.31
20
81.08
0
VERTEX
8
1
10
105.50
20
81.45
0
VERTEX
8
1
10
105.69
20
81.82
0
VERTEX
8
1
10
103.21
20
86.12
0
VERTEX
8
1
10
102.79
20
86.15
0
VERTEX
8
1
10
102.37
20
86.17
0
VERTEX
8
1
10
101.96
20
86.18
0
VERTEX
8
1
10
101.55
20
86.19
0
VERTEX
8
1
10
101.14
20
86.19
0
VERTEX
8
1
10
100.73
20
86.19
0
VERTEX
8
1
10
100.32
20
86.18
0
VERTEX
8
1
10
99.92
20
86.17
0
VERTEX
8
1
10
99.52
20
86.15
0
VERTEX
8
1
10
99.13
20
86.13
0
VERTEX
8
1
10
98.73
20
86.10
0
VERTEX
8
1
10
98.34
20
86.06
0
VERTEX
8
1
10
97.96
20
86.02
0
VERTEX
8
1
10
97.57
20
85.97
0
VERTEX
8
1
10
97.19
20
85.92
0
VERTEX
8
1
10
96.82
20
85.86
0
VERTEX
8
1
10
96.44
20
85.80
0
VERTEX
8
1
10
96.07
20
85.73
0
VERTEX
8
1
10
95.71
20
85.65
0
VERTEX
8
1
10
95.34
20
85.57
0
VERTEX
8
1
10
94.99
20
85.48
0
VERTEX
8
1
10
94.63
20
85.38
0
VERTEX
8
1
10
94.28
20
85.28
0
VERTEX
8
1
10
93.94
20
85.17
0
VERTEX
8
1
10
93.60
20
85.06
0
VERTEX
8
1
10
93.26
20
84.94
0
VERTEX
8
1
10
92.94
20
84.81
0
VERTEX
8
1
10
92.61
20
84.67
0
VERTEX
8
1
10
92.30
20
84.52
0
VERTEX
8
1
10
91.99
20
84.37
0
VERTEX
8
1
10
91.69
20
84.20
0
VERTEX
8
1
10
91.40
20
84.01
0
VERTEX
8
1
10
91.14
20
83.80
0
VERTEX
8
1
10
90.87
20
83.59
0
VERTEX
8
1
10
90.60
20
83.38
0
VERTEX
8
1
10
90.34
20
83.17
0
VERTEX
8
1
10
90.07
20
82.96
0
VERTEX
8
1
10
89.81
20
82.75
0
VERTEX
8
1
10
89.54
20
82.54
0
VERTEX
8
1
10
89.27
20
82.33
0
VERTEX
8
1
10
89.01
20
82.12
0
VERTEX
8
1
10
88.74
20
81.91
0
VERTEX
8
1
10
88.48
20
81.70
0
VERTEX
8
1
10
88.21
20
81.49
0
VERTEX
8
1
10
87.94
20
81.28
0
VERTEX
8
1
10
87.68
20
81.07
0
VERTEX
8
1
10
87.41
20
80.86
0
VERTEX
8
1
10
87.15
20
80.65
0
VERTEX
8
1
10
86.88
20
80.44
0
VERTEX
8
1
10
86.61
20
80.23
0
VERTEX
8
1
10
80.23
20
86.61
0
VERTEX
8
1
10
80.44
20
86.88
0
VERTEX
8
1
10
80.65
20
87.15
0
VERTEX
8
1
10
80.86
20
87.41
0
VERTEX
8
1
10
81.07
20
87.68
0
VERTEX
8
1
10
81.28
20
87.94
0
VERTEX
8
1
10
81.49
20
88.21
0
VERTEX
8
1
10
81.70
20
88.48
0
VERTEX
8
1
10
81.91
20
88.74
0
VERTEX
8
1
10
82.12
20
89.01
0
VERTEX
8
1
10
82.33
20
89.27
0
VERTEX
8
1
10
82.54
20
89.54
0
VERTEX
8
1
10
82.75
20
89.81
0
VERTEX
8
1
10
82.96
20
90.07
0
VERTEX
8
1
10
83.17
20
90.34
0
VERTEX
8
1
10
83.38
20
90.60
0
VERTEX
8
1
10
83.59
20
90.87
0
VERTEX
8
1
10
83.80
20
91.14
0
VERTEX
8
1
10
84.01
20
91.40
0
VERTEX
8
1
10
84.20
20
91.69
0
VERTEX
8
1
10
84.37
20
91.99
0
VERTEX
8
1
10
84.52
20
92.30
0
VERTEX
8
1
10
84.67
20
92.61
0
VERTEX
8
1
10
84.81
20
92.94
0
VERTEX
8
1
10
84.94
20
93.26
0
VERTEX
8
1
10
85.06
20
93.60
0
VERTEX
8
1
10
85.17
20
93.94
0
VERTEX
8
1
10
85.28
20
94.28
0
VERTEX
8
1
10
85.38
20
94.63
0
VERTEX
8
1
10
85.48
20
94.99
0
VERTEX
8
1
10
85.57
20
95.34
0
VERTEX
8
1
10
85.65
20
95.71
0
VERTEX
8
1
10
85.73
20
96.07
0
VERTEX
8
1
10
85.80
20
96.44
0
VERTEX
8
1
10
85.86
20
96.82
0
VERTEX
8
1
10
85.92
20
97.19
0
VERTEX
8
1
10
85.97
20
97.57
0
VERTEX
8
1
10
86.02
20
97.96
0
VERTEX
8
1
10
86.06
20
98.34
0
VERTEX
8
1
10
86.10
20
98.73
0
VERTEX
8
1
10
86.13
20
99.13
0
VERTEX
8
1
10
86.15
20
99.52
0
VERTEX
8
1
10
86.17
20
99.92
0
VERTEX
8
1
10
86.18
20
100.32
0
VERTEX
8
1
10
86.19
20
100.73
0
VERTEX
8
1
10
86.19
20
101.14
0
VERTEX
8
1
10
86.19
20
101.55
0
VERTEX
8
1
10
86.18
20
101.96
0
VERTEX
8
1
10
86.17
20
102.37
0
VERTEX
8
1
10
86.15
20
102.79
0
VERTEX
8
1
10
86.12
20
103.21
0
VERTEX
8
1
10
81.82
20
105.69
0
VERTEX
8
1
10
81.45
20
105.50
0
VERTEX
8
1
10
81.08
20
105.31
0
VERTEX
8
1
10
80.71
20
105.12
0
VERTEX
8
1
10
80.35
20
104.92
0
VERTEX
8
1
10
79.99
20
104.72
0
VERTEX
8
1
10
79.64
20
104.51
0
VERTEX
8
1
10
79.29
20
104.30
0
VERTEX
8
1
10
78.95
20
104.09
0
VERTEX
8
1
10
78.62
20
103.87
0
VERTEX
8
1
10
78.29
20
103.65
0
VERTEX
8
1
10
77.96
20
103.43
0
VERTEX
8
1
10
77.64
20
103.21
0
VERTEX
8
1
10
77.33
20
102.98
0
VERTEX
8
1
10
77.02
20
102.74
0
VERTEX
8
1
10
76.71
20
102.51
0
VERTEX
8
1
10
76.42
20
102.27
0
VERTEX
8
1
10
76.13
20
102.03
0
VERTEX
8
1
10
75.84
20
101.78
0
VERTEX
8
1
10
75.56
20
101.53
0
VERTEX
8
1
10
75.29
20
101.28
0
VERTEX
8
1
10
75.02
20
101.02
0
VERTEX
8
1
10
74.76
20
100.76
0
VERTEX
8
1
10
74.51
20
100.50
0
VERTEX
8
1
10
74.27
20
100.24
0
VERTEX
8
1
10
74.03
20
99.97
0
VERTEX
8
1
10
73.80
20
99.69
0
VERTEX
8
1
10
73.58
20
99.42
0
VERTEX
8
1
10
73.37
20
99.14
0
VERTEX
8
1
10
73.17
20
98.85
0
VERTEX
8
1
10
72.98
20
98.56
0
VERTEX
8
1
10
72.81
20
98.27
0
VERTEX
8
1
10
72.65
20
97.96
0
VERTEX
8
1
10
72.53
20
97.65
0
VERTEX
8
1
10
72.40
20
97.33
0
VERTEX
8
1
10
72.28
20
97.02
0
VERTEX
8
1
10
72.15
20
96.70
0
VERTEX
8
1
10
72.03
20
96.39
0
VERTEX
8
1
10
71.90
20
96.07
0
VERTEX
8
1
10
71.78
20
95.75
0
VERTEX
8
1
10
71.65
20
95.44
0
VERTEX
8
1
10
71.53
20
95.12
0
VERTEX
8
1
10
71.40
20
94.81
0
VERTEX
8
1
10
71.28
20
94.49
0
VERTEX
8
1
10
71.15
20
94.18
0
VERTEX
8
1
10
71.03
20
93.86
0
VERTEX
8
1
10
70.90
20
93.55
0
VERTEX
8
1
10
70.78
20
93.23
0
VERTEX
8
1
10
70.65
20
92.92
0
VERTEX
8
1
10
70.53
20
92.60
0
VERTEX
8
1
10
70.40
20
92.29
0
VERTEX
8
1
10
61.67
20
94.63
0
SEQEND
0
POLYLINE
8
1
66
1
70
0
0
VERTEX
8
1
10
56.00
20
60.00
0
VERTEX
8
1
10
56.35
20
59.98
0
VERTEX
8
1
10
56.69
20
59.94
0
VERTEX
8
1
10
57.04
20
59.86
0
VERTEX
8
1
10
57.37
20
59.76
0
VERTEX
8
1
10
57.69
20
59.63
0
VERTEX
8
1
10
58.00
20
59.46
0
VERTEX
8
1
10
58.29
20
59.28
0
VERTEX
8
1
10
58.57
20
59.06
0
VERTEX
8
1
10
58.83
20
58.83
0
VERTEX
8
1
10
59.06
20
58.57
0
VERTEX
8
1
10
59.28
20
58.29
0
VERTEX
8
1
10
59.46
20
58.00
0
VERTEX
8
1
10
59.63
20
57.69
0
VERTEX
8
1
10
59.76
20
57.37
0
VERTEX
8
1
10
59.86
20
57.04
0
VERTEX
8
1
10
59.94
20
56.69
0
VERTEX
8
1
10
59.98
20
56.35
0
VERTEX
8
1
10
60.00
20
56.00
0
VERTEX
8
1
10
59.98
20
55.65
0
VERTEX
8
1
10
59.94
20
55.31
0
VERTEX
8
1
10
59.86
20
54.96
0
VERTEX
8
1
10
59.76
20
54.63
0
VERTEX
8
1
10
59.63
20
54.31
0
VERTEX
8
1
10
59.46
20
54.00
0
VERTEX
8
1
10
59.28
20
53.71
0
VERTEX
8
1
10
59.06
20
53.43
0
VERTEX
8
1
10
58.83
20
53.17
0
VERTEX
8
1
10
58.57
20
52.94
0
VERTEX
8
1
10
58.29
20
52.72
0
VERTEX
8
1
10
58.00
20
52.54
0
VERTEX
8
1
10
57.69
20
52.37
0
VERTEX
8
1
10
57.37
20
52.24
0
VERTEX
8
1
10
57.04
20
52.14
0
VERTEX
8
1
10
56.69
20
52.06
0
VERTEX
8
1
10
56.35
20
52.02
0
VERTEX
8
1
10
56.00
20
52.00
0
VERTEX
8
1
10
55.65
20
52.02
0
VERTEX
8
1
10
55.31
20
52.06
0
VERTEX
8
1
10
54.96
20
52.14
0
VERTEX
8
1
10
54.63
20
52.24
0
VERTEX
8
1
10
54.31
20
52.37
0
VERTEX
8
1
10
54.00
20
52.54
0
VERTEX
8
1
10
53.71
20
52.72
0
VERTEX
8
1
10
53.43
20
52.94
0
VERTEX
8
1
10
53.17
20
53.17
0
VERTEX
8
1
10
52.94
20
53.43
0
VERTEX
8
1
10
52.72
20
53.71
0
VERTEX
8
1
10
52.54
20
54.00
0
VERTEX
8
1
10
52.37
20
54.31
0
VERTEX
8
1
10
52.24
20
54.63
0
VERTEX
8
1
10
52.14
20
54.96
0
VERTEX
8
1
10
52.06
20
55.31
0
VERTEX
8
1
10
52.02
20
55.65
0
VERTEX
8
1
10
52.00
20
56.00
0
VERTEX
8
1
10
52.02
20
56.35
0
VERTEX
8
1
10
52.06
20
56.69
0
VERTEX
8
1
10
52.14
20
57.04
0
VERTEX
8
1
10
52.24
20
57.37
0
VERTEX
8
1
10
52.37
20
57.69
0
VERTEX
8
1
10
52.54
20
58.00
0
VERTEX
8
1
10
52.72
20
58.29
0
VERTEX
8
1
10
52.94
20
58.57
0
VERTEX
8
1
10
53.17
20
58.83
0
VERTEX
8
1
10
53.43
20
59.06
0
VERTEX
8
1
10
53.71
20
59.28
0
VERTEX
8
1
10
54.00
20
59.46
0
VERTEX
8
1
10
54.31
20
59.63
0
VERTEX
8
1
10
54.63
20
59.76
0
VERTEX
8
1
10
54.96
20
59.86
0
VERTEX
8
1
10
55.31
20
59.94
0
VERTEX
8
1
10
55.65
20
59.98
0
VERTEX
8
1
10
56.00
20
60.00
0
VERTEX
8
1
10
56.00
20
60.00
0
SEQEND
0
POLYLINE
8
1
66
1
70
0
0
VERTEX
8
1
10
226.90
20
182.75
0
VERTEX
8
1
10
226.93
20
183.09
0
VERTEX
8
1
10
226.96
20
183.43
0
VERTEX
8
1
10
226.99
20
183.77
0
VERTEX
8
1
10
227.01
20
184.10
0
VERTEX
8
1
10
227.04
20
184.44
0
VERTEX
8
1
10
227.07
20
184.78
0
VERTEX
8
1
10
227.10
20
185.12
0
VERTEX
8
1
10
227.13
20
185.46
0
VERTEX
8
1
10
227.15
20
185.79
0
VERTEX
8
1
10
227.18
20
186.13
0
VERTEX
8
1
10
227.19
20
186.47
0
VERTEX
8
1
10
227.18
20
186.81
0
VERTEX
8
1
10
227.17
20
187.16
0
VERTEX
8
1
10
227.14
20
187.50
0
VERTEX
8
1
10
227.10
20
187.84
0
VERTEX
8
1
10
227.06
20
188.19
0
VERTEX
8
1
10
227.01
20
188.53
0
VERTEX
8
1
10
226.95
20
188.87
0
VERTEX
8
1
10
226.89
20
189.22
0
VERTEX
8
1
10
226.83
20
189.56
0
VERTEX
8
1
10
226.75
20
189.91
0
VERTEX
8
1
10
226.68
20
190.26
0
VERTEX
8
1
10
226.59
20
190.60
0
VERTEX
8
1
10
226.51
20
190.95
0
VERTEX
8
1
10
226.42
20
191.29
0
VERTEX
8
1
10
226.32
20
191.64
0
VERTEX
8
1
10
226.22
20
191.99
0
VERTEX
8
1
10
226.11
20
192.34
0
VERTEX
8
1
10
226.01
20
192.68
0
VERTEX
8
1
10
225.89
20
193.03
0
VERTEX
8
1
10
225.78
20
193.38
0
VERTEX
8
1
10
225.65
20
193.72
0
VERTEX
8
1
10
225.53
20
194.07
0
VERTEX
8
1
10
225.40
20
194.42
0
VERTEX
8
1
10
225.27
20
194.77
0
VERTEX
8
1
10
225.13
20
195.11
0
VERTEX
8
1
10
224.99
20
195.46
0
VERTEX
8
1
10
224.85
20
195.81
0
VERTEX
8
1
10
224.70
20
196.15
0
VERTEX
8
1
10
224.55
20
196.50
0
VERTEX
8
1
10
224.39
20
196.85
0
VERTEX
8
1
10
224.23
20
197.19
0
VERTEX
8
1
10
224.07
20
197.54
0
VERTEX
8
1
10
223.91
20
197.89
0
VERTEX
8
1
10
223.74
20
198.23
0
VERTEX
8
1
10
223.57
20
198.58
0
VERTEX
8
1
10
223.39
20
198.92
0
VERTEX
8
1
10
223.21
20
199.27
0
VERTEX
8
1
10
223.03
20
199.61
0
VERTEX
8
1
10
222.84
20
199.96
0
VERTEX
8
1
10
217.16
20
199.96
0
VERTEX
8
1
10
216.97
20
199.61
0
VERTEX
8
1
10
216.79
20
199.27
0
VERTEX
8
1
10
216.61
20
198.92
0
VERTEX
8
1
10
216.43
20
198.58
0
VERTEX
8
1
10
216.26
20
198.23
0
VERTEX
8
1
10
216.09
20
197.89
0
VERTEX
8
1
10
215.93
20
197.54
0
VERTEX
8
1
10
215.77
20
197.19
0
VERTEX
8
1
10
215.61
20
196.85
0
VERTEX
8
1
10
215.45
20
196.50
0
VERTEX
8
1
10
215.30
20
196.15
0
VERTEX
8
1
10
215.15
20
195.81
0
VERTEX
8
1
10
215.01
20
195.46
0
VERTEX
8
1
10
214.87
20
195.11
0
VERTEX
8
1
10
214.73
20
194.77
0
VERTEX
8
1
10
214.60
20
194.42
0
VERTEX
8
1
10
214.47
20
194.07
0
VERTEX
8
1
10
214.35
20
193.72
0
VERTEX
8
1
10
214.22
20
193.38
0
VERTEX
8
1
10
214.11
20
193.03
0
VERTEX
8
1
10
213.99
20
192.68
0
VERTEX
8
1
10
213.89
20
192.34
0
VERTEX
8
1
10
213.78
20
191.99
0
VERTEX
8
1
10
213.68
20
191.64
0
VERTEX
8
1
10
213.58
20
191.29
0
VERTEX
8
1
10
213.49
20
190.95
0
VERTEX
8
1
10
213.41
20
190.60
0
VERTEX
8
1
10
213.32
20
190.26
0
VERTEX
8
1
10
213.25
20
189.91
0
VERTEX
8
1
10
213.17
20
189.56
0
VERTEX
8
1
10
213.11
20
189.22
0
VERTEX
8
1
10
213.05
20
188.87
0
VERTEX
8
1
10
212.99
20
188.53
0
VERTEX
8
1
10
212.94
20
188.19
0
VERTEX
8
1
10
212.90
20
187.84
0
VERTEX
8
1
10
212.86
20
187.50
0
VERTEX
8
1
10
212.83
20
187.16
0
VERTEX
8
1
10
212.82
20
186.81
0
VERTEX
8
1
10
212.81
20
186.47
0
VERTEX
8
1
10
212.82
20
186.13
0
VERTEX
8
1
10
212.85
20
185.79
0
VERTEX
8
1
10
212.87
20
185.46
0
VERTEX
8
1
10
212.90
20
185.12
0
VERTEX
8
1
10
212.93
20
184.78
0
VERTEX
8
1
10
212.96
20
184.44
0
VERTEX
8
1
10
212.99
20
184.10
0
VERTEX
8
1
10
213.01
20
183.77
0
VERTEX
8
1
10
213.04
20
183.43
0
VERTEX
8
1
10
213.07
20
183.09
0
VERTEX
8
1
10
213.10
20
182.75
0
VERTEX
8
1
10
204.32
20
181.55
0
VERTEX
8
1
10
204.25
20
181.88
0
VERTEX
8
1
10
204.19
20
182.21
0
VERTEX
8
1
10
204.13
20
182.55
0
VERTEX
8
1
10
204.06
20
182.88
0
VERTEX
8
1
10
204.00
20
183.21
0
VERTEX
8
1
10
203.93
20
183.54
0
VERTEX
8
1
10
203.87
20
183.88
0
VERTEX
8
1
10
203.81
20
184.21
0
VERTEX
8
1
10
203.74
20
184.54
0
VERTEX
8
1
10
203.68
20
184.88
0
VERTEX
8
1
10
203.60
20
185.21
0
VERTEX
8
1
10
203.50
20
185.53
0
VERTEX
8
1
10
203.39
20
185.86
0
VERTEX
8
1
10
203.27
20
186.18
0
VERTEX
8
1
10
203.14
20
186.50
0
VERTEX
8
1
10
203.01
20
186.82
0
VERTEX
8
1
10
202.86
20
187.14
0
VERTEX
8
1
10
202.72
20
187.45
0
VERTEX
8
1
10
202.57
20
187.77
0
VERTEX
8
1
10
202.41
20
188.08
0
VERTEX
8
1
10
202.25
20
188.40
0
VERTEX
8
1
10
202.08
20
188.71
0
VERTEX
8
1
10
201.91
20
189.02
0
VERTEX
8
1
10
201.73
20
189.33
0
VERTEX
8
1
10
201.55
20
189.64
0
VERTEX
8
1
10
201.36
20
189.95
0
VERTEX
8
1
10
201.17
20
190.26
0
VERTEX
8
1
10
200.98
20
190.56
0
VERTEX
8
1
10
200.78
20
190.87
0
VERTEX
8
1
10
200.57
20
191.17
0
VERTEX
8
1
10
200.37
20
191.47
0
VERTEX
8
1
10
200.16
20
191.77
0
VERTEX
8
1
10
199.94
20
192.07
0
VERTEX
8
1
10
199.73
20
192.37
0
VERTEX
8
1
10
199.50
20
192.67
0
VERTEX
8
1
10
199.28
20
192.97
0
VERTEX
8
1
10
199.05
20
193.27
0
VERTEX
8
1
10
198.82
20
193.56
0
VERTEX
8
1
10
198.58
20
193.86
0
VERTEX
8
1
10
198.34
20
194.15
0
VERTEX
8
1
10
198.10
20
194.44
0
VERTEX
8
1
10
197.86
20
194.73
0
VERTEX
8
1
10
197.61
20
195.02
0
VERTEX
8
1
10
197.35
20
195.31
0
VERTEX
8
1
10
197.10
20
195.60
0
VERTEX
8
1
10
196.84
20
195.89
0
VERTEX
8
1
10
196.58
20
196.17
0
VERTEX
8
1
10
196.31
20
196.45
0
VERTEX
8
1
10
196.04
20
196.74
0
VERTEX
8
1
10
195.77
20
197.02
0
VERTEX
8
1
10
190.29
20
195.49
0
VERTEX
8
1
10
190.21
20
195.10
0
VERTEX
8
1
10
190.12
20
194.72
0
VERTEX
8
1
10
190.05
20
194.34
0
VERTEX
8
1
10
189.97
20
193.96
0
VERTEX
8
1
10
189.90
20
193.58
0
VERTEX
8
1
10
189.83
20
193.20
0
VERTEX
8
1
10
189.76
20
192.82
0
VERTEX
8
1
10
189.70
20
192.45
0
VERTEX
8
1
10
189.64
20
192.07
0
VERTEX
8
1
10
189.58
20
191.70
0
VERTEX
8
1
10
189.53
20
191.32
0
VERTEX
8
1
10
189.48
20
190.95
0
VERTEX
8
1
10
189.44
20
190.57
0
VERTEX
8
1
10
189.40
20
190.20
0
VERTEX
8
1
10
189.36
20
189.83
0
VERTEX
8
1
10
189.33
20
189.46
0
VERTEX
8
1
10
189.30
20
189.09
0
VERTEX
8
1
10
189.27
20
188.72
0
VERTEX
8
1
10
189.25
20
188.36
0
VERTEX
8
1
10
189.23
20
187.99
0
VERTEX
8
1
10
189.21
20
187.63
0
VERTEX
8
1
10
189.20
20
187.26
0
VERTEX
8
1
10
189.19
20
186.90
0
VERTEX
8
1
10
189.19
20
186.54
0
VERTEX
8
1
10
189.19
20
186.18
0
VERTEX
8
1
10
189.20
20
185.82
0
VERTEX
8
1
10
189.21
20
185.46
0
VERTEX
8
1
10
189.22
20
185.11
0
VERTEX
8
1
10
189.24
20
184.75
0
VERTEX
8
1
10
189.26
20
184.40
0
VERTEX
8
1
10
189.29
20
184.05
0
VERTEX
8
1
10
189.33
20
183.70
0
VERTEX
8
1
10
189.37
20
183.36
0
VERTEX
8
1
10
189.41
20
183.01
0
VERTEX
8
1
10
189.46
20
182.67
0
VERTEX
8
1
10
189.52
20
182.33
0
VERTEX
8
1
10
189.59
20
181.99
0
VERTEX
8
1
10
189.66
20
181.66
0
VERTEX
8
1
10
189.74
20
181.33
0
VERTEX
8
1
10
189.85
20
181.00
0
VERTEX
8
1
10
189.96
20
180.68
0
VERTEX
8
1
10
190.08
20
180.37
0
VERTEX
8
1
10
190.20
20
180.05
0
VERTEX
8
1
10
190.32
20
179.73
0
VERTEX
8
1
10
190.44
20
179.41
0
VERTEX
8
1
10
190.56
20
179.09
0
VERTEX
8
1
10
190.67
20
178.78
0
VERTEX
8
1
10
190.79
20
178.46
0
VERTEX
8
1
10
190.91
20
178.14
0
VERTEX
8
1
10
191.03
20
177.82
0
VERTEX
8
1
10
182.90
20
174.29
0
VERTEX
8
1
10
182.75
20
174.59
0
VERTEX
8
1
10
182.60
20
174.90
0
VERTEX
8
1
10
182.44
20
175.20
0
VERTEX
8
1
10
182.29
20
175.51
0
VERTEX
8
1
10
182.14
20
175.81
0
VERTEX
8
1
10
181.99
20
176.11
0
VERTEX
8
1
10
181.84
20
176.42
0
VERTEX
8
1
10
181.69
20
176.72
0
VERTEX
8
1
10
181.54
20
177.02
0
VERTEX
8
1
10
181.38
20
177.33
0
VERTEX
8
1
10
181.22
20
177.62
0
VERTEX
8
1
10
181.03
20
177.91
0
VERTEX
8
1
10
180.84
20
178.19
0
VERTEX
8
1
10
180.64
20
178.47
0
VERTEX
8
1
10
180.43
20
178.74
0
VERTEX
8
1
10
180.21
20
179.01
0
VERTEX
8
1
10
179.99
20
179.28
0
VERTEX
8
1
10
179.76
20
179.55
0
VERTEX
8
1
10
179.53
20
179.81
0
VERTEX
8
1
10
179.30
20
180.07
0
VERTEX
8
1
10
179.05
20
180.33
0
VERTEX
8
1
10
178.81
20
180.59
0
VERTEX
8
1
10
178.56
20
180.84
0
VERTEX
8
1
10
178.30
20
181.09
0
VERTEX
8
1
10
178.05
20
181.34
0
VERTEX
8
1
10
177.78
20
181.58
0
VERTEX
8
1
10
177.52
20
181.83
0
VERTEX
8
1
10
177.25
20
182.07
0
VERTEX
8
1
10
176.97
20
182.31
0
VERTEX
8
1
10
176.70
20
182.55
0
VERTEX
8
1
10
176.42
20
182.78
0
VERTEX
8
1
10
176.13
20
183.02
0
VERTEX
8
1
10
175.85
20
183.25
0
VERTEX
8
1
10
175.56
20
183.48
0
VERTEX
8
1
10
175.26
20
183.71
0
VERTEX
8
1
10
174.97
20
183.93
0
VERTEX
8
1
10
174.66
20
184.16
0
VERTEX
8
1
10
174.36
20
184.38
0
VERTEX
8
1
10
174.06
20
184.60
0
VERTEX
8
1
10
173.75
20
184.82
0
VERTEX
8
1
10
173.43
20
185.03
0
VERTEX
8
1
10
173.12
20
185.24
0
VERTEX
8
1
10
172.80
20
185.46
0
VERTEX
8
1
10
172.48
20
185.67
0
VERTEX
8
1
10
172.15
20
185.87
0
VERTEX
8
1
10
171.83
20
186.08
0
VERTEX
8
1
10
171.50
20
186.28
0
VERTEX
8
1
10
171.17
20
186.49
0
VERTEX
8
1
10
170.83
20
186.69
0
VERTEX
8
1
10
170.49
20
186.88
0
VERTEX
8
1
10
165.63
20
183.93
0
VERTEX
8
1
10
165.65
20
183.54
0
VERTEX
8
1
10
165.68
20
183.15
0
VERTEX
8
1
10
165.70
20
182.76
0
VERTEX
8
1
10
165.73
20
182.37
0
VERTEX
8
1
10
165.77
20
181.99
0
VERTEX
8
1
10
165.80
20
181.61
0
VERTEX
8
1
10
165.84
20
181.22
0
VERTEX
8
1
10
165.88
20
180.84
0
VERTEX
8
1
10
165.93
20
180.47
0
VERTEX
8
1
10
165.97
20
180.09
0
VERTEX
8
1
10
166.02
20
179.71
0
VERTEX
8
1
10
166.08
20
179.34
0
VERTEX
8
1
10
166.14
20
178.97
0
VERTEX
8
1
10
166.20
20
178.60
0
VERTEX
8
1
10
166.26
20
178.23
0
VERTEX
8
1
10
166.33
20
177.87
0
VERTEX
8
1
10
166.40
20
177.50
0
VERTEX
8
1
10
166.47
20
177.14
0
VERTEX
8
1
10
166.55
20
176.78
0
VERTEX
8
1
10
166.63
20
176.42
0
VERTEX
8
1
10
166.71
20
176.07
0
VERTEX
8
1
10
166.80
20
175.72
0
VERTEX
8
1
10
166.89
20
175.37
0
VERTEX
8
1
10
166.99
20
175.02
0
VERTEX
8
1
10
167.08
20
174.67
0
VERTEX
8
1
10
167.19
20
174.33
0
VERTEX
8
1
10
167.29
20
173.99
0
VERTEX
8
1
10
167.40
20
173.65
0
VERTEX
8
1
10
167.51
20
173.31
0
VERTEX
8
1
10
167.63
20
172.98
0
VERTEX
8
1
10
167.75
20
172.65
0
VERTEX
8
1
10
167.88
20
172.32
0
VERTEX
8
1
10
168.01
20
172.00
0
VERTEX
8
1
10
168.15
20
171.68
0
VERTEX
8
1
10
168.29
20
171.36
0
VERTEX
8
1
10
168.44
20
171.05
0
VERTEX
8
1
10
168.59
20
170.74
0
VERTEX
8
1
10
168.75
20
170.44
0
VERTEX
8
1
10
168.92
20
170.15
0
VERTEX
8
1
10
169.11
20
169.86
0
VERTEX
8
1
10
169.31
20
169.59
0
VERTEX
8
1
10
169.51
20
169.31
0
VERTEX
8
1
10
169.71
20
169.04
0
VERTEX
8
1
10
169.91
20
168.76
0
VERTEX
8
1
10
170.11
20
168.49
0
VERTEX
8
1
10
170.31
20
168.22
0
VERTEX
8
1
10
170.51
20
167.94
0
VERTEX
8
1
10
170.71
20
167.67
0
VERTEX
8
1
10
170.91
20
167.39
0
VERTEX
8
1
10
171.11
20
167.12
0
VERTEX
8
1
10
164.23
20
161.53
0
VERTEX
8
1
10
164.00
20
161.78
0
VERTEX
8
1
10
163.78
20
162.03
0
VERTEX
8
1
10
163.55
20
162.28
0
VERTEX
8
1
10
163.32
20
162.53
0
VERTEX
8
1
10
163.09
20
162.78
0
VERTEX
8
1
10
162.86
20
163.03
0
VERTEX
8
1
10
162.64
20
163.29
0
VERTEX
8
1
10
162.41
20
163.54
0
VERTEX
8
1
10
162.18
20
163.79
0
VERTEX
8
1
10
161.95
20
164.04
0
VERTEX
8
1
10
161.71
20
164.28
0
VERTEX
8
1
10
161.46
20
164.51
0
VERTEX
8
1
10
161.19
20
164.73
0
VERTEX
8
1
10
160.93
20
164.94
0
VERTEX
8
1
10
160.65
20
165.15
0
VERTEX
8
1
10
160.37
20
165.35
0
VERTEX
8
1
10
160.08
20
165.55
0
VERTEX
8
1
10
159.79
20
165.74
0
VERTEX
8
1
10
159.50
20
165.93
0
VERTEX
8
1
10
159.20
20
166.12
0
VERTEX
8
1
10
158.90
20
166.30
0
VERTEX
8
1
10
158.59
20
166.48
0
VERTEX
8
1
10
158.29
20
166.66
0
VERTEX
8
1
10
157.97
20
166.83
0
VERTEX
8
1
10
157.66
20
167.00
0
VERTEX
8
1
10
157.34
20
167.17
0
VERTEX
8
1
10
157.02
20
167.33
0
VERTEX
8
1
10
156.69
20
167.49
0
VERTEX
8
1
10
156.36
20
167.65
0
VERTEX
8
1
10
156.03
20
167.80
0
VERTEX
8
1
10
155.70
20
167.96
0
VERTEX
8
1
10
155.36
20
168.10
0
VERTEX
8
1
10
155.02
20
168.25
0
VERTEX
8
1
10
154.68
20
168.39
0
VERTEX
8
1
10
154.34
20
168.53
0
VERTEX
8
1
10
153.99
20
168.67
0
VERTEX
8
1
10
153.64
20
168.80
0
VERTEX
8
1
10
153.29
20
168.94
0
VERTEX
8
1
10
152.93
20
169.06
0
VERTEX
8
1
10
152.58
20
169.19
0
VERTEX
8
1
10
152.22
20
169.31
0
VERTEX
8
1
10
151.86
20
169.44
0
VERTEX
8
1
10
151.49
20
169.55
0
VERTEX
8
1
10
151.13
20
169.67
0
VERTEX
8
1
10
150.76
20
169.78
0
VERTEX
8
1
10
150.39
20
169.89
0
VERTEX
8
1
10
150.02
20
170.00
0
VERTEX
8
1
10
149.64
20
170.10
0
VERTEX
8
1
10
149.27
20
170.21
0
VERTEX
8
1
10
148.89
20
170.31
0
VERTEX
8
1
10
145.01
20
166.15
0
VERTEX
8
1
10
145.13
20
165.78
0
VERTEX
8
1
10
145.26
20
165.41
0
VERTEX
8
1
10
145.39
20
165.04
0
VERTEX
8
1
10
145.52
20
164.68
0
VERTEX
8
1
10
145.66
20
164.32
0
VERTEX
8
1
10
145.79
20
163.96
0
VERTEX
8
1
10
145.93
20
163.60
0
VERTEX
8
1
10
146.08
20
163.25
0
VERTEX
8
1
10
146.22
20
162.89
0
VERTEX
8
1
10
146.37
20
162.54
0
VERTEX
8
1
10
146.52
20
162.20
0
VERTEX
8
1
10
146.67
20
161.85
0
VERTEX
8
1
10
146.83
20
161.51
0
VERTEX
8
1
10
146.99
20
161.17
0
VERTEX
8
1
10
147.15
20
160.83
0
VERTEX
8
1
10
147.31
20
160.50
0
VERTEX
8
1
10
147.48
20
160.17
0
VERTEX
8
1
10
147.64
20
159.84
0
VERTEX
8
1
10
147.81
20
159.51
0
VERTEX
8
1
10
147.99
20
159.19
0
VERTEX
8
1
10
148.17
20
158.87
0
VERTEX
8
1
10
148.34
20
158.56
0
VERTEX
8
1
10
148.53
20
158.24
0
VERTEX
8
1
10
148.71
20
157.93
0
VERTEX
8
1
10
148.90
20
157.62
0
VERTEX
8
1
10
149.09
20
157.32
0
VERTEX
8
1
10
149.28
20
157.02
0
VERTEX
8
1
10
149.48
20
156.73
0
VERTEX
8
1
10
149.68
20
156.43
0
VERTEX
8
1
10
149.88
20
156.14
0
VERTEX
8
1
10
150.09
20
155.86
0
VERTEX
8
1
10
150.30
20
155.58
0
VERTEX
8
1
10
150.52
20
155.30
0
VERTEX
8
1
10
150.73
20
155.03
0
VERTEX
8
1
10
150.95
20
154.77
0
VERTEX
8
1
10
151.18
20
154.51
0
VERTEX
8
1
10
151.41
20
154.25
0
VERTEX
8
1
10
151.65
20
154.00
0
VERTEX
8
1
10
151.89
20
153.77
0
VERTEX
8
1
10
152.15
20
153.54
0
VERTEX
8
1
10
152.41
20
153.33
0
VERTEX
8
1
10
152.68
20
153.12
0
VERTEX
8
1
10
152.95
20
152.91
0
VERTEX
8
1
10
153.21
20
152.70
0
VERTEX
8
1
10
153.48
20
152.49
0
VERTEX
8
1
10
153.75
20
152.28
0
VERTEX
8
1
10
154.01
20
152.07
0
VERTEX
8
1
10
154.28
20
151.86
0
VERTEX
8
1
10
154.54
20
151.65
0
VERTEX
8
1
10
154.81
20
151.44
0
VERTEX
8
1
10
149.70
20
144.20
0
VERTEX
8
1
10
149.41
20
144.38
0
VERTEX
8
1
10
149.13
20
144.56
0
VERTEX
8
1
10
148.84
20
144.74
0
VERTEX
8
1
10
148.55
20
144.92
0
VERTEX
8
1
10
148.26
20
145.10
0
VERTEX
8
1
10
147.98
20
145.28
0
VERTEX
8
1
10
147.69
20
145.46
0
VERTEX
8
1
10
147.40
20
145.64
0
VERTEX
8
1
10
147.12
20
145.82
0
VERTEX
8
1
10
146.83
20
146.00
0
VERTEX
8
1
10
146.53
20
146.17
0
VERTEX
8
1
10
146.23
20
146.32
0
VERTEX
8
1
10
145.91
20
146.46
0
VERTEX
8
1
10
145.60
20
146.59
0
VERTEX
8
1
10
145.27
20
146.72
0
VERTEX
8
1
10
144.95
20
146.84
0
VERTEX
8
1
10
144.62
20
146.95
0
VERTEX
8
1
10
144.29
20
147.06
0
VERTEX
8
1
10
143.95
20
147.17
0
VERTEX
8
1
10
143.62
20
147.27
0
VERTEX
8
1
10
143.28
20
147.36
0
VERTEX
8
1
10
142.93
20
147.45
0
VERTEX
8
1
10
142.59
20
147.54
0
VERTEX
8
1
10
142.24
20
147.62
0
VERTEX
8
1
10
141.89
20
147.70
0
VERTEX
8
1
10
141.54
20
147.77
0
VERTEX
8
1
10
141.19
20
147.84
0
VERTEX
8
1
10
140.83
20
147.91
0
VERTEX
8
1
10
140.47
20
147.97
0
VERTEX
8
1
10
140.11
20
148.03
0
VERTEX
8
1
10
139.75
20
148.09
0
VERTEX
8
1
10
139.39
20
148.14
0
VERTEX
8
1
10
139.02
20
148.19
0
VERTEX
8
1
10
138.65
20
148.23
0
VERTEX
8
1
10
138.28
20
148.28
0
VERTEX
8
1
10
137.91
20
148.31
0
VERTEX
8
1
10
137.54
20
148.35
0
VERTEX
8
1
10
137.16
20
148.38
0
VERTEX
8
1
10
136.79
20
148.41
0
VERTEX
8
1
10
136.41
20
148.43
0
VERTEX
8
1
10
136.03
20
148.46
0
VERTEX
8
1
10
135.65
20
148.48
0
VERTEX
8
1
10
135.27
20
148.49
0
VERTEX
8
1
10
134.89
20
148.50
0
VERTEX
8
1
10
134.50
20
148.51
0
VERTEX
8
1
10
134.11
20
148.52
0
VERTEX
8
1
10
133.73
20
148.52
0
VERTEX
8
1
10
133.34
20
148.52
0
VERTEX
8
1
10
132.95
20
148.52
0
VERTEX
8
1
10
132.56
20
148.51
0
VERTEX
8
1
10
129.94
20
143.46
0
VERTEX
8
1
10
130.16
20
143.14
0
VERTEX
8
1
10
130.38
20
142.82
0
VERTEX
8
1
10
130.61
20
142.50
0
VERTEX
8
1
10
130.83
20
142.19
0
VERTEX
8
1
10
131.06
20
141.87
0
VERTEX
8
1
10
131.29
20
141.56
0
VERTEX
8
1
10
131.52
20
141.26
0
VERTEX
8
1
10
131.75
20
140.96
0
VERTEX
8
1
10
131.99
20
140.66
0
VERTEX
8
1
10
132.23
20
140.36
0
VERTEX
8
1
10
132.46
20
140.06
0
VERTEX
8
1
10
132.70
20
139.77
0
VERTEX
8
1
10
132.95
20
139.49
0
VERTEX
8
1
10
133.19
20
139.20
0
VERTEX
8
1
10
133.44
20
138.92
0
VERTEX
8
1
10
133.68
20
138.64
0
VERTEX
8
1
10
133.93
20
138.37
0
VERTEX
8
1
10
134.18
20
138.10
0
VERTEX
8
1
10
134.44
20
137.83
0
VERTEX
8
1
10
134.69
20
137.57
0
VERTEX
8
1
10
134.95
20
137.31
0
VERTEX
8
1
10
135.20
20
137.05
0
VERTEX
8
1
10
135.46
20
136.80
0
VERTEX
8
1
10
135.73
20
136.55
0
VERTEX
8
1
10
135.99
20
136.31
0
VERTEX
8
1
10
136.25
20
136.06
0
VERTEX
8
1
10
136.52
20
135.83
0
VERTEX
8
1
10
136.79
20
135.60
0
VERTEX
8
1
10
137.06
20
135.37
0
VERTEX
8
1
10
137.34
20
135.15
0
VERTEX
8
1
10
137.61
20
134.93
0
VERTEX
8
1
10
137.89
20
134.71
0
VERTEX
8
1
10
138.17
20
134.51
0
VERTEX
8
1
10
138.45
20
134.30
0
VERTEX
8
1
10
138.74
20
134.11
0
VERTEX
8
1
10
139.03
20
133.92
0
VERTEX
8
1
10
139.32
20
133.73
0
VERTEX
8
1
10
139.61
20
133.56
0
VERTEX
8
1
10
139.91
20
133.40
0
VERTEX
8
1
10
140.22
20
133.25
0
VERTEX
8
1
10
140.53
20
133.12
0
VERTEX
8
1
10
140.85
20
132.99
0
VERTEX
8
1
10
141.16
20
132.86
0
VERTEX
8
1
10
141.47
20
132.73
0
VERTEX
8
1
10
141.78
20
132.60
0
VERTEX
8
1
10
142.10
20
132.47
0
VERTEX
8
1
10
142.41
20
132.34
0
VERTEX
8
1
10
142.72
20
132.21
0
VERTEX
8
1
10
143.04
20
132.07
0
VERTEX
8
1
10
143.35
20
131.94
0
VERTEX
8
1
10
140.38
20
123.59
0
VERTEX
8
1
10
140.06
20
123.69
0
VERTEX
8
1
10
139.73
20
123.79
0
VERTEX
8
1
10
139.41
20
123.88
0
VERTEX
8
1
10
139.08
20
123.98
0
VERTEX
8
1
10
138.76
20
124.08
0
VERTEX
8
1
10
138.43
20
124.17
0
VERTEX
8
1
10
138.11
20
124.27
0
VERTEX
8
1
10
137.78
20
124.36
0
VERTEX
8
1
10
137.46
20
124.46
0
VERTEX
8
1
10
137.13
20
124.56
0
VERTEX
8
1
10
136.80
20
124.64
0
VERTEX
8
1
10
136.46
20
124.70
0
VERTEX
8
1
10
136.13
20
124.75
0
VERTEX
8
1
10
135.78
20
124.79
0
VERTEX
8
1
10
135.44
20
124.83
0
VERTEX
8
1
10
135.10
20
124.85
0
VERTEX
8
1
10
134.75
20
124.87
0
VERTEX
8
1
10
134.40
20
124.89
0
VERTEX
8
1
10
134.05
20
124.90
0
VERTEX
8
1
10
133.70
20
124.91
0
VERTEX
8
1
10
133.34
20
124.90
0
VERTEX
8
1
10
132.99
20
124.90
0
VERTEX
8
1
10
132.63
20
124.89
0
VERTEX
8
1
10
132.28
20
124.87
0
VERTEX
8
1
10
131.92
20
124.86
0
VERTEX
8
1
10
131.56
20
124.83
0
VERTEX
8
1
10
131.20
20
124.80
0
VERTEX
8
1
10
130.84
20
124.77
0
VERTEX
8
1
10
130.48
20
124.74
0
VERTEX
8
1
10
130.12
20
124.70
0
VERTEX
8
1
10
129.75
20
124.65
0
VERTEX
8
1
10
129.39
20
124.60
0
VERTEX
8
1
10
129.02
20
124.55
0
VERTEX
8
1
10
128.66
20
124.50
0
VERTEX
8
1
10
128.29
20
124.44
0
VERTEX
8
1
10
127.92
20
124.38
0
VERTEX
8
1
10
127.55
20
124.31
0
VERTEX
8
1
10
127.18
20
124.24
0
VERTEX
8
1
10
126.81
20
124.16
0
VERTEX
8
1
10
126.44
20
124.09
0
VERTEX
8
1
10
126.07
20
124.01
0
VERTEX
8
1
10
125.70
20
123.92
0
VERTEX
8
1
10
125.33
20
123.83
0
VERTEX
8
1
10
124.96
20
123.74
0
VERTEX
8
1
10
124.58
20
123.65
0
VERTEX
8
1
10
124.21
20
123.55
0
VERTEX
8
1
10
123.83
20
123.45
0
VERTEX
8
1
10
123.46
20
123.34
0
VERTEX
8
1
10
123.09
20
123.23
0
VERTEX
8
1
10
122.71
20
123.12
0
VERTEX
8
1
10
121.55
20
117.55
0
VERTEX
8
1
10
121.85
20
117.30
0
VERTEX
8
1
10
122.15
20
117.05
0
VERTEX
8
1
10
122.45
20
116.81
0
VERTEX
8
1
10
122.76
20
116.56
0
VERTEX
8
1
10
123.06
20
116.33
0
VERTEX
8
1
10
123.37
20
116.09
0
VERTEX
8
1
10
123.67
20
115.86
0
VERTEX
8
1
10
123.98
20
115.63
0
VERTEX
8
1
10
124.28
20
115.40
0
VERTEX
8
1
10
124.59
20
115.18
0
VERTEX
8
1
10
124.90
20
114.96
0
VERTEX
8
1
10
125.21
20
114.75
0
VERTEX
8
1
10
125.52
20
114.54
0
VERTEX
8
1
10
125.83
20
114.33
0
VERTEX
8
1
10
126.14
20
114.12
0
VERTEX
8
1
10
126.46
20
113.92
0
VERTEX
8
1
10
126.77
20
113.73
0
VERTEX
8
1
10
127.09
20
113.53
0
VERTEX
8
1
10
127.40
20
113.34
0
VERTEX
8
1
10
127.72
20
113.16
0
VERTEX
8
1
10
128.03
20
112.98
0
VERTEX
8
1
10
128.35
20
112.80
0
VERTEX
8
1
10
128.67
20
112.63
0
VERTEX
8
1
10
128.99
20
112.46
0
VERTEX
8
1
10
129.31
20
112.29
0
VERTEX
8
1
10
129.63
20
112.13
0
VERTEX
8
1
10
129.95
20
111.98
0
VERTEX
8
1
10
130.27
20
111.83
0
VERTEX
8
1
10
130.60
20
111.68
0
VERTEX
8
1
10
130.92
20
111.54
0
VERTEX
8
1
10
131.24
20
111.40
0
VERTEX
8
1
10
131.57
20
111.27
0
VERTEX
8
1
10
131.90
20
111.15
0
VERTEX
8
1
10
132.22
20
111.03
0
VERTEX
8
1
10
132.55
20
110.92
0
VERTEX
8
1
10
132.88
20
110.81
0
VERTEX
8
1
10
133.21
20
110.72
0
VERTEX
8
1
10
133.54
20
110.63
0
VERTEX
8
1
10
133.87
20
110.55
0
VERTEX
8
1
10
134.21
20
110.49
0
VERTEX
8
1
10
134.54
20
110.45
0
VERTEX
8
1
10
134.88
20
110.41
0
VERTEX
8
1
10
135.22
20
110.37
0
VERTEX
8
1
10
135.55
20
110.33
0
VERTEX
8
1
10
135.89
20
110.29
0
VERTEX
8
1
10
136.23
20
110.24
0
VERTEX
8
1
10
136.56
20
110.20
0
VERTEX
8
1
10
136.90
20
110.16
0
VERTEX
8
1
10
137.24
20
110.12
0
VERTEX
8
1
10
137.57
20
110.08
0
VERTEX
8
1
10
136.97
20
101.24
0
VERTEX
8
1
10
136.63
20
101.24
0
VERTEX
8
1
10
136.29
20
101.25
0
VERTEX
8
1
10
135.95
20
101.25
0
VERTEX
8
1
10
135.61
20
101.26
0
VERTEX
8
1
10
135.27
20
101.26
0
VERTEX
8
1
10
134.93
20
101.27
0
VERTEX
8
1
10
134.60
20
101.27
0
VERTEX
8
1
10
134.26
20
101.28
0
VERTEX
8
1
10
133.92
20
101.28
0
VERTEX
8
1
10
133.58
20
101.29
0
VERTEX
8
1
10
133.24
20
101.27
0
VERTEX
8
1
10
132.90
20
101.24
0
VERTEX
8
1
10
132.56
20
101.20
0
VERTEX
8
1
10
132.22
20
101.15
0
VERTEX
8
1
10
131.88
20
101.09
0
VERTEX
8
1
10
131.54
20
101.02
0
VERTEX
8
1
10
131.20
20
100.95
0
VERTEX
8
1
10
130.86
20
100.87
0
VERTEX
8
1
10
130.52
20
100.79
0
VERTEX
8
1
10
130.18
20
100.70
0
VERTEX
8
1
10
129.84
20
100.60
0
VERTEX
8
1
10
129.50
20
100.50
0
VERTEX
8
1
10
129.16
20
100.40
0
VERTEX
8
1
10
128.82
20
100.29
0
VERTEX
8
1
10
128.48
20
100.17
0
VERTEX
8
1
10
128.14
20
100.05
0
VERTEX
8
1
10
127.80
20
99.93
0
VERTEX
8
1
10
127.46
20
99.80
0
VERTEX
8
1
10
127.12
20
99.67
0
VERTEX
8
1
10
126.79
20
99.53
0
VERTEX
8
1
10
126.45
20
99.39
0
VERTEX
8
1
10
126.11
20
99.25
0
VERTEX
8
1
10
125.77
20
99.10
0
VERTEX
8
1
10
125.43
20
98.94
0
VERTEX
8
1
10
125.10
20
98.79
0
VERTEX
8
1
10
124.76
20
98.63
0
VERTEX
8
1
10
124.42
20
98.46
0
VERTEX
8
1
10
124.09
20
98.30
0
VERTEX
8
1
10
123.75
20
98.13
0
VERTEX
8
1
10
123.41
20
97.95
0
VERTEX
8
1
10
123.08
20
97.77
0
VERTEX
8
1
10
122.74
20
97.59
0
VERTEX
8
1
10
122.41
20
97.41
0
VERTEX
8
1
10
122.07
20
97.22
0
VERTEX
8
1
10
121.74
20
97.03
0
VERTEX
8
1
10
121.41
20
96.83
0
VERTEX
8
1
10
121.07
20
96.63
0
VERTEX
8
1
10
120.74
20
96.43
0
VERTEX
8
1
10
120.41
20
96.22
0
VERTEX
8
1
10
120.08
20
96.02
0
VERTEX
8
1
10
120.47
20
90.34
0
VERTEX
8
1
10
120.82
20
90.18
0
VERTEX
8
1
10
121.18
20
90.02
0
VERTEX
8
1
10
121.54
20
89.87
0
VERTEX
8
1
10
121.89
20
89.71
0
VERTEX
8
1
10
122.25
20
89.57
0
VERTEX
8
1
10
122.61
20
89.42
0
VERTEX
8
1
10
122.96
20
89.28
0
VERTEX
8
1
10
123.32
20
89.14
0
VERTEX
8
1
10
123.68
20
89.01
0
VERTEX
8
1
10
124.03
20
88.88
0
VERTEX
8
1
10
124.39
20
88.75
0
VERTEX
8
1
10
124.75
20
88.63
0
VERTEX
8
1
10
125.10
20
88.51
0
VERTEX
8
1
10
125.46
20
88.39
0
VERTEX
8
1
10
125.81
20
88.28
0
VERTEX
8
1
10
126.17
20
88.17
0
VERTEX
8
1
10
126.53
20
88.06
0
VERTEX
8
1
10
126.88
20
87.96
0
VERTEX
8
1
10
127.24
20
87.87
0
VERTEX
8
1
10
127.59
20
87.77
0
VERTEX
8
1
10
127.94
20
87.68
0
VERTEX
8
1
10
128.30
20
87.60
0
VERTEX
8
1
10
128.65
20
87.52
0
VERTEX
8
1
10
129.00
20
87.44
0
VERTEX
8
1
10
129.36
20
87.37
0
VERTEX
8
1
10
129.71
20
87.30
0
VERTEX
8
1
10
130.06
20
87.24
0
VERTEX
8
1
10
130.41
20
87.18
0
VERTEX
8
1
10
130.76
20
87.13
0
VERTEX
8
1
10
131.11
20
87.08
0
VERTEX
8
1
10
131.46
20
87.04
0
VERTEX
8
1
10
131.81
20
87.00
0
VERTEX
8
1
10
132.16
20
86.97
0
VERTEX
8
1
10
132.50
20
86.94
0
VERTEX
8
1
10
132.85
20
86.92
0
VERTEX
8
1
10
133.19
20
86.91
0
VERTEX
8
1
10
133.54
20
86.90
0
VERTEX
8
1
10
133.88
20
86.91
0
VERTEX
8
1
10
134.22
20
86.92
0
VERTEX
8
1
10
134.56
20
86.96
0
VERTEX
8
1
10
134.89
20
87.01
0
VERTEX
8
1
10
135.23
20
87.06
0
VERTEX
8
1
10
135.56
20
87.11
0
VERTEX
8
1
10
135.90
20
87.16
0
VERTEX
8
1
10
136.23
20
87.21
0
VERTEX
8
1
10
136.57
20
87.26
0
VERTEX
8
1
10
136.91
20
87.31
0
VERTEX
8
1
10
137.24
20
87.37
0
VERTEX
8
1
10
137.58
20
87.42
0
VERTEX
8
1
10
137.91
20
87.47
0
VERTEX
8
1
10
139.71
20
78.79
0
VERTEX
8
1
10
139.39
20
78.70
0
VERTEX
8
1
10
139.06
20
78.62
0
VERTEX
8
1
10
138.73
20
78.53
0
VERTEX
8
1
10
138.40
20
78.44
0
VERTEX
8
1
10
138.07
20
78.36
0
VERTEX
8
1
10
137.75
20
78.27
0
VERTEX
8
1
10
137.42
20
78.18
0
VERTEX
8
1
10
137.09
20
78.10
0
VERTEX
8
1
10
136.76
20
78.01
0
VERTEX
8
1
10
136.43
20
77.92
0
VERTEX
8
1
10
136.11
20
77.82
0
VERTEX
8
1
10
135.79
20
77.70
0
VERTEX
8
1
10
135.48
20
77.57
0
VERTEX
8
1
10
135.16
20
77.42
0
VERTEX
8
1
10
134.85
20
77.28
0
VERTEX
8
1
10
134.54
20
77.12
0
VERTEX
8
1
10
134.23
20
76.96
0
VERTEX
8
1
10
133.93
20
76.79
0
VERTEX
8
1
10
133.62
20
76.62
0
VERTEX
8
1
10
133.32
20
76.44
0
VERTEX
8
1
10
133.02
20
76.25
0
VERTEX
8
1
10
132.72
20
76.07
0
VERTEX
8
1
10
132.42
20
75.87
0
VERTEX
8
1
10
132.12
20
75.67
0
VERTEX
8
1
10
131.83
20
75.47
0
VERTEX
8
1
10
131.53
20
75.27
0
VERTEX
8
1
10
131.24
20
75.05
0
VERTEX
8
1
10
130.95
20
74.84
0
VERTEX
8
1
10
130.66
20
74.62
0
VERTEX
8
1
10
130.37
20
74.40
0
VERTEX
8
1
10
130.08
20
74.17
0
VERTEX
8
1
10
129.79
20
73.94
0
VERTEX
8
1
10
129.51
20
73.71
0
VERTEX
8
1
10
129.22
20
73.47
0
VERTEX
8
1
10
128.94
20
73.23
0
VERTEX
8
1
10
128.66
20
72.98
0
VERTEX
8
1
10
128.38
20
72.74
0
VERTEX
8
1
10
128.10
20
72.48
0
VERTEX
8
1
10
127.82
20
72.23
0
VERTEX
8
1
10
127.55
20
71.97
0
VERTEX
8
1
10
127.27
20
71.71
0
VERTEX
8
1
10
127.00
20
71.44
0
VERTEX
8
1
10
126.73
20
71.17
0
VERTEX
8
1
10
126.46
20
70.90
0
VERTEX
8
1
10
126.19
20
70.63
0
VERTEX
8
1
10
125.92
20
70.35
0
VERTEX
8
1
10
125.65
20
70.07
0
VERTEX
8
1
10
125.39
20
69.78
0
VERTEX
8
1
10
125.12
20
69.50
0
VERTEX
8
1
10
124.86
20
69.20
0
VERTEX
8
1
10
126.76
20
63.85
0
VERTEX
8
1
10
127.15
20
63.79
0
VERTEX
8
1
10
127.54
20
63.73
0
VERTEX
8
1
10
127.92
20
63.68
0
VERTEX
8
1
10
128.31
20
63.63
0
VERTEX
8
1
10
128.69
20
63.58
0
VERTEX
8
1
10
129.07
20
63.54
0
VERTEX
8
1
10
129.46
20
63.50
0
VERTEX
8
1
10
129.84
20
63.46
0
VERTEX
8
1
10
130.22
20
63.43
0
VERTEX
8
1
10
130.59
20
63.40
0
VERTEX
8
1
10
130.97
20
63.37
0
VERTEX
8
1
10
131.35
20
63.35
0
VERTEX
8
1
10
131.72
20
63.33
0
VERTEX
8
1
10
132.10
20
63.31
0
VERTEX
8
1
10
132.47
20
63.30
0
VERTEX
8
1
10
132.84
20
63.29
0
VERTEX
8
1
10
133.21
20
63.29
0
VERTEX
8
1
10
133.58
20
63.29
0
VERTEX
8
1
10
133.95
20
63.29
0
VERTEX
8
1
10
134.32
20
63.29
0
VERTEX
8
1
10
134.68
20
63.30
0
VERTEX
8
1
10
135.04
20
63.32
0
VERTEX
8
1
10
135.41
20
63.33
0
VERTEX
8
1
10
135.77
20
63.36
0
VERTEX
8
1
10
136.12
20
63.38
0
VERTEX
8
1
10
136.48
20
63.41
0
VERTEX
8
1
10
136.84
20
63.45
0
VERTEX
8
1
10
137.19
20
63.48
0
VERTEX
8
1
10
137.54
20
63.53
0
VERTEX
8
1
10
137.89
20
63.58
0
VERTEX
8
1
10
138.24
20
63.63
0
VERTEX
8
1
10
138.59
20
63.69
0
VERTEX
8
1
10
138.93
20
63.75
0
VERTEX
8
1
10
139.27
20
63.82
0
VERTEX
8
1
10
139.61
20
63.89
0
VERTEX
8
1
10
139.94
20
63.97
0
VERTEX
8
1
10
140.28
20
64.06
0
VERTEX
8
1
10
140.61
20
64.16
0
VERTEX
8
1
10
140.93
20
64.26
0
VERTEX
8
1
10
141.25
20
64.39
0
VERTEX
8
1
10
141.55
20
64.53
0
VERTEX
8
1
10
141.86
20
64.67
0
VERTEX
8
1
10
142.17
20
64.81
0
VERTEX
8
1
10
142.48
20
64.95
0
VERTEX
8
1
10
142.79
20
65.09
0
VERTEX
8
1
10
143.10
20
65.23
0
VERTEX
8
1
10
143.41
20
65.37
0
VERTEX
8
1
10
143.72
20
65.51
0
VERTEX
8
1
10
144.03
20
65.65
0
VERTEX
8
1
10
144.34
20
65.79
0
VERTEX
8
1
10
148.41
20
57.92
0
VERTEX
8
1
10
148.12
20
57.74
0
VERTEX
8
1
10
147.83
20
57.57
0
VERTEX
8
1
10
147.54
20
57.40
0
VERTEX
8
1
10
147.24
20
57.23
0
VERTEX
8
1
10
146.95
20
57.06
0
VERTEX
8
1
10
146.66
20
56.88
0
VERTEX
8
1
10
146.37
20
56.71
0
VERTEX
8
1
10
146.07
20
56.54
0
VERTEX
8
1
10
145.78
20
56.37
0
VERTEX
8
1
10
145.49
20
56.20
0
VERTEX
8
1
10
145.21
20
56.01
0
VERTEX
8
1
10
144.93
20
55.81
0
VERTEX
8
1
10
144.66
20
55.59
0
VERTEX
8
1
10
144.40
20
55.37
0
VERTEX
8
1
10
144.14
20
55.15
0
VERTEX
8
1
10
143.88
20
54.91
0
VERTEX
8
1
10
143.63
20
54.67
0
VERTEX
8
1
10
143.38
20
54.43
0
VERTEX
8
1
10
143.14
20
54.18
0
VERTEX
8
1
10
142.89
20
53.93
0
VERTEX
8
1
10
142.65
20
53.67
0
VERTEX
8
1
10
142.41
20
53.41
0
VERTEX
8
1
10
142.18
20
53.14
0
VERTEX
8
1
10
141.95
20
52.87
0
VERTEX
8
1
10
141.72
20
52.59
0
VERTEX
8
1
10
141.49
20
52.31
0
VERTEX
8
1
10
141.26
20
52.03
0
VERTEX
8
1
10
141.04
20
51.75
0
VERTEX
8
1
10
140.82
20
51.46
0
VERTEX
8
1
10
140.60
20
51.17
0
VERTEX
8
1
10
140.38
20
50.87
0
VERTEX
8
1
10
140.17
20
50.57
0
VERTEX
8
1
10
139.96
20
50.27
0
VERTEX
8
1
10
139.75
20
49.96
0
VERTEX
8
1
10
139.54
20
49.65
0
VERTEX
8
1
10
139.34
20
49.34
0
VERTEX
8
1
10
139.13
20
49.03
0
VERTEX
8
1
10
138.93
20
48.71
0
VERTEX
8
1
10
138.74
20
48.39
0
VERTEX
8
1
10
138.54
20
48.07
0
VERTEX
8
1
10
138.34
20
47.74
0
VERTEX
8
1
10
138.15
20
47.41
0
VERTEX
8
1
10
137.96
20
47.08
0
VERTEX
8
1
10
137.78
20
46.74
0
VERTEX
8
1
10
137.59
20
46.41
0
VERTEX
8
1
10
137.41
20
46.07
0
VERTEX
8
1
10
137.23
20
45.72
0
VERTEX
8
1
10
137.05
20
45.38
0
VERTEX
8
1
10
136.87
20
45.03
0
VERTEX
8
1
10
136.70
20
44.68
0
VERTEX
8
1
10
139.98
20
40.03
0
VERTEX
8
1
10
140.36
20
40.08
0
VERTEX
8
1
10
140.75
20
40.13
0
VERTEX
8
1
10
141.14
20
40.18
0
VERTEX
8
1
10
141.52
20
40.24
0
VERTEX
8
1
10
141.90
20
40.30
0
VERTEX
8
1
10
142.28
20
40.36
0
VERTEX
8
1
10
142.66
20
40.42
0
VERTEX
8
1
10
143.04
20
40.49
0
VERTEX
8
1
10
143.41
20
40.56
0
VERTEX
8
1
10
143.78
20
40.63
0
VERTEX
8
1
10
144.16
20
40.71
0
VERTEX
8
1
10
144.52
20
40.79
0
VERTEX
8
1
10
144.89
20
40.87
0
VERTEX
8
1
10
145.25
20
40.96
0
VERTEX
8
1
10
145.62
20
41.05
0
VERTEX
8
1
10
145.98
20
41.14
0
VERTEX
8
1
10
146.34
20
41.23
0
VERTEX
8
1
10
146.69
20
41.33
0
VERTEX
8
1
10
147.04
20
41.43
0
VERTEX
8
1
10
147.40
20
41.54
0
VERTEX
8
1
10
147.74
20
41.65
0
VERTEX
8
1
10
148.09
20
41.76
0
VERTEX
8
1
10
148.43
20
41.87
0
VERTEX
8
1
10
148.78
20
41.99
0
VERTEX
8
1
10
149.11
20
42.11
0
VERTEX
8
1
10
149.45
20
42.24
0
VERTEX
8
1
10
149.78
20
42.36
0
VERTEX
8
1
10
150.11
20
42.50
0
VERTEX
8
1
10
150.44
20
42.63
0
VERTEX
8
1
10
150.76
20
42.77
0
VERTEX
8
1
10
151.09
20
42.92
0
VERTEX
8
1
10
151.40
20
43.07
0
VERTEX
8
1
10
151.72
20
43.22
0
VERTEX
8
1
10
152.03
20
43.38
0
VERTEX
8
1
10
152.33
20
43.54
0
VERTEX
8
1
10
152.63
20
43.71
0
VERTEX
8
1
10
152.93
20
43.88
0
VERTEX
8
1
10
153.22
20
44.07
0
VERTEX
8
1
10
153.50
20
44.26
0
VERTEX
8
1
10
153.77
20
44.46
0
VERTEX
8
1
10
154.03
20
44.68
0
VERTEX
8
1
10
154.29
20
44.90
0
VERTEX
8
1
10
154.55
20
45.11
0
VERTEX
8
1
10
154.81
20
45.33
0
VERTEX
8
1
10
155.07
20
45.55
0
VERTEX
8
1
10
155.33
20
45.77
0
VERTEX
8
1
10
155.59
20
45.99
0
VERTEX
8
1
10
155.85
20
46.20
0
VERTEX
8
1
10
156.11
20
46.42
0
VERTEX
8
1
10
156.37
20
46.64
0
VERTEX
8
1
10
162.42
20
40.16
0
VERTEX
8
1
10
162.19
20
39.92
0
VERTEX
8
1
10
161.95
20
39.67
0
VERTEX
8
1
10
161.72
20
39.43
0
VERTEX
8
1
10
161.48
20
39.19
0
VERTEX
8
1
10
161.25
20
38.94
0
VERTEX
8
1
10
161.01
20
38.70
0
VERTEX
8
1
10
160.78
20
38.45
0
VERTEX
8
1
10
160.54
20
38.21
0
VERTEX
8
1
10
160.31
20
37.96
0
VERTEX
8
1
10
160.07
20
37.72
0
VERTEX
8
1
10
159.85
20
37.46
0
VERTEX
8
1
10
159.64
20
37.19
0
VERTEX
8
1
10
159.44
20
36.91
0
VERTEX
8
1
10
159.24
20
36.63
0
VERTEX
8
1
10
159.06
20
36.34
0
VERTEX
8
1
10
158.87
20
36.05
0
VERTEX
8
1
10
158.69
20
35.75
0
VERTEX
8
1
10
158.52
20
35.45
0
VERTEX
8
1
10
158.35
20
35.14
0
VERTEX
8
1
10
158.18
20
34.83
0
VERTEX
8
1
10
158.02
20
34.52
0
VERTEX
8
1
10
157.86
20
34.20
0
VERTEX
8
1
10
157.71
20
33.88
0
VERTEX
8
1
10
157.56
20
33.56
0
VERTEX
8
1
10
157.41
20
33.23
0
VERTEX
8
1
10
157.26
20
32.90
0
VERTEX
8
1
10
157.12
20
32.57
0
VERTEX
8
1
10
156.99
20
32.23
0
VERTEX
8
1
10
156.85
20
31.90
0
VERTEX
8
1
10
156.72
20
31.55
0
VERTEX
8
1
10
156.59
20
31.21
0
VERTEX
8
1
10
156.47
20
30.87
0
VERTEX
8
1
10
156.34
20
30.52
0
VERTEX
8
1
10
156.22
20
30.17
0
VERTEX
8
1
10
156.11
20
29.81
0
VERTEX
8
1
10
156.00
20
29.46
0
VERTEX
8
1
10
155.88
20
29.10
0
VERTEX
8
1
10
155.78
20
28.74
0
VERTEX
8
1
10
155.67
20
28.38
0
VERTEX
8
1
10
155.57
20
28.01
0
VERTEX
8
1
10
155.47
20
27.65
0
VERTEX
8
1
10
155.38
20
27.28
0
VERTEX
8
1
10
155.28
20
26.91
0
VERTEX
8
1
10
155.19
20
26.53
0
VERTEX
8
1
10
155.11
20
26.16
0
VERTEX
8
1
10
155.02
20
25.78
0
VERTEX
8
1
10
154.94
20
25.40
0
VERTEX
8
1
10
154.86
20
25.02
0
VERTEX
8
1
10
154.78
20
24.64
0
VERTEX
8
1
10
154.71
20
24.25
0
VERTEX
8
1
10
159.12
20
20.67
0
VERTEX
8
1
10
159.48
20
20.82
0
VERTEX
8
1
10
159.84
20
20.97
0
VERTEX
8
1
10
160.20
20
21.12
0
VERTEX
8
1
10
160.55
20
21.28
0
VERTEX
8
1
10
160.91
20
21.44
0
VERTEX
8
1
10
161.26
20
21.60
0
VERTEX
8
1
10
161.60
20
21.77
0
VERTEX
8
1
10
161.95
20
21.93
0
VERTEX
8
1
10
162.29
20
22.10
0
VERTEX
8
1
10
162.63
20
22.27
0
VERTEX
8
1
10
162.96
20
22.45
0
VERTEX
8
1
10
163.30
20
22.62
0
VERTEX
8
1
10
163.63
20
22.80
0
VERTEX
8
1
10
163.96
20
22.98
0
VERTEX
8
1
10
164.28
20
23.16
0
VERTEX
8
1
10
164.60
20
23.35
0
VERTEX
8
1
10
164.92
20
23.54
0
VERTEX
8
1
10
165.24
20
23.73
0
VERTEX
8
1
10
165.55
20
23.92
0
VERTEX
8
1
10
165.86
20
24.12
0
VERTEX
8
1
10
166.17
20
24.32
0
VERTEX
8
1
10
166.47
20
24.52
0
VERTEX
8
1
10
166.77
20
24.72
0
VERTEX
8
1
10
167.07
20
24.92
0
VERTEX
8
1
10
167.36
20
25.13
0
VERTEX
8
1
10
167.65
20
25.34
0
VERTEX
8
1
10
167.94
20
25.56
0
VERTEX
8
1
10
168.22
20
25.77
0
VERTEX
8
1
10
168.50
20
25.99
0
VERTEX
8
1
10
168.77
20
26.22
0
VERTEX
8
1
10
169.04
20
26.44
0
VERTEX
8
1
10
169.31
20
26.67
0
VERTEX
8
1
10
169.57
20
26.90
0
VERTEX
8
1
10
169.82
20
27.14
0
VERTEX
8
1
10
170.07
20
27.38
0
VERTEX
8
1
10
170.32
20
27.62
0
VERTEX
8
1
10
170.56
20
27.87
0
VERTEX
8
1
10
170.79
20
28.12
0
VERTEX
8
1
10
171.01
20
28.38
0
VERTEX
8
1
10
171.21
20
28.65
0
VERTEX
8
1
10
171.41
20
28.93
0
VERTEX
8
1
10
171.60
20
29.21
0
VERTEX
8
1
10
171.79
20
29.49
0
VERTEX
8
1
10
171.98
20
29.77
0
VERTEX
8
1
10
172.17
20
30.05
0
VERTEX
8
1
10
172.36
20
30.33
0
VERTEX
8
1
10
172.55
20
30.61
0
VERTEX
8
1
10
172.75
20
30.89
0
VERTEX
8
1
10
172.94
20
31.17
0
VERTEX
8
1
10
173.13
20
31.45
0
VERTEX
8
1
10
180.70
20
26.85
0
VERTEX
8
1
10
180.54
20
26.55
0
VERTEX
8
1
10
180.38
20
26.25
0
VERTEX
8
1
10
180.22
20
25.95
0
VERTEX
8
1
10
180.06
20
25.65
0
VERTEX
8
1
10
179.90
20
25.35
0
VERTEX
8
1
10
179.74
20
25.05
0
VERTEX
8
1
10
179.58
20
24.76
0
VERTEX
8
1
10
179.42
20
24.46
0
VERTEX
8
1
10
179.26
20
24.16
0
VERTEX
8
1
10
179.10
20
23.86
0
VERTEX
8
1
10
178.95
20
23.55
0
VERTEX
8
1
10
178.82
20
23.24
0
VERTEX
8
1
10
178.70
20
22.91
0
VERTEX
8
1
10
178.59
20
22.59
0
VERTEX
8
1
10
178.49
20
22.26
0
VERTEX
8
1
10
178.39
20
21.93
0
VERTEX
8
1
10
178.30
20
21.59
0
VERTEX
8
1
10
178.21
20
21.25
0
VERTEX
8
1
10
178.13
20
20.91
0
VERTEX
8
1
10
178.06
20
20.57
0
VERTEX
8
1
10
177.99
20
20.22
0
VERTEX
8
1
10
177.92
20
19.88
0
VERTEX
8
1
10
177.86
20
19.53
0
VERTEX
8
1
10
177.80
20
19.17
0
VERTEX
8
1
10
177.74
20
18.82
0
VERTEX
8
1
10
177.69
20
18.46
0
VERTEX
8
1
10
177.65
20
18.10
0
VERTEX
8
1
10
177.61
20
17.74
0
VERTEX
8
1
10
177.57
20
17.38
0
VERTEX
8
1
10
177.53
20
17.02
0
VERTEX
8
1
10
177.50
20
16.65
0
VERTEX
8
1
10
177.47
20
16.29
0
VERTEX
8
1
10
177.45
20
15.92
0
VERTEX
8
1
10
177.43
20
15.55
0
VERTEX
8
1
10
177.41
20
15.18
0
VERTEX
8
1
10
177.40
20
14.81
0
VERTEX
8
1
10
177.39
20
14.43
0
VERTEX
8
1
10
177.38
20
14.06
0
VERTEX
8
1
10
177.38
20
13.68
0
VERTEX
8
1
10
177.38
20
13.30
0
VERTEX
8
1
10
177.39
20
12.92
0
VERTEX
8
1
10
177.39
20
12.54
0
VERTEX
8
1
10
177.40
20
12.16
0
VERTEX
8
1
10
177.42
20
11.77
0
VERTEX
8
1
10
177.43
20
11.39
0
VERTEX
8
1
10
177.45
20
11.00
0
VERTEX
8
1
10
177.48
20
10.62
0
VERTEX
8
1
10
177.51
20
10.23
0
VERTEX
8
1
10
177.53
20
9.84
0
VERTEX
8
1
10
177.57
20
9.45
0
VERTEX
8
1
10
182.78
20
7.18
0
VERTEX
8
1
10
183.09
20
7.43
0
VERTEX
8
1
10
183.40
20
7.67
0
VERTEX
8
1
10
183.70
20
7.91
0
VERTEX
8
1
10
184.00
20
8.16
0
VERTEX
8
1
10
184.29
20
8.41
0
VERTEX
8
1
10
184.59
20
8.66
0
VERTEX
8
1
10
184.88
20
8.91
0
VERTEX
8
1
10
185.16
20
9.17
0
VERTEX
8
1
10
185.45
20
9.42
0
VERTEX
8
1
10
185.73
20
9.68
0
VERTEX
8
1
10
186.00
20
9.93
0
VERTEX
8
1
10
186.28
20
10.19
0
VERTEX
8
1
10
186.55
20
10.45
0
VERTEX
8
1
10
186.81
20
10.72
0
VERTEX
8
1
10
187.08
20
10.98
0
VERTEX
8
1
10
187.34
20
11.25
0
VERTEX
8
1
10
187.59
20
11.51
0
VERTEX
8
1
10
187.85
20
11.78
0
VERTEX
8
1
10
188.10
20
12.05
0
VERTEX
8
1
10
188.34
20
12.32
0
VERTEX
8
1
10
188.58
20
12.60
0
VERTEX
8
1
10
188.82
20
12.87
0
VERTEX
8
1
10
189.06
20
13.15
0
VERTEX
8
1
10
189.29
20
13.43
0
VERTEX
8
1
10
189.51
20
13.71
0
VERTEX
8
1
10
189.73
20
13.99
0
VERTEX
8
1
10
189.95
20
14.27
0
VERTEX
8
1
10
190.17
20
14.56
0
VERTEX
8
1
10
190.37
20
14.84
0
VERTEX
8
1
10
190.58
20
15.13
0
VERTEX
8
1
10
190.78
20
15.42
0
VERTEX
8
1
10
190.97
20
15.71
0
VERTEX
8
1
10
191.16
20
16.01
0
VERTEX
8
1
10
191.34
20
16.30
0
VERTEX
8
1
10
191.52
20
16.60
0
VERTEX
8
1
10
191.69
20
16.90
0
VERTEX
8
1
10
191.85
20
17.21
0
VERTEX
8
1
10
192.00
20
17.51
0
VERTEX
8
1
10
192.15
20
17.82
0
VERTEX
8
1
10
192.27
20
18.14
0
VERTEX
8
1
10
192.38
20
18.46
0
VERTEX
8
1
10
192.49
20
18.78
0
VERTEX
8
1
10
192.60
20
19.10
0
VERTEX
8
1
10
192.71
20
19.42
0
VERTEX
8
1
10
192.82
20
19.74
0
VERTEX
8
1
10
192.93
20
20.06
0
VERTEX
8
1
10
193.03
20
20.39
0
VERTEX
8
1
10
193.14
20
20.71
0
VERTEX
8
1
10
193.25
20
21.03
0
VERTEX
8
1
10
193.36
20
21.35
0
VERTEX
8
1
10
201.90
20
18.96
0
VERTEX
8
1
10
201.82
20
18.63
0
VERTEX
8
1
10
201.75
20
18.30
0
VERTEX
8
1
10
201.67
20
17.96
0
VERTEX
8
1
10
201.60
20
17.63
0
VERTEX
8
1
10
201.53
20
17.30
0
VERTEX
8
1
10
201.45
20
16.97
0
VERTEX
8
1
10
201.38
20
16.64
0
VERTEX
8
1
10
201.30
20
16.31
0
VERTEX
8
1
10
201.23
20
15.98
0
VERTEX
8
1
10
201.16
20
15.65
0
VERTEX
8
1
10
201.10
20
15.31
0
VERTEX
8
1
10
201.06
20
14.97
0
VERTEX
8
1
10
201.03
20
14.63
0
VERTEX
8
1
10
201.01
20
14.29
0
VERTEX
8
1
10
201.00
20
13.94
0
VERTEX
8
1
10
201.00
20
13.60
0
VERTEX
8
1
10
201.00
20
13.25
0
VERTEX
8
1
10
201.01
20
12.90
0
VERTEX
8
1
10
201.02
20
12.55
0
VERTEX
8
1
10
201.04
20
12.20
0
VERTEX
8
1
10
201.07
20
11.85
0
VERTEX
8
1
10
201.10
20
11.49
0
VERTEX
8
1
10
201.13
20
11.14
0
VERTEX
8
1
10
201.17
20
10.78
0
VERTEX
8
1
10
201.21
20
10.43
0
VERTEX
8
1
10
201.26
20
10.07
0
VERTEX
8
1
10
201.31
20
9.72
0
VERTEX
8
1
10
201.37
20
9.36
0
VERTEX
8
1
10
201.43
20
9.00
0
VERTEX
8
1
10
201.49
20
8.64
0
VERTEX
8
1
10
201.56
20
8.28
0
VERTEX
8
1
10
201.64
20
7.92
0
VERTEX
8
1
10
201.71
20
7.56
0
VERTEX
8
1
10
201.79
20
7.20
0
VERTEX
8
1
10
201.88
20
6.83
0
VERTEX
8
1
10
201.97
20
6.47
0
VERTEX
8
1
10
202.06
20
6.11
0
VERTEX
8
1
10
202.15
20
5.75
0
VERTEX
8
1
10
202.25
20
5.38
0
VERTEX
8
1
10
202.35
20
5.02
0
VERTEX
8
1
10
202.46
20
4.65
0
VERTEX
8
1
10
202.57
20
4.29
0
VERTEX
8
1
10
202.68
20
3.92
0
VERTEX
8
1
10
202.80
20
3.56
0
VERTEX
8
1
10
202.92
20
3.19
0
VERTEX
8
1
10
203.04
20
2.83
0
VERTEX
8
1
10
203.17
20
2.46
0
VERTEX
8
1
10
203.30
20
2.09
0
VERTEX
8
1
10
203.43
20
1.73
0
VERTEX
8
1
10
203.57
20
1.36
0
VERTEX
8
1
10
209.21
20
0.58
0
VERTEX
8
1
10
209.44
20
0.90
0
VERTEX
8
1
10
209.66
20
1.22
0
VERTEX
8
1
10
209.89
20
1.54
0
VERTEX
8
1
10
210.11
20
1.85
0
VERTEX
8
1
10
210.33
20
2.17
0
VERTEX
8
1
10
210.54
20
2.49
0
VERTEX
8
1
10
210.75
20
2.81
0
VERTEX
8
1
10
210.96
20
3.13
0
VERTEX
8
1
10
211.16
20
3.46
0
VERTEX
8
1
10
211.37
20
3.78
0
VERTEX
8
1
10
211.56
20
4.10
0
VERTEX
8
1
10
211.76
20
4.43
0
VERTEX
8
1
10
211.95
20
4.75
0
VERTEX
8
1
10
212.13
20
5.07
0
VERTEX
8
1
10
212.31
20
5.40
0
VERTEX
8
1
10
212.49
20
5.73
0
VERTEX
8
1
10
212.67
20
6.05
0
VERTEX
8
1
10
212.84
20
6.38
0
VERTEX
8
1
10
213.01
20
6.71
0
VERTEX
8
1
10
213.17
20
7.03
0
VERTEX
8
1
10
213.33
20
7.36
0
VERTEX
8
1
10
213.48
20
7.69
0
VERTEX
8
1
10
213.64
20
8.02
0
VERTEX
8
1
10
213.78
20
8.35
0
VERTEX
8
1
10
213.92
20
8.68
0
VERTEX
8
1
10
214.06
20
9.01
0
VERTEX
8
1
10
214.20
20
9.34
0
VERTEX
8
1
10
214.32
20
9.68
0
VERTEX
8
1
10
214.45
20
10.01
0
VERTEX
8
1
10
214.57
20
10.34
0
VERTEX
8
1
10
214.68
20
10.67
0
VERTEX
8
1
10
214.79
20
11.01
0
VERTEX
8
1
10
214.89
20
11.34
0
VERTEX
8
1
10
214.99
20
11.68
0
VERTEX
8
1
10
215.07
20
12.01
0
VERTEX
8
1
10
215.16
20
12.34
0
VERTEX
8
1
10
215.23
20
12.68
0
VERTEX
8
1
10
215.30
20
13.02
0
VERTEX
8
1
10
215.35
20
13.35
0
VERTEX
8
1
10
215.39
20
13.69
0
VERTEX
8
1
10
215.41
20
14.03
0
VERTEX
8
1
10
215.42
20
14.37
0
VERTEX
8
1
10
215.44
20
14.71
0
VERTEX
8
1
10
215.46
20
15.05
0
VERTEX
8
1
10
215.48
20
15.38
0
VERTEX
8
1
10
215.50
20
15.72
0
VERTEX
8
1
10
215.51
20
16.06
0
VERTEX
8
1
10
215.53
20
16.40
0
VERTEX
8
1
10
215.55
20
16.74
0
VERTEX
8
1
10
215.57
20
17.08
0
VERTEX
8
1
10
224.43
20
17.08
0
VERTEX
8
1
10
224.45
20
16.74
0
VERTEX
8
1
10
224.47
20
16.40
0
VERTEX
8
1
10
224.49
20
16.06
0
VERTEX
8
1
10
224.50
20
15.72
0
VERTEX
8
1
10
224.52
20
15.38
0
VERTEX
8
1
10
224.54
20
15.05
0
VERTEX
8
1
10
224.56
20
14.71
0
VERTEX
8
1
10
224.58
20
14.37
0
VERTEX
8
1
10
224.59
20
14.03
0
VERTEX
8
1
10
224.61
20
13.69
0
VERTEX
8
1
10
224.65
20
13.35
0
VERTEX
8
1
10
224.70
20
13.02
0
VERTEX
8
1
10
224.77
20
12.68
0
VERTEX
8
1
10
224.84
20
12.34
0
VERTEX
8
1
10
224.93
20
12.01
0
VERTEX
8
1
10
225.01
20
11.68
0
VERTEX
8
1
10
225.11
20
11.34
0
VERTEX
8
1
10
225.21
20
11.01
0
VERTEX
8
1
10
225.32
20
10.67
0
VERTEX
8
1
10
225.43
20
10.34
0
VERTEX
8
1
10
225.55
20
10.01
0
VERTEX
8
1
10
225.68
20
9.68
0
VERTEX
8
1
10
225.80
20
9.34
0
VERTEX
8
1
10
225.94
20
9.01
0
VERTEX
8
1
10
226.08
20
8.68
0
VERTEX
8
1
10
226.22
20
8.35
0
VERTEX
8
1
10
226.36
20
8.02
0
VERTEX
8
1
10
226.52
20
7.69
0
VERTEX
8
1
10
226.67
20
7.36
0
VERTEX
8
1
10
226.83
20
7.03
0
VERTEX
8
1
10
226.99
20
6.71
0
VERTEX
8
1
10
227.16
20
6.38
0
VERTEX
8
1
10
227.33
20
6.05
0
VERTEX
8
1
10
227.51
20
5.73
0
VERTEX
8
1
10
227.69
20
5.40
0
VERTEX
8
1
10
227.87
20
5.07
0
VERTEX
8
1
10
228.05
20
4.75
0
VERTEX
8
1
10
228.24
20
4.43
0
VERTEX
8
1
10
228.44
20
4.10
0
VERTEX
8
1
10
228.63
20
3.78
0
VERTEX
8
1
10
228.84
20
3.46
0
VERTEX
8
1
10
229.04
20
3.13
0
VERTEX
8
1
10
229.25
20
2.81
0
VERTEX
8
1
10
229.46
20
2.49
0
VERTEX
8
1
10
229.67
20
2.17
0
VERTEX
8
1
10
229.89
20
1.85
0
VERTEX
8
1
10
230.11
20
1.54
0
VERTEX
8
1
10
230.34
20
1.22
0
VERTEX
8
1
10
230.56
20
0.90
0
VERTEX
8
1
10
230.79
20
0.58
0
VERTEX
8
1
10
236.43
20
1.36
0
VERTEX
8
1
10
236.57
20
1.73
0
VERTEX
8
1
10
236.70
20
2.09
0
VERTEX
8
1
10
236.83
20
2.46
0
VERTEX
8
1
10
236.96
20
2.83
0
VERTEX
8
1
10
237.08
20
3.19
0
VERTEX
8
1
10
237.20
20
3.56
0
VERTEX
8
1
10
237.32
20
3.92
0
VERTEX
8
1
10
237.43
20
4.29
0
VERTEX
8
1
10
237.54
20
4.65
0
VERTEX
8
1
10
237.65
20
5.02
0
VERTEX
8
1
10
237.75
20
5.38
0
VERTEX
8
1
10
237.85
20
5.75
0
VERTEX
8
1
10
237.94
20
6.11
0
VERTEX
8
1
10
238.03
20
6.47
0
VERTEX
8
1
10
238.12
20
6.83
0
VERTEX
8
1
10
238.21
20
7.20
0
VERTEX
8
1
10
238.29
20
7.56
0
VERTEX
8
1
10
238.36
20
7.92
0
VERTEX
8
1
10
238.44
20
8.28
0
VERTEX
8
1
10
238.51
20
8.64
0
VERTEX
8
1
10
238.57
20
9.00
0
VERTEX
8
1
10
238.63
20
9.36
0
VERTEX
8
1
10
238.69
20
9.72
0
VERTEX
8
1
10
238.74
20
10.07
0
VERTEX
8
1
10
238.79
20
10.43
0
VERTEX
8
1
10
238.83
20
10.78
0
VERTEX
8
1
10
238.87
20
11.14
0
VERTEX
8
1
10
238.90
20
11.49
0
VERTEX
8
1
10
238.93
20
11.85
0
VERTEX
8
1
10
238.96
20
12.20
0
VERTEX
8
1
10
238.98
20
12.55
0
VERTEX
8
1
10
238.99
20
12.90
0
VERTEX
8
1
10
239.00
20
13.25
0
VERTEX
8
1
10
239.00
20
13.60
0
VERTEX
8
1
10
239.00
20
13.94
0
VERTEX
8
1
10
238.99
20
14.29
0
VERTEX
8
1
10
238.97
20
14.63
0
VERTEX
8
1
10
238.94
20
14.97
0
VERTEX
8
1
10
238.90
20
15.31
0
VERTEX
8
1
10
238.84
20
15.65
0
VERTEX
8
1
10
238.77
20
15.98
0
VERTEX
8
1
10
238.70
20
16.31
0
VERTEX
8
1
10
238.62
20
16.64
0
VERTEX
8
1
10
238.55
20
16.97
0
VERTEX
8
1
10
238.47
20
17.30
0
VERTEX
8
1
10
238.40
20
17.63
0
VERTEX
8
1
10
238.33
20
17.96
0
VERTEX
8
1
10
238.25
20
18.30
0
VERTEX
8
1
10
238.18
20
18.63
0
VERTEX
8
1
10
238.10
20
18.96
0
VERTEX
8
1
10
246.64
20
21.35
0
VERTEX
8
1
10
246.75
20
21.03
0
VERTEX
8
1
10
246.86
20
20.71
0
VERTEX
8
1
10
246.97
20
20.39
0
VERTEX
8
1
10
247.07
20
20.06
0
VERTEX
8
1
10
247.18
20
19.74
0
VERTEX
8
1
10
247.29
20
19.42
0
VERTEX
8
1
10
247.40
20
19.10
0
VERTEX
8
1
10
247.51
20
18.78
0
VERTEX
8
1
10
247.62
20
18.46
0
VERTEX
8
1
10
247.73
20
18.14
0
VERTEX
8
1
10
247.85
20
17.82
0
VERTEX
8
1
10
248.00
20
17.51
0
VERTEX
8
1
10
248.15
20
17.21
0
VERTEX
8
1
10
248.31
20
16.90
0
VERTEX
8
1
10
248.48
20
16.60
0
VERTEX
8
1
10
248.66
20
16.30
0
VERTEX
8
1
10
248.84
20
16.01
0
VERTEX
8
1
10
249.03
20
15.71
0
VERTEX
8
1
10
249.22
20
15.42
0
VERTEX
8
1
10
249.42
20
15.13
0
VERTEX
8
1
10
249.63
20
14.84
0
VERTEX
8
1
10
249.83
20
14.56
0
VERTEX
8
1
10
250.05
20
14.27
0
VERTEX
8
1
10
250.27
20
13.99
0
VERTEX
8
1
10
250.49
20
13.71
0
VERTEX
8
1
10
250.71
20
13.43
0
VERTEX
8
1
10
250.94
20
13.15
0
VERTEX
8
1
10
251.18
20
12.87
0
VERTEX
8
1
10
251.42
20
12.60
0
VERTEX
8
1
10
251.66
20
12.32
0
VERTEX
8
1
10
251.90
20
12.05
0
VERTEX
8
1
10
252.15
20
11.78
0
VERTEX
8
1
10
252.41
20
11.51
0
VERTEX
8
1
10
252.66
20
11.25
0
VERTEX
8
1
10
252.92
20
10.98
0
VERTEX
8
1
10
253.19
20
10.72
0
VERTEX
8
1
10
253.45
20
10.45
0
VERTEX
8
1
10
253.72
20
10.19
0
VERTEX
8
1
10
254.00
20
9.93
0
VERTEX
8
1
10
254.27
20
9.68
0
VERTEX
8
1
10
254.55
20
9.42
0
VERTEX
8
1
10
254.84
20
9.17
0
VERTEX
8
1
10
255.12
20
8.91
0
VERTEX
8
1
10
255.41
20
8.66
0
VERTEX
8
1
10
255.71
20
8.41
0
VERTEX
8
1
10
256.00
20
8.16
0
VERTEX
8
1
10
256.30
20
7.91
0
VERTEX
8
1
10
256.60
20
7.67
0
VERTEX
8
1
10
256.91
20
7.43
0
VERTEX
8
1
10
257.22
20
7.18
0
VERTEX
8
1
10
262.43
20
9.45
0
VERTEX
8
1
10
262.47
20
9.84
0
VERTEX
8
1
10
262.49
20
10.23
0
VERTEX
8
1
10
262.52
20
10.62
0
VERTEX
8
1
10
262.55
20
11.00
0
VERTEX
8
1
10
262.57
20
11.39
0
VERTEX
8
1
10
262.58
20
11.77
0
VERTEX
8
1
10
262.60
20
12.16
0
VERTEX
8
1
10
262.61
20
12.54
0
VERTEX
8
1
10
262.61
20
12.92
0
VERTEX
8
1
10
262.62
20
13.30
0
VERTEX
8
1
10
262.62
20
13.68
0
VERTEX
8
1
10
262.62
20
14.06
0
VERTEX
8
1
10
262.61
20
14.43
0
VERTEX
8
1
10
262.60
20
14.81
0
VERTEX
8
1
10
262.59
20
15.18
0
VERTEX
8
1
10
262.57
20
15.55
0
VERTEX
8
1
10
262.55
20
15.92
0
VERTEX
8
1
10
262.53
20
16.29
0
VERTEX
8
1
10
262.50
20
16.65
0
VERTEX
8
1
10
262.47
20
17.02
0
VERTEX
8
1
10
262.43
20
17.38
0
VERTEX
8
1
10
262.39
20
17.74
0
VERTEX
8
1
10
262.35
20
18.10
0
VERTEX
8
1
10
262.31
20
18.46
0
VERTEX
8
1
10
262.26
20
18.82
0
VERTEX
8
1
10
262.20
20
19.17
0
VERTEX
8
1
10
262.14
20
19.53
0
VERTEX
8
1
10
262.08
20
19.88
0
VERTEX
8
1
10
262.01
20
20.22
0
VERTEX
8
1
10
261.94
20
20.57
0
VERTEX
8
1
10
261.87
20
20.91
0
VERTEX
8
1
10
261.79
20
21.25
0
VERTEX
8
1
10
261.70
20
21.59
0
VERTEX
8
1
10
261.61
20
21.93
0
VERTEX
8
1
10
261.51
20
22.26
0
VERTEX
8
1
10
261.41
20
22.59
0
VERTEX
8
1
10
261.30
20
22.91
0
VERTEX
8
1
10
261.18
20
23.24
0
VERTEX
8
1
10
261.05
20
23.55
0
VERTEX
8
1
10
260.90
20
23.86
0
VERTEX
8
1
10
260.74
20
24.16
0
VERTEX
8
1
10
260.58
20
24.46
0
VERTEX
8
1
10
260.42
20
24.76
0
VERTEX
8
1
10
260.26
20
25.05
0
VERTEX
8
1
10
260.10
20
25.35
0
VERTEX
8
1
10
259.94
20
25.65
0
VERTEX
8
1
10
259.78
20
25.95
0
VERTEX
8
1
10
259.62
20
26.25
0
VERTEX
8
1
10
259.46
20
26.55
0
VERTEX
8
1
10
259.30
20
26.85
0
VERTEX
8
1
10
266.87
20
31.45
0
VERTEX
8
1
10
267.06
20
31.17
0
VERTEX
8
1
10
267.25
20
30.89
0
VERTEX
8
1
10
267.45
20
30.61
0
VERTEX
8
1
10
267.64
20
30.33
0
VERTEX
8
1
10
267.83
20
30.05
0
VERTEX
8
1
10
268.02
20
29.77
0
VERTEX
8
1
10
268.21
20
29.49
0
VERTEX
8
1
10
268.40
20
29.21
0
VERTEX
8
1
10
268.59
20
28.93
0
VERTEX
8
1
10
268.79
20
28.65
0
VERTEX
8
1
10
268.99
20
28.38
0
VERTEX
8
1
10
269.21
20
28.12
0
VERTEX
8
1
10
269.44
20
27.87
0
VERTEX
8
1
10
269.68
20
27.62
0
VERTEX
8
1
10
269.93
20
27.38
0
VERTEX
8
1
10
270.18
20
27.14
0
VERTEX
8
1
10
270.43
20
26.90
0
VERTEX
8
1
10
270.69
20
26.67
0
VERTEX
8
1
10
270.96
20
26.44
0
VERTEX
8
1
10
271.23
20
26.22
0
VERTEX
8
1
10
271.50
20
25.99
0
VERTEX
8
1
10
271.78
20
25.77
0
VERTEX
8
1
10
272.06
20
25.56
0
VERTEX
8
1
10
272.35
20
25.34
0
VERTEX
8
1
10
272.64
20
25.13
0
VERTEX
8
1
10
272.93
20
24.92
0
VERTEX
8
1
10
273.23
20
24.72
0
VERTEX
8
1
10
273.53
20
24.52
0
VERTEX
8
1
10
273.83
20
24.32
0
VERTEX
8
1
10
274.14
20
24.12
0
VERTEX
8
1
10
274.45
20
23.92
0
VERTEX
8
1
10
274.76
20
23.73
0
VERTEX
8
1
10
275.08
20
23.54
0
VERTEX
8
1
10
275.40
20
23.35
0
VERTEX
8
1
10
275.72
20
23.16
0
VERTEX
8
1
10
276.04
20
22.98
0
VERTEX
8
1
10
276.37
20
22.80
0
VERTEX
8
1
10
276.70
20
22.62
0
VERTEX
8
1
10
277.04
20
22.45
0
VERTEX
8
1
10
277.37
20
22.27
0
VERTEX
8
1
10
277.71
20
22.10
0
VERTEX
8
1
10
278.05
20
21.93
0
VERTEX
8
1
10
278.40
20
21.77
0
VERTEX
8
1
10
278.74
20
21.60
0
VERTEX
8
1
10
279.09
20
21.44
0
VERTEX
8
1
10
279.45
20
21.28
0
VERTEX
8
1
10
279.80
20
21.12
0
VERTEX
8
1
10
280.16
20
20.97
0
VERTEX
8
1
10
280.52
20
20.82
0
VERTEX
8
1
10
280.88
20
20.67
0
VERTEX
8
1
10
285.29
20
24.25
0
VERTEX
8
1
10
285.22
20
24.64
0
VERTEX
8
1
10
285.14
20
25.02
0
VERTEX
8
1
10
285.06
20
25.40
0
VERTEX
8
1
10
284.98
20
25.78
0
VERTEX
8
1
10
284.89
20
26.16
0
VERTEX
8
1
10
284.81
20
26.53
0
VERTEX
8
1
10
284.72
20
26.91
0
VERTEX
8
1
10
284.62
20
27.28
0
VERTEX
8
1
10
284.53
20
27.65
0
VERTEX
8
1
10
284.43
20
28.01
0
VERTEX
8
1
10
284.33
20
28.38
0
VERTEX
8
1
10
284.22
20
28.74
0
VERTEX
8
1
10
284.12
20
29.10
0
VERTEX
8
1
10
284.00
20
29.46
0
VERTEX
8
1
10
283.89
20
29.81
0
VERTEX
8
1
10
283.78
20
30.17
0
VERTEX
8
1
10
283.66
20
30.52
0
VERTEX
8
1
10
283.53
20
30.87
0
VERTEX
8
1
10
283.41
20
31.21
0
VERTEX
8
1
10
283.28
20
31.55
0
VERTEX
8
1
10
283.15
20
31.90
0
VERTEX
8
1
10
283.01
20
32.23
0
VERTEX
8
1
10
282.88
20
32.57
0
VERTEX
8
1
10
282.74
20
32.90
0
VERTEX
8
1
10
282.59
20
33.23
0
VERTEX
8
1
10
282.44
20
33.56
0
VERTEX
8
1
10
282.29
20
33.88
0
VERTEX
8
1
10
282.14
20
34.20
0
VERTEX
8
1
10
281.98
20
34.52
0
VERTEX
8
1
10
281.82
20
34.83
0
VERTEX
8
1
10
281.65
20
35.14
0
VERTEX
8
1
10
281.48
20
35.45
0
VERTEX
8
1
10
281.31
20
35.75
0
VERTEX
8
1
10
281.13
20
36.05
0
VERTEX
8
1
10
280.94
20
36.34
0
VERTEX
8
1
10
280.76
20
36.63
0
VERTEX
8
1
10
280.56
20
36.91
0
VERTEX
8
1
10
280.36
20
37.19
0
VERTEX
8
1
10
280.15
20
37.46
0
VERTEX
8
1
10
279.93
20
37.72
0
VERTEX
8
1
10
279.69
20
37.96
0
VERTEX
8
1
10
279.46
20
38.21
0
VERTEX
8
1
10
279.22
20
38.45
0
VERTEX
8
1
10
278.99
20
38.70
0
VERTEX
8
1
10
278.75
20
38.94
0
VERTEX
8
1
10
278.52
20
39.19
0
VERTEX
8
1
10
278.28
20
39.43
0
VERTEX
8
1
10
278.05
20
39.67
0
VERTEX
8
1
10
277.81
20
39.92
0
VERTEX
8
1
10
277.58
20
40.16
0
VERTEX
8
1
10
283.63
20
46.64
0
VERTEX
8
1
10
283.89
20
46.42
0
VERTEX
8
1
10
284.15
20
46.20
0
VERTEX
8
1
10
284.41
20
45.99
0
VERTEX
8
1
10
284.67
20
45.77
0
VERTEX
8
1
10
284.93
20
45.55
0
VERTEX
8
1
10
285.19
20
45.33
0
VERTEX
8
1
10
285.45
20
45.11
0
VERTEX
8
1
10
285.71
20
44.90
0
VERTEX
8
1
10
285.97
20
44.68
0
VERTEX
8
1
10
286.23
20
44.46
0
VERTEX
8
1
10
286.50
20
44.26
0
VERTEX
8
1
10
286.78
20
44.07
0
VERTEX
8
1
10
287.07
20
43.88
0
VERTEX
8
1
10
287.37
20
43.71
0
VERTEX
8
1
10
287.67
20
43.54
0
VERTEX
8
1
10
287.97
20
43.38
0
VERTEX
8
1
10
288.28
20
43.22
0
VERTEX
8
1
10
288.60
20
43.07
0
VERTEX
8
1
10
288.91
20
42.92
0
VERTEX
8
1
10
289.24
20
42.77
0
VERTEX
8
1
10
289.56
20
42.63
0
VERTEX
8
1
10
289.89
20
42.50
0
VERTEX
8
1
10
290.22
20
42.36
0
VERTEX
8
1
10
290.55
20
42.24
0
VERTEX
8
1
10
290.89
20
42.11
0
VERTEX
8
1
10
291.22
20
41.99
0
VERTEX
8
1
10
291.57
20
41.87
0
VERTEX
8
1
10
291.91
20
41.76
0
VERTEX
8
1
10
292.26
20
41.65
0
VERTEX
8
1
10
292.60
20
41.54
0
VERTEX
8
1
10
292.96
20
41.43
0
VERTEX
8
1
10
293.31
20
41.33
0
VERTEX
8
1
10
293.66
20
41.23
0
VERTEX
8
1
10
294.02
20
41.14
0
VERTEX
8
1
10
294.38
20
41.05
0
VERTEX
8
1
10
294.75
20
40.96
0
VERTEX
8
1
10
295.11
20
40.87
0
VERTEX
8
1
10
295.48
20
40.79
0
VERTEX
8
1
10
295.84
20
40.71
0
VERTEX
8
1
10
296.22
20
40.63
0
VERTEX
8
1
10
296.59
20
40.56
0
VERTEX
8
1
10
296.96
20
40.49
0
VERTEX
8
1
10
297.34
20
40.42
0
VERTEX
8
1
10
297.72
20
40.36
0
VERTEX
8
1
10
298.10
20
40.30
0
VERTEX
8
1
10
298.48
20
40.24
0
VERTEX
8
1
10
298.86
20
40.18
0
VERTEX
8
1
10
299.25
20
40.13
0
VERTEX
8
1
10
299.64
20
40.08
0
VERTEX
8
1
10
300.02
20
40.03
0
VERTEX
8
1
10
303.30
20
44.68
0
VERTEX
8
1
10
303.13
20
45.03
0
VERTEX
8
1
10
302.95
20
45.38
0
VERTEX
8
1
10
302.77
20
45.72
0
VERTEX
8
1
10
302.59
20
46.07
0
VERTEX
8
1
10
302.41
20
46.41
0
VERTEX
8
1
10
302.22
20
46.74
0
VERTEX
8
1
10
302.04
20
47.08
0
VERTEX
8
1
10
301.85
20
47.41
0
VERTEX
8
1
10
301.66
20
47.74
0
VERTEX
8
1
10
301.46
20
48.07
0
VERTEX
8
1
10
301.26
20
48.39
0
VERTEX
8
1
10
301.07
20
48.71
0
VERTEX
8
1
10
300.87
20
49.03
0
VERTEX
8
1
10
300.66
20
49.34
0
VERTEX
8
1
10
300.46
20
49.65
0
VERTEX
8
1
10
300.25
20
49.96
0
VERTEX
8
1
10
300.04
20
50.27
0
VERTEX
8
1
10
299.83
20
50.57
0
VERTEX
8
1
10
299.62
20
50.87
0
VERTEX
8
1
10
299.40
20
51.17
0
VERTEX
8
1
10
299.18
20
51.46
0
VERTEX
8
1
10
298.96
20
51.75
0
VERTEX
8
1
10
298.74
20
52.03
0
VERTEX
8
1
10
298.51
20
52.31
0
VERTEX
8
1
10
298.28
20
52.59
0
VERTEX
8
1
10
298.05
20
52.87
0
VERTEX
8
1
10
297.82
20
53.14
0
VERTEX
8
1
10
297.59
20
53.41
0
VERTEX
8
1
10
297.35
20
53.67
0
VERTEX
8
1
10
297.11
20
53.93
0
VERTEX
8
1
10
296.86
20
54.18
0
VERTEX
8
1
10
296.62
20
54.43
0
VERTEX
8
1
10
296.37
20
54.67
0
VERTEX
8
1
10
296.12
20
54.91
0
VERTEX
8
1
10
295.86
20
55.15
0
VERTEX
8
1
10
295.60
20
55.37
0
VERTEX
8
1
10
295.34
20
55.59
0
VERTEX
8
1
10
295.07
20
55.81
0
VERTEX
8
1
10
294.79
20
56.01
0
VERTEX
8
1
10
294.51
20
56.20
0
VERTEX
8
1
10
294.22
20
56.37
0
VERTEX
8
1
10
293.93
20
56.54
0
VERTEX
8
1
10
293.63
20
56.71
0
VERTEX
8
1
10
293.34
20
56.88
0
VERTEX
8
1
10
293.05
20
57.06
0
VERTEX
8
1
10
292.76
20
57.23
0
VERTEX
8
1
10
292.46
20
57.40
0
VERTEX
8
1
10
292.17
20
57.57
0
VERTEX
8
1
10
291.88
20
57.74
0
VERTEX
8
1
10
291.59
20
57.92
0
VERTEX
8
1
10
295.66
20
65.79
0
VERTEX
8
1
10
295.97
20
65.65
0
VERTEX
8
1
10
296.28
20
65.51
0
VERTEX
8
1
10
296.59
20
65.37
0
VERTEX
8
1
10
296.90
20
65.23
0
VERTEX
8
1
10
297.21
20
65.09
0
VERTEX
8
1
10
297.52
20
64.95
0
VERTEX
8
1
10
297.83
20
64.81
0
VERTEX
8
1
10
298.14
20
64.67
0
VERTEX
8
1
10
298.45
20
64.53
0
VERTEX
8
1
10
298.75
20
64.39
0
VERTEX
8
1
10
299.07
20
64.26
0
VERTEX
8
1
10
299.39
20
64.16
0
VERTEX
8
1
10
299.72
20
64.06
0
VERTEX
8
1
10
300.06
20
63.97
0
VERTEX
8
1
10
300.39
20
63.89
0
VERTEX
8
1
10
300.73
20
63.82
0
VERTEX
8
1
10
301.07
20
63.75
0
VERTEX
8
1
10
301.41
20
63.69
0
VERTEX
8
1
10
301.76
20
63.63
0
VERTEX
8
1
10
302.11
20
63.58
0
VERTEX
8
1
10
302.46
20
63.53
0
VERTEX
8
1
10
302.81
20
63.48
0
VERTEX
8
1
10
303.16
20
63.45
0
VERTEX
8
1
10
303.52
20
63.41
0
VERTEX
8
1
10
303.88
20
63.38
0
VERTEX
8
1
10
304.23
20
63.36
0
VERTEX
8
1
10
304.59
20
63.33
0
VERTEX
8
1
10
304.96
20
63.32
0
VERTEX
8
1
10
305.32
20
63.30
0
VERTEX
8
1
10
305.68
20
63.29
0
VERTEX
8
1
10
306.05
20
63.29
0
VERTEX
8
1
10
306.42
20
63.29
0
VERTEX
8
1
10
306.79
20
63.29
0
VERTEX
8
1
10
307.16
20
63.29
0
VERTEX
8
1
10
307.53
20
63.30
0
VERTEX
8
1
10
307.90
20
63.31
0
VERTEX
8
1
10
308.28
20
63.33
0
VERTEX
8
1
10
308.65
20
63.35
0
VERTEX
8
1
10
309.03
20
63.37
0
VERTEX
8
1
10
309.41
20
63.40
0
VERTEX
8
1
10
309.78
20
63.43
0
VERTEX
8
1
10
310.16
20
63.46
0
VERTEX
8
1
10
310.54
20
63.50
0
VERTEX
8
1
10
310.93
20
63.54
0
VERTEX
8
1
10
311.31
20
63.58
0
VERTEX
8
1
10
311.69
20
63.63
0
VERTEX
8
1
10
312.08
20
63.68
0
VERTEX
8
1
10
312.46
20
63.73
0
VERTEX
8
1
10
312.85
20
63.79
0
VERTEX
8
1
10
313.24
20
63.85
0
VERTEX
8
1
10
315.14
20
69.20
0
VERTEX
8
1
10
314.88
20
69.50
0
VERTEX
8
1
10
314.61
20
69.78
0
VERTEX
8
1
10
314.35
20
70.07
0
VERTEX
8
1
10
314.08
20
70.35
0
VERTEX
8
1
10
313.81
20
70.63
0
VERTEX
8
1
10
313.54
20
70.90
0
VERTEX
8
1
10
313.27
20
71.17
0
VERTEX
8
1
10
313.00
20
71.44
0
VERTEX
8
1
10
312.73
20
71.71
0
VERTEX
8
1
10
312.45
20
71.97
0
VERTEX
8
1
10
312.18
20
72.23
0
VERTEX
8
1
10
311.90
20
72.48
0
VERTEX
8
1
10
311.62
20
72.74
0
VERTEX
8
1
10
311.34
20
72.98
0
VERTEX
8
1
10
311.06
20
73.23
0
VERTEX
8
1
10
310.78
20
73.47
0
VERTEX
8
1
10
310.49
20
73.71
0
VERTEX
8
1
10
310.21
20
73.94
0
VERTEX
8
1
10
309.92
20
74.17
0
VERTEX
8
1
10
309.63
20
74.40
0
VERTEX
8
1
10
309.34
20
74.62
0
VERTEX
8
1
10
309.05
20
74.84
0
VERTEX
8
1
10
308.76
20
75.05
0
VERTEX
8
1
10
308.47
20
75.27
0
VERTEX
8
1
10
308.17
20
75.47
0
VERTEX
8
1
10
307.88
20
75.67
0
VERTEX
8
1
10
307.58
20
75.87
0
VERTEX
8
1
10
307.28
20
76.07
0
VERTEX
8
1
10
306.98
20
76.25
0
VERTEX
8
1
10
306.68
20
76.44
0
VERTEX
8
1
10
306.38
20
76.62
0
VERTEX
8
1
10
306.07
20
76.79
0
VERTEX
8
1
10
305.77
20
76.96
0
VERTEX
8
1
10
305.46
20
77.12
0
VERTEX
8
1
10
305.15
20
77.28
0
VERTEX
8
1
10
304.84
20
77.42
0
VERTEX
8
1
10
304.52
20
77.57
0
VERTEX
8
1
10
304.21
20
77.70
0
VERTEX
8
1
10
303.89
20
77.82
0
VERTEX
8
1
10
303.57
20
77.92
0
VERTEX
8
1
10
303.24
20
78.01
0
VERTEX
8
1
10
302.91
20
78.10
0
VERTEX
8
1
10
302.58
20
78.18
0
VERTEX
8
1
10
302.25
20
78.27
0
VERTEX
8
1
10
301.93
20
78.36
0
VERTEX
8
1
10
301.60
20
78.44
0
VERTEX
8
1
10
301.27
20
78.53
0
VERTEX
8
1
10
300.94
20
78.62
0
VERTEX
8
1
10
300.61
20
78.70
0
VERTEX
8
1
10
300.29
20
78.79
0
VERTEX
8
1
10
302.09
20
87.47
0
VERTEX
8
1
10
302.42
20
87.42
0
VERTEX
8
1
10
302.76
20
87.37
0
VERTEX
8
1
10
303.09
20
87.31
0
VERTEX
8
1
10
303.43
20
87.26
0
VERTEX
8
1
10
303.77
20
87.21
0
VERTEX
8
1
10
304.10
20
87.16
0
VERTEX
8
1
10
304.44
20
87.11
0
VERTEX
8
1
10
304.77
20
87.06
0
VERTEX
8
1
10
305.11
20
87.01
0
VERTEX
8
1
10
305.44
20
86.96
0
VERTEX
8
1
10
305.78
20
86.92
0
VERTEX
8
1
10
306.12
20
86.91
0
VERTEX
8
1
10
306.46
20
86.90
0
VERTEX
8
1
10
306.81
20
86.91
0
VERTEX
8
1
10
307.15
20
86.92
0
VERTEX
8
1
10
307.50
20
86.94
0
VERTEX
8
1
10
307.84
20
86.97
0
VERTEX
8
1
10
308.19
20
87.00
0
VERTEX
8
1
10
308.54
20
87.04
0
VERTEX
8
1
10
308.89
20
87.08
0
VERTEX
8
1
10
309.24
20
87.13
0
VERTEX
8
1
10
309.59
20
87.18
0
VERTEX
8
1
10
309.94
20
87.24
0
VERTEX
8
1
10
310.29
20
87.30
0
VERTEX
8
1
10
310.64
20
87.37
0
VERTEX
8
1
10
311.00
20
87.44
0
VERTEX
8
1
10
311.35
20
87.52
0
VERTEX
8
1
10
311.70
20
87.60
0
VERTEX
8
1
10
312.06
20
87.68
0
VERTEX
8
1
10
312.41
20
87.77
0
VERTEX
8
1
10
312.76
20
87.87
0
VERTEX
8
1
10
313.12
20
87.96
0
VERTEX
8
1
10
313.47
20
88.06
0
VERTEX
8
1
10
313.83
20
88.17
0
VERTEX
8
1
10
314.19
20
88.28
0
VERTEX
8
1
10
314.54
20
88.39
0
VERTEX
8
1
10
314.90
20
88.51
0
VERTEX
8
1
10
315.25
20
88.63
0
VERTEX
8
1
10
315.61
20
88.75
0
VERTEX
8
1
10
315.97
20
88.88
0
VERTEX
8
1
10
316.32
20
89.01
0
VERTEX
8
1
10
316.68
20
89.14
0
VERTEX
8
1
10
317.04
20
89.28
0
VERTEX
8
1
10
317.39
20
89.42
0
VERTEX
8
1
10
317.75
20
89.57
0
VERTEX
8
1
10
318.11
20
89.71
0
VERTEX
8
1
10
318.46
20
89.87
0
VERTEX
8
1
10
318.82
20
90.02
0
VERTEX
8
1
10
319.18
20
90.18
0
VERTEX
8
1
10
319.53
20
90.34
0
VERTEX
8
1
10
319.92
20
96.02
0
VERTEX
8
1
10
319.59
20
96.22
0
VERTEX
8
1
10
319.26
20
96.43
0
VERTEX
8
1
10
318.93
20
96.63
0
VERTEX
8
1
10
318.59
20
96.83
0
VERTEX
8
1
10
318.26
20
97.03
0
VERTEX
8
1
10
317.93
20
97.22
0
VERTEX
8
1
10
317.59
20
97.41
0
VERTEX
8
1
10
317.26
20
97.59
0
VERTEX
8
1
10
316.92
20
97.77
0
VERTEX
8
1
10
316.59
20
97.95
0
VERTEX
8
1
10
316.25
20
98.13
0
VERTEX
8
1
10
315.91
20
98.30
0
VERTEX
8
1
10
315.58
20
98.46
0
VERTEX
8
1
10
315.24
20
98.63
0
VERTEX
8
1
10
314.90
20
98.79
0
VERTEX
8
1
10
314.57
20
98.94
0
VERTEX
8
1
10
314.23
20
99.10
0
VERTEX
8
1
10
313.89
20
99.25
0
VERTEX
8
1
10
313.55
20
99.39
0
VERTEX
8
1
10
313.21
20
99.53
0
VERTEX
8
1
10
312.88
20
99.67
0
VERTEX
8
1
10
312.54
20
99.80
0
VERTEX
8
1
10
312.20
20
99.93
0
VERTEX
8
1
10
311.86
20
100.05
0
VERTEX
8
1
10
311.52
20
100.17
0
VERTEX
8
1
10
311.18
20
100.29
0
VERTEX
8
1
10
310.84
20
100.40
0
VERTEX
8
1
10
310.50
20
100.50
0
VERTEX
8
1
10
310.16
20
100.60
0
VERTEX
8
1
10
309.82
20
100.70
0
VERTEX
8
1
10
309.48
20
100.79
0
VERTEX
8
1
10
309.14
20
100.87
0
VERTEX
8
1
10
308.80
20
100.95
0
VERTEX
8
1
10
308.46
20
101.02
0
VERTEX
8
1
10
308.12
20
101.09
0
VERTEX
8
1
10
307.78
20
101.15
0
VERTEX
8
1
10
307.44
20
101.20
0
VERTEX
8
1
10
307.10
20
101.24
0
VERTEX
8
1
10
306.76
20
101.27
0
VERTEX
8
1
10
306.42
20
101.29
0
VERTEX
8
1
10
306.08
20
101.28
0
VERTEX
8
1
10
305.74
20
101.28
0
VERTEX
8
1
10
305.40
20
101.27
0
VERTEX
8
1
10
305.07
20
101.27
0
VERTEX
8
1
10
304.73
20
101.26
0
VERTEX
8
1
10
304.39
20
101.26
0
VERTEX
8
1
10
304.05
20
101.25
0
VERTEX
8
1
10
303.71
20
101.25
0
VERTEX
8
1
10
303.37
20
101.24
0
VERTEX
8
1
10
303.03
20
101.24
0
VERTEX
8
1
10
302.43
20
110.08
0
VERTEX
8
1
10
302.76
20
110.12
0
VERTEX
8
1
10
303.10
20
110.16
0
VERTEX
8
1
10
303.44
20
110.20
0
VERTEX
8
1
10
303.77
20
110.24
0
VERTEX
8
1
10
304.11
20
110.29
0
VERTEX
8
1
10
304.45
20
110.33
0
VERTEX
8
1
10
304.78
20
110.37
0
VERTEX
8
1
10
305.12
20
110.41
0
VERTEX
8
1
10
305.46
20
110.45
0
VERTEX
8
1
10
305.79
20
110.49
0
VERTEX
8
1
10
306.13
20
110.55
0
VERTEX
8
1
10
306.46
20
110.63
0
VERTEX
8
1
10
306.79
20
110.72
0
VERTEX
8
1
10
307.12
20
110.81
0
VERTEX
8
1
10
307.45
20
110.92
0
VERTEX
8
1
10
307.78
20
111.03
0
VERTEX
8
1
10
308.10
20
111.15
0
VERTEX
8
1
10
308.43
20
111.27
0
VERTEX
8
1
10
308.76
20
111.40
0
VERTEX
8
1
10
309.08
20
111.54
0
VERTEX
8
1
10
309.40
20
111.68
0
VERTEX
8
1
10
309.73
20
111.83
0
VERTEX
8
1
10
310.05
20
111.98
0
VERTEX
8
1
10
310.37
20
112.13
0
VERTEX
8
1
10
310.69
20
112.29
0
VERTEX
8
1
10
311.01
20
112.46
0
VERTEX
8
1
10
311.33
20
112.63
0
VERTEX
8
1
10
311.65
20
112.80
0
VERTEX
8
1
10
311.97
20
112.98
0
VERTEX
8
1
10
312.28
20
113.16
0
VERTEX
8
1
10
312.60
20
113.34
0
VERTEX
8
1
10
312.91
20
113.53
0
VERTEX
8
1
10
313.23
20
113.73
0
VERTEX
8
1
10
313.54
20
113.92
0
VERTEX
8
1
10
313.86
20
114.12
0
VERTEX
8
1
10
314.17
20
114.33
0
VERTEX
8
1
10
314.48
20
114.54
0
VERTEX
8
1
10
314.79
20
114.75
0
VERTEX
8
1
10
315.10
20
114.96
0
VERTEX
8
1
10
315.41
20
115.18
0
VERTEX
8
1
10
315.72
20
115.40
0
VERTEX
8
1
10
316.02
20
115.63
0
VERTEX
8
1
10
316.33
20
115.86
0
VERTEX
8
1
10
316.63
20
116.09
0
VERTEX
8
1
10
316.94
20
116.33
0
VERTEX
8
1
10
317.24
20
116.56
0
VERTEX
8
1
10
317.55
20
116.81
0
VERTEX
8
1
10
317.85
20
117.05
0
VERTEX
8
1
10
318.15
20
117.30
0
VERTEX
8
1
10
318.45
20
117.55
0
VERTEX
8
1
10
317.29
20
123.12
0
VERTEX
8
1
10
316.91
20
123.23
0
VERTEX
8
1
10
316.54
20
123.34
0
VERTEX
8
1
10
316.17
20
123.45
0
VERTEX
8
1
10
315.79
20
123.55
0
VERTEX
8
1
10
315.42
20
123.65
0
VERTEX
8
1
10
315.04
20
123.74
0
VERTEX
8
1
10
314.67
20
123.83
0
VERTEX
8
1
10
314.30
20
123.92
0
VERTEX
8
1
10
313.93
20
124.01
0
VERTEX
8
1
10
313.56
20
124.09
0
VERTEX
8
1
10
313.19
20
124.16
0
VERTEX
8
1
10
312.82
20
124.24
0
VERTEX
8
1
10
312.45
20
124.31
0
VERTEX
8
1
10
312.08
20
124.38
0
VERTEX
8
1
10
311.71
20
124.44
0
VERTEX
8
1
10
311.34
20
124.50
0
VERTEX
8
1
10
310.98
20
124.55
0
VERTEX
8
1
10
310.61
20
124.60
0
VERTEX
8
1
10
310.25
20
124.65
0
VERTEX
8
1
10
309.88
20
124.70
0
VERTEX
8
1
10
309.52
20
124.74
0
VERTEX
8
1
10
309.16
20
124.77
0
VERTEX
8
1
10
308.80
20
124.80
0
VERTEX
8
1
10
308.44
20
124.83
0
VERTEX
8
1
10
308.08
20
124.86
0
VERTEX
8
1
10
307.72
20
124.87
0
VERTEX
8
1
10
307.37
20
124.89
0
VERTEX
8
1
10
307.01
20
124.90
0
VERTEX
8
1
10
306.66
20
124.90
0
VERTEX
8
1
10
306.30
20
124.91
0
VERTEX
8
1
10
305.95
20
124.90
0
VERTEX
8
1
10
305.60
20
124.89
0
VERTEX
8
1
10
305.25
20
124.87
0
VERTEX
8
1
10
304.90
20
124.85
0
VERTEX
8
1
10
304.56
20
124.83
0
VERTEX
8
1
10
304.22
20
124.79
0
VERTEX
8
1
10
303.87
20
124.75
0
VERTEX
8
1
10
303.54
20
124.70
0
VERTEX
8
1
10
303.20
20
124.64
0
VERTEX
8
1
10
302.87
20
124.56
0
VERTEX
8
1
10
302.54
20
124.46
0
VERTEX
8
1
10
302.22
20
124.36
0
VERTEX
8
1
10
301.89
20
124.27
0
VERTEX
8
1
10
301.57
20
124.17
0
VERTEX
8
1
10
301.24
20
124.08
0
VERTEX
8
1
10
300.92
20
123.98
0
VERTEX
8
1
10
300.59
20
123.88
0
VERTEX
8
1
10
300.27
20
123.79
0
VERTEX
8
1
10
299.94
20
123.69
0
VERTEX
8
1
10
299.62
20
123.59
0
VERTEX
8
1
10
296.65
20
131.94
0
VERTEX
8
1
10
296.96
20
132.07
0
VERTEX
8
1
10
297.28
20
132.21
0
VERTEX
8
1
10
297.59
20
132.34
0
VERTEX
8
1
10
297.90
20
132.47
0
VERTEX
8
1
10
298.22
20
132.60
0
VERTEX
8
1
10
298.53
20
132.73
0
VERTEX
8
1
10
298.84
20
132.86
0
VERTEX
8
1
10
299.15
20
132.99
0
VERTEX
8
1
10
299.47
20
133.12
0
VERTEX
8
1
10
299.78
20
133.25
0
VERTEX
8
1
10
300.09
20
133.40
0
VERTEX
8
1
10
300.39
20
133.56
0
VERTEX
8
1
10
300.68
20
133.73
0
VERTEX
8
1
10
300.97
20
133.92
0
VERTEX
8
1
10
301.26
20
134.11
0
VERTEX
8
1
10
301.55
20
134.30
0
VERTEX
8
1
10
301.83
20
134.51
0
VERTEX
8
1
10
302.11
20
134.71
0
VERTEX
8
1
10
302.39
20
134.93
0
VERTEX
8
1
10
302.66
20
135.15
0
VERTEX
8
1
10
302.94
20
135.37
0
VERTEX
8
1
10
303.21
20
135.60
0
VERTEX
8
1
10
303.48
20
135.83
0
VERTEX
8
1
10
303.75
20
136.06
0
VERTEX
8
1
10
304.01
20
136.31
0
VERTEX
8
1
10
304.27
20
136.55
0
VERTEX
8
1
10
304.54
20
136.80
0
VERTEX
8
1
10
304.80
20
137.05
0
VERTEX
8
1
10
305.05
20
137.31
0
VERTEX
8
1
10
305.31
20
137.57
0
VERTEX
8
1
10
305.56
20
137.83
0
VERTEX
8
1
10
305.82
20
138.10
0
VERTEX
8
1
10
306.07
20
138.37
0
VERTEX
8
1
10
306.32
20
138.64
0
VERTEX
8
1
10
306.56
20
138.92
0
VERTEX
8
1
10
306.81
20
139.20
0
VERTEX
8
1
10
307.05
20
139.49
0
VERTEX
8
1
10
307.30
20
139.77
0
VERTEX
8
1
10
307.54
20
140.06
0
VERTEX
8
1
10
307.77
20
140.36
0
VERTEX
8
1
10
308.01
20
140.66
0
VERTEX
8
1
10
308.25
20
140.96
0
VERTEX
8
1
10
308.48
20
141.26
0
VERTEX
8
1
10
308.71
20
141.56
0
VERTEX
8
1
10
308.94
20
141.87
0
VERTEX
8
1
10
309.17
20
142.19
0
VERTEX
8
1
10
309.39
20
142.50
0
VERTEX
8
1
10
309.62
20
142.82
0
VERTEX
8
1
10
309.84
20
143.14
0
VERTEX
8
1
10
310.06
20
143.46
0
VERTEX
8
1
10
307.44
20
148.51
0
VERTEX
8
1
10
307.05
20
148.52
0
VERTEX
8
1
10
306.66
20
148.52
0
VERTEX
8
1
10
306.27
20
148.52
0
VERTEX
8
1
10
305.89
20
148.52
0
VERTEX
8
1
10
305.50
20
148.51
0
VERTEX
8
1
10
305.11
20
148.50
0
VERTEX
8
1
10
304.73
20
148.49
0
VERTEX
8
1
10
304.35
20
148.48
0
VERTEX
8
1
10
303.97
20
148.46
0
VERTEX
8
1
10
303.59
20
148.43
0
VERTEX
8
1
10
303.21
20
148.41
0
VERTEX
8
1
10
302.84
20
148.38
0
VERTEX
8
1
10
302.46
20
148.35
0
VERTEX
8
1
10
302.09
20
148.31
0
VERTEX
8
1
10
301.72
20
148.28
0
VERTEX
8
1
10
301.35
20
148.23
0
VERTEX
8
1
10
300.98
20
148.19
0
VERTEX
8
1
10
300.61
20
148.14
0
VERTEX
8
1
10
300.25
20
148.09
0
VERTEX
8
1
10
299.89
20
148.03
0
VERTEX
8
1
10
299.53
20
147.97
0
VERTEX
8
1
10
299.17
20
147.91
0
VERTEX
8
1
10
298.81
20
147.84
0
VERTEX
8
1
10
298.46
20
147.77
0
VERTEX
8
1
10
298.11
20
147.70
0
VERTEX
8
1
10
297.76
20
147.62
0
VERTEX
8
1
10
297.41
20
147.54
0
VERTEX
8
1
10
297.07
20
147.45
0
VERTEX
8
1
10
296.72
20
147.36
0
VERTEX
8
1
10
296.38
20
147.27
0
VERTEX
8
1
10
296.05
20
147.17
0
VERTEX
8
1
10
295.71
20
147.06
0
VERTEX
8
1
10
295.38
20
146.95
0
VERTEX
8
1
10
295.05
20
146.84
0
VERTEX
8
1
10
294.73
20
146.72
0
VERTEX
8
1
10
294.40
20
146.59
0
VERTEX
8
1
10
294.09
20
146.46
0
VERTEX
8
1
10
293.77
20
146.32
0
VERTEX
8
1
10
293.47
20
146.17
0
VERTEX
8
1
10
293.17
20
146.00
0
VERTEX
8
1
10
292.88
20
145.82
0
VERTEX
8
1
10
292.60
20
145.64
0
VERTEX
8
1
10
292.31
20
145.46
0
VERTEX
8
1
10
292.02
20
145.28
0
VERTEX
8
1
10
291.74
20
145.10
0
VERTEX
8
1
10
291.45
20
144.92
0
VERTEX
8
1
10
291.16
20
144.74
0
VERTEX
8
1
10
290.87
20
144.56
0
VERTEX
8
1
10
290.59
20
144.38
0
VERTEX
8
1
10
290.30
20
144.20
0
VERTEX
8
1
10
285.19
20
151.44
0
VERTEX
8
1
10
285.46
20
151.65
0
VERTEX
8
1
10
285.72
20
151.86
0
VERTEX
8
1
10
285.99
20
152.07
0
VERTEX
8
1
10
286.25
20
152.28
0
VERTEX
8
1
10
286.52
20
152.49
0
VERTEX
8
1
10
286.79
20
152.70
0
VERTEX
8
1
10
287.05
20
152.91
0
VERTEX
8
1
10
287.32
20
153.12
0
VERTEX
8
1
10
287.59
20
153.33
0
VERTEX
8
1
10
287.85
20
153.54
0
VERTEX
8
1
10
288.11
20
153.77
0
VERTEX
8
1
10
288.35
20
154.00
0
VERTEX
8
1
10
288.59
20
154.25
0
VERTEX
8
1
10
288.82
20
154.51
0
VERTEX
8
1
10
289.05
20
154.77
0
VERTEX
8
1
10
289.27
20
155.03
0
VERTEX
8
1
10
289.48
20
155.30
0
VERTEX
8
1
10
289.70
20
155.58
0
VERTEX
8
1
10
289.91
20
155.86
0
VERTEX
8
1
10
290.12
20
156.14
0
VERTEX
8
1
10
290.32
20
156.43
0
VERTEX
8
1
10
290.52
20
156.73
0
VERTEX
8
1
10
290.72
20
157.02
0
VERTEX
8
1
10
290.91
20
157.32
0
VERTEX
8
1
10
291.10
20
157.62
0
VERTEX
8
1
10
291.29
20
157.93
0
VERTEX
8
1
10
291.47
20
158.24
0
VERTEX
8
1
10
291.66
20
158.56
0
VERTEX
8
1
10
291.83
20
158.87
0
VERTEX
8
1
10
292.01
20
159.19
0
VERTEX
8
1
10
292.19
20
159.51
0
VERTEX
8
1
10
292.36
20
159.84
0
VERTEX
8
1
10
292.52
20
160.17
0
VERTEX
8
1
10
292.69
20
160.50
0
VERTEX
8
1
10
292.85
20
160.83
0
VERTEX
8
1
10
293.01
20
161.17
0
VERTEX
8
1
10
293.17
20
161.51
0
VERTEX
8
1
10
293.33
20
161.85
0
VERTEX
8
1
10
293.48
20
162.20
0
VERTEX
8
1
10
293.63
20
162.54
0
VERTEX
8
1
10
293.78
20
162.89
0
VERTEX
8
1
10
293.92
20
163.25
0
VERTEX
8
1
10
294.07
20
163.60
0
VERTEX
8
1
10
294.21
20
163.96
0
VERTEX
8
1
10
294.34
20
164.32
0
VERTEX
8
1
10
294.48
20
164.68
0
VERTEX
8
1
10
294.61
20
165.04
0
VERTEX
8
1
10
294.74
20
165.41
0
VERTEX
8
1
10
294.87
20
165.78
0
VERTEX
8
1
10
294.99
20
166.15
0
VERTEX
8
1
10
291.11
20
170.31
0
VERTEX
8
1
10
290.73
20
170.21
0
VERTEX
8
1
10
290.36
20
170.10
0
VERTEX
8
1
10
289.98
20
170.00
0
VERTEX
8
1
10
289.61
20
169.89
0
VERTEX
8
1
10
289.24
20
169.78
0
VERTEX
8
1
10
288.87
20
169.67
0
VERTEX
8
1
10
288.51
20
169.55
0
VERTEX
8
1
10
288.14
20
169.44
0
VERTEX
8
1
10
287.78
20
169.31
0
VERTEX
8
1
10
287.42
20
169.19
0
VERTEX
8
1
10
287.07
20
169.06
0
VERTEX
8
1
10
286.71
20
168.94
0
VERTEX
8
1
10
286.36
20
168.80
0
VERTEX
8
1
10
286.01
20
168.67
0
VERTEX
8
1
10
285.66
20
168.53
0
VERTEX
8
1
10
285.32
20
168.39
0
VERTEX
8
1
10
284.98
20
168.25
0
VERTEX
8
1
10
284.64
20
168.10
0
VERTEX
8
1
10
284.30
20
167.96
0
VERTEX
8
1
10
283.97
20
167.80
0
VERTEX
8
1
10
283.64
20
167.65
0
VERTEX
8
1
10
283.31
20
167.49
0
VERTEX
8
1
10
282.98
20
167.33
0
VERTEX
8
1
10
282.66
20
167.17
0
VERTEX
8
1
10
282.34
20
167.00
0
VERTEX
8
1
10
282.03
20
166.83
0
VERTEX
8
1
10
281.71
20
166.66
0
VERTEX
8
1
10
281.41
20
166.48
0
VERTEX
8
1
10
281.10
20
166.30
0
VERTEX
8
1
10
280.80
20
166.12
0
VERTEX
8
1
10
280.50
20
165.93
0
VERTEX
8
1
10
280.21
20
165.74
0
VERTEX
8
1
10
279.92
20
165.55
0
VERTEX
8
1
10
279.63
20
165.35
0
VERTEX
8
1
10
279.35
20
165.15
0
VERTEX
8
1
10
279.07
20
164.94
0
VERTEX
8
1
10
278.81
20
164.73
0
VERTEX
8
1
10
278.54
20
164.51
0
VERTEX
8
1
10
278.29
20
164.28
0
VERTEX
8
1
10
278.05
20
164.04
0
VERTEX
8
1
10
277.82
20
163.79
0
VERTEX
8
1
10
277.59
20
163.54
0
VERTEX
8
1
10
277.36
20
163.29
0
VERTEX
8
1
10
277.14
20
163.03
0
VERTEX
8
1
10
276.91
20
162.78
0
VERTEX
8
1
10
276.68
20
162.53
0
VERTEX
8
1
10
276.45
20
162.28
0
VERTEX
8
1
10
276.22
20
162.03
0
VERTEX
8
1
10
276.00
20
161.78
0
VERTEX
8
1
10
275.77
20
161.53
0
VERTEX
8
1
10
268.89
20
167.12
0
VERTEX
8
1
10
269.09
20
167.39
0
VERTEX
8
1
10
269.29
20
167.67
0
VERTEX
8
1
10
269.49
20
167.94
0
VERTEX
8
1
10
269.69
20
168.22
0
VERTEX
8
1
10
269.89
20
168.49
0
VERTEX
8
1
10
270.09
20
168.76
0
VERTEX
8
1
10
270.29
20
169.04
0
VERTEX
8
1
10
270.49
20
169.31
0
VERTEX
8
1
10
270.69
20
169.59
0
VERTEX
8
1
10
270.89
20
169.86
0
VERTEX
8
1
10
271.08
20
170.15
0
VERTEX
8
1
10
271.25
20
170.44
0
VERTEX
8
1
10
271.41
20
170.74
0
VERTEX
8
1
10
271.56
20
171.05
0
VERTEX
8
1
10
271.71
20
171.36
0
VERTEX
8
1
10
271.85
20
171.68
0
VERTEX
8
1
10
271.99
20
172.00
0
VERTEX
8
1
10
272.12
20
172.32
0
VERTEX
8
1
10
272.25
20
172.65
0
VERTEX
8
1
10
272.37
20
172.98
0
VERTEX
8
1
10
272.49
20
173.31
0
VERTEX
8
1
10
272.60
20
173.65
0
VERTEX
8
1
10
272.71
20
173.99
0
VERTEX
8
1
10
272.81
20
174.33
0
VERTEX
8
1
10
272.92
20
174.67
0
VERTEX
8
1
10
273.01
20
175.02
0
VERTEX
8
1
10
273.11
20
175.37
0
VERTEX
8
1
10
273.20
20
175.72
0
VERTEX
8
1
10
273.29
20
176.07
0
VERTEX
8
1
10
273.37
20
176.42
0
VERTEX
8
1
10
273.45
20
176.78
0
VERTEX
8
1
10
273.53
20
177.14
0
VERTEX
8
1
10
273.60
20
177.50
0
VERTEX
8
1
10
273.67
20
177.87
0
VERTEX
8
1
10
273.74
20
178.23
0
VERTEX
8
1
10
273.80
20
178.60
0
VERTEX
8
1
10
273.86
20
178.97
0
VERTEX
8
1
10
273.92
20
179.34
0
VERTEX
8
1
10
273.98
20
179.71
0
VERTEX
8
1
10
274.03
20
180.09
0
VERTEX
8
1
10
274.07
20
180.47
0
VERTEX
8
1
10
274.12
20
180.84
0
VERTEX
8
1
10
274.16
20
181.22
0
VERTEX
8
1
10
274.20
20
181.61
0
VERTEX
8
1
10
274.23
20
181.99
0
VERTEX
8
1
10
274.27
20
182.37
0
VERTEX
8
1
10
274.30
20
182.76
0
VERTEX
8
1
10
274.32
20
183.15
0
VERTEX
8
1
10
274.35
20
183.54
0
VERTEX
8
1
10
274.37
20
183.93
0
VERTEX
8
1
10
269.51
20
186.88
0
VERTEX
8
1
10
269.17
20
186.69
0
VERTEX
8
1
10
268.83
20
186.49
0
VERTEX
8
1
10
268.50
20
186.28
0
VERTEX
8
1
10
268.17
20
186.08
0
VERTEX
8
1
10
267.85
20
185.87
0
VERTEX
8
1
10
267.52
20
185.67
0
VERTEX
8
1
10
267.20
20
185.46
0
VERTEX
8
1
10
266.88
20
185.24
0
VERTEX
8
1
10
266.57
20
185.03
0
VERTEX
8
1
10
266.25
20
184.82
0
VERTEX
8
1
10
265.94
20
184.60
0
VERTEX
8
1
10
265.64
20
184.38
0
VERTEX
8
1
10
265.34
20
184.16
0
VERTEX
8
1
10
265.03
20
183.93
0
VERTEX
8
1
10
264.74
20
183.71
0
VERTEX
8
1
10
264.44
20
183.48
0
VERTEX
8
1
10
264.15
20
183.25
0
VERTEX
8
1
10
263.87
20
183.02
0
VERTEX
8
1
10
263.58
20
182.78
0
VERTEX
8
1
10
263.30
20
182.55
0
VERTEX
8
1
10
263.03
20
182.31
0
VERTEX
8
1
10
262.75
20
182.07
0
VERTEX
8
1
10
262.48
20
181.83
0
VERTEX
8
1
10
262.22
20
181.58
0
VERTEX
8
1
10
261.95
20
181.34
0
VERTEX
8
1
10
261.70
20
181.09
0
VERTEX
8
1
10
261.44
20
180.84
0
VERTEX
8
1
10
261.19
20
180.59
0
VERTEX
8
1
10
260.95
20
180.33
0
VERTEX
8
1
10
260.70
20
180.07
0
VERTEX
8
1
10
260.47
20
179.81
0
VERTEX
8
1
10
260.24
20
179.55
0
VERTEX
8
1
10
260.01
20
179.28
0
VERTEX
8
1
10
259.79
20
179.01
0
VERTEX
8
1
10
259.57
20
178.74
0
VERTEX
8
1
10
259.36
20
178.47
0
VERTEX
8
1
10
259.16
20
178.19
0
VERTEX
8
1
10
258.97
20
177.91
0
VERTEX
8
1
10
258.78
20
177.62
0
VERTEX
8
1
10
258.62
20
177.33
0
VERTEX
8
1
10
258.46
20
177.02
0
VERTEX
8
1
10
258.31
20
176.72
0
VERTEX
8
1
10
258.16
20
176.42
0
VERTEX
8
1
10
258.01
20
176.11
0
VERTEX
8
1
10
257.86
20
175.81
0
VERTEX
8
1
10
257.71
20
175.51
0
VERTEX
8
1
10
257.56
20
175.20
0
VERTEX
8
1
10
257.40
20
174.90
0
VERTEX
8
1
10
257.25
20
174.59
0
VERTEX
8
1
10
257.10
20
174.29
0
VERTEX
8
1
10
248.97
20
177.82
0
VERTEX
8
1
10
249.09
20
178.14
0
VERTEX
8
1
10
249.21
20
178.46
0
VERTEX
8
1
10
249.33
20
178.78
0
VERTEX
8
1
10
249.44
20
179.09
0
VERTEX
8
1
10
249.56
20
179.41
0
VERTEX
8
1
10
249.68
20
179.73
0
VERTEX
8
1
10
249.80
20
180.05
0
VERTEX
8
1
10
249.92
20
180.37
0
VERTEX
8
1
10
250.04
20
180.68
0
VERTEX
8
1
10
250.15
20
181.00
0
VERTEX
8
1
10
250.26
20
181.33
0
VERTEX
8
1
10
250.34
20
181.66
0
VERTEX
8
1
10
250.41
20
181.99
0
VERTEX
8
1
10
250.48
20
182.33
0
VERTEX
8
1
10
250.54
20
182.67
0
VERTEX
8
1
10
250.59
20
183.01
0
VERTEX
8
1
10
250.63
20
183.36
0
VERTEX
8
1
10
250.67
20
183.70
0
VERTEX
8
1
10
250.71
20
184.05
0
VERTEX
8
1
10
250.74
20
184.40
0
VERTEX
8
1
10
250.76
20
184.75
0
VERTEX
8
1
10
250.78
20
185.11
0
VERTEX
8
1
10
250.79
20
185.46
0
VERTEX
8
1
10
250.80
20
185.82
0
VERTEX
8
1
10
250.81
20
186.18
0
VERTEX
8
1
10
250.81
20
186.54
0
VERTEX
8
1
10
250.81
20
186.90
0
VERTEX
8
1
10
250.80
20
187.26
0
VERTEX
8
1
10
250.79
20
187.63
0
VERTEX
8
1
10
250.77
20
187.99
0
VERTEX
8
1
10
250.75
20
188.36
0
VERTEX
8
1
10
250.73
20
188.72
0
VERTEX
8
1
10
250.70
20
189.09
0
VERTEX
8
1
10
250.67
20
189.46
0
VERTEX
8
1
10
250.64
20
189.83
0
VERTEX
8
1
10
250.60
20
190.20
0
VERTEX
8
1
10
250.56
20
190.57
0
VERTEX
8
1
10
250.52
20
190.95
0
VERTEX
8
1
10
250.47
20
191.32
0
VERTEX
8
1
10
250.42
20
191.70
0
VERTEX
8
1
10
250.36
20
192.07
0
VERTEX
8
1
10
250.30
20
192.45
0
VERTEX
8
1
10
250.24
20
192.82
0
VERTEX
8
1
10
250.17
20
193.20
0
VERTEX
8
1
10
250.10
20
193.58
0
VERTEX
8
1
10
250.03
20
193.96
0
VERTEX
8
1
10
249.95
20
194.34
0
VERTEX
8
1
10
249.88
20
194.72
0
VERTEX
8
1
10
249.79
20
195.10
0
VERTEX
8
1
10
249.71
20
195.49
0
VERTEX
8
1
10
244.23
20
197.02
0
VERTEX
8
1
10
243.96
20
196.74
0
VERTEX
8
1
10
243.69
20
196.45
0
VERTEX
8
1
10
243.42
20
196.17
0
VERTEX
8
1
10
243.16
20
195.89
0
VERTEX
8
1
10
242.90
20
195.60
0
VERTEX
8
1
10
242.65
20
195.31
0
VERTEX
8
1
10
242.39
20
195.02
0
VERTEX
8
1
10
242.14
20
194.73
0
VERTEX
8
1
10
241.90
20
194.44
0
VERTEX
8
1
10
241.66
20
194.15
0
VERTEX
8
1
10
241.42
20
193.86
0
VERTEX
8
1
10
241.18
20
193.56
0
VERTEX
8
1
10
240.95
20
193.27
0
VERTEX
8
1
10
240.72
20
192.97
0
VERTEX
8
1
10
240.50
20
192.67
0
VERTEX
8
1
10
240.27
20
192.37
0
VERTEX
8
1
10
240.06
20
192.07
0
VERTEX
8
1
10
239.84
20
191.77
0
VERTEX
8
1
10
239.63
20
191.47
0
VERTEX
8
1
10
239.43
20
191.17
0
VERTEX
8
1
10
239.22
20
190.87
0
VERTEX
8
1
10
239.02
20
190.56
0
VERTEX
8
1
10
238.83
20
190.26
0
VERTEX
8
1
10
238.64
20
189.95
0
VERTEX
8
1
10
238.45
20
189.64
0
VERTEX
8
1
10
238.27
20
189.33
0
VERTEX
8
1
10
238.09
20
189.02
0
VERTEX
8
1
10
237.92
20
188.71
0
VERTEX
8
1
10
237.75
20
188.40
0
VERTEX
8
1
10
237.59
20
188.08
0
VERTEX
8
1
10
237.43
20
187.77
0
VERTEX
8
1
10
237.28
20
187.45
0
VERTEX
8
1
10
237.14
20
187.14
0
VERTEX
8
1
10
236.99
20
186.82
0
VERTEX
8
1
10
236.86
20
186.50
0
VERTEX
8
1
10
236.73
20
186.18
0
VERTEX
8
1
10
236.61
20
185.86
0
VERTEX
8
1
10
236.50
20
185.53
0
VERTEX
8
1
10
236.40
20
185.21
0
VERTEX
8
1
10
236.32
20
184.88
0
VERTEX
8
1
10
236.26
20
184.54
0
VERTEX
8
1
10
236.19
20
184.21
0
VERTEX
8
1
10
236.13
20
183.88
0
VERTEX
8
1
10
236.07
20
183.54
0
VERTEX
8
1
10
236.00
20
183.21
0
VERTEX
8
1
10
235.94
20
182.88
0
VERTEX
8
1
10
235.87
20
182.55
0
VERTEX
8
1
10
235.81
20
182.21
0
VERTEX
8
1
10
235.75
20
181.88
0
VERTEX
8
1
10
235.68
20
181.55
0
VERTEX
8
1
10
226.90
20
182.75
0
SEQEND
0
POLYLINE
8
1
66
1
70
0
0
VERTEX
8
1
10
220.00
20
104.00
0
VERTEX
8
1
10
220.35
20
103.98
0
VERTEX
8
1
10
220.69
20
103.94
0
VERTEX
8
1
10
221.04
20
103.86
0
VERTEX
8
1
10
221.37
20
103.76
0
VERTEX
8
1
10
221.69
20
103.63
0
VERTEX
8
1
10
222.00
20
103.46
0
VERTEX
8
1
10
222.29
20
103.28
0
VERTEX
8
1
10
222.57
20
103.06
0
VERTEX
8
1
10
222.83
20
102.83
0
VERTEX
8
1
10
223.06
20
102.57
0
VERTEX
8
1
10
223.28
20
102.29
0
VERTEX
8
1
10
223.46
20
102.00
0
VERTEX
8
1
10
223.63
20
101.69
0
VERTEX
8
1
10
223.76
20
101.37
0
VERTEX
8
1
10
223.86
20
101.04
0
VERTEX
8
1
10
223.94
20
100.69
0
VERTEX
8
1
10
223.98
20
100.35
0
VERTEX
8
1
10
224.00
20
100.00
0
VERTEX
8
1
10
223.98
20
99.65
0
VERTEX
8
1
10
223.94
20
99.31
0
VERTEX
8
1
10
223.86
20
98.96
0
VERTEX
8
1
10
223.76
20
98.63
0
VERTEX
8
1
10
223.63
20
98.31
0
VERTEX
8
1
10
223.46
20
98.00
0
VERTEX
8
1
10
223.28
20
97.71
0
VERTEX
8
1
10
223.06
20
97.43
0
VERTEX
8
1
10
222.83
20
97.17
0
VERTEX
8
1
10
222.57
20
96.94
0
VERTEX
8
1
10
222.29
20
96.72
0
VERTEX
8
1
10
222.00
20
96.54
0
VERTEX
8
1
10
221.69
20
96.37
0
VERTEX
8
1
10
221.37
20
96.24
0
VERTEX
8
1
10
221.04
20
96.14
0
VERTEX
8
1
10
220.69
20
96.06
0
VERTEX
8
1
10
220.35
20
96.02
0
VERTEX
8
1
10
220.00
20
96.00
0
VERTEX
8
1
10
219.65
20
96.02
0
VERTEX
8
1
10
219.31
20
96.06
0
VERTEX
8
1
10
218.96
20
96.14
0
VERTEX
8
1
10
218.63
20
96.24
0
VERTEX
8
1
10
218.31
20
96.37
0
VERTEX
8
1
10
218.00
20
96.54
0
VERTEX
8
1
10
217.71
20
96.72
0
VERTEX
8
1
10
217.43
20
96.94
0
VERTEX
8
1
10
217.17
20
97.17
0
VERTEX
8
1
10
216.94
20
97.43
0
VERTEX
8
1
10
216.72
20
97.71
0
VERTEX
8
1
10
216.54
20
98.00
0
VERTEX
8
1
10
216.37
20
98.31
0
VERTEX
8
1
10
216.24
20
98.63
0
VERTEX
8
1
10
216.14
20
98.96
0
VERTEX
8
1
10
216.06
20
99.31
0
VERTEX
8
1
10
216.02
20
99.65
0
VERTEX
8
1
10
216.00
20
100.00
0
VERTEX
8
1
10
216.02
20
100.35
0
VERTEX
8
1
10
216.06
20
100.69
0
VERTEX
8
1
10
216.14
20
101.04
0
VERTEX
8
1
10
216.24
20
101.37
0
VERTEX
8
1
10
216.37
20
101.69
0
VERTEX
8
1
10
216.54
20
102.00
0
VERTEX
8
1
10
216.72
20
102.29
0
VERTEX
8
1
10
216.94
20
102.57
0
VERTEX
8
1
10
217.17
20
102.83
0
VERTEX
8
1
10
217.43
20
103.06
0
VERTEX
8
1
10
217.71
20
103.28
0
VERTEX
8
1
10
218.00
20
103.46
0
VERTEX
8
1
10
218.31
20
103.63
0
VERTEX
8
1
10
218.63
20
103.76
0
VERTEX
8
1
10
218.96
20
103.86
0
VERTEX
8
1
10
219.31
20
103.94
0
VERTEX
8
1
10
219.65
20
103.98
0
VERTEX
8
1
10
220.00
20
104.00
0
VERTEX
8
1
10
220.00
20
104.00
0
SEQEND
0
ENDSEC
0
EOF
